<svg width="128" height="47" viewBox="0 0 128 47" fill="none" xmlns="http://www.w3.org/2000/svg">
<g clip-path="url(#clip0_83_30)">
<path d="M6.39 36.56L5.95 30.61H3.04L2.42 36.56H0L3.3 7.21999H6.08L9.16 36.56H6.38H6.39ZM4.67 14.4L3.3 28.01H5.72L4.66 14.4H4.67ZM15.33 36.91C12.95 36.91 11.06 34.88 11.06 31.89V11.89C11.06 8.93999 12.95 6.86999 15.33 6.86999C17.71 6.86999 19.43 8.93999 19.43 11.89V17.49H17.14V11.37C17.14 10.4 16.52 9.55999 15.47 9.55999C14.42 9.55999 13.75 10.39 13.75 11.37V32.43C13.75 33.45 14.37 34.24 15.47 34.24C16.57 34.24 17.14 33.45 17.14 32.43V26.26H19.43V31.9C19.43 34.9 17.71 36.92 15.33 36.92V36.91ZM26.17 36.91C23.79 36.91 21.89 34.88 21.89 31.89V11.89C21.89 8.93999 23.79 6.86999 26.17 6.86999C28.55 6.86999 30.27 8.93999 30.27 11.89V17.49H27.98V11.37C27.98 10.4 27.36 9.55999 26.31 9.55999C25.26 9.55999 24.59 10.39 24.59 11.37V32.43C24.59 33.45 25.21 34.24 26.31 34.24C27.41 34.24 27.98 33.45 27.98 32.43V26.26H30.27V31.9C30.27 34.9 28.55 36.92 26.17 36.92V36.91ZM32.96 36.56V7.21999H35.65V36.56H32.96ZM42.78 36.91C40.4 36.91 38.42 34.88 38.42 31.89V11.89C38.42 8.93999 40.4 6.86999 42.78 6.86999C45.16 6.86999 47.14 8.93999 47.14 11.89V31.89C47.14 34.89 45.16 36.91 42.78 36.91ZM44.5 11.36C44.5 10.39 43.84 9.54999 42.78 9.54999C41.72 9.54999 41.06 10.38 41.06 11.36V32.42C41.06 33.44 41.68 34.23 42.78 34.23C43.88 34.23 44.5 33.44 44.5 32.42V11.36ZM43.48 5.89999H42.03L43.4 0.91999H45.73L43.48 5.89999ZM57.14 36.56L53.26 21.41L52.38 16.96V36.57H49.87V7.21999H52.47L55.82 22.55L56.61 27.09V7.21999H59.12V36.56H57.14ZM64.92 36.56V7.60999H67.57V36.55H64.92V36.56ZM76.74 36.56L72.91 21.61L72.04 17.22V36.56H69.56V7.60999H72.12L75.42 22.73L76.2 27.21V7.60999H78.68V36.55H76.73L76.74 36.56ZM85.34 10.18V36.56H82.73V10.18H79.91V7.61999H87.95V10.18H85.34ZM89.25 36.56V7.60999H96.29V10.09H91.86V20.43H95.07V22.91H91.86V34.08H96.29V36.56H89.25ZM105.76 36.78C104.24 36.78 103.59 36.21 103.59 34.08V25.65C103.59 24.48 102.98 23.74 102.07 23.74H100.5V36.56H97.85V7.60999H102.24C103.94 7.60999 106.06 8.47999 106.06 12.17V18.91C106.06 20.65 105.63 21.95 104.28 22.56C105.63 23.17 106.15 24.47 106.15 26.17V34.04C106.15 34.82 106.23 35.17 106.72 35.17V36.78H105.76ZM103.46 11.92C103.46 10.75 102.94 10.27 102.2 10.27H100.5V21.22H101.98C102.85 21.22 103.46 20.48 103.46 19.3V11.91V11.92ZM115.15 36.56L111.33 21.61L110.46 17.22V36.56H107.98V7.60999H110.54L113.84 22.73L114.62 27.21V7.60999H117.1V36.55H115.14L115.15 36.56ZM124.54 36.56L124.11 30.69H121.24L120.63 36.56H118.24L121.5 7.61999H124.24L127.28 36.56H124.54ZM122.84 14.7L121.49 28.13H123.88L122.84 14.7ZM7.74 1.40999C7.74 1.40999 7.71 1.46999 7.64 1.46999C7.58 1.46999 7.54 1.44999 7.54 1.40999C7.5 1.08999 7.4 0.85999 7.24 0.71999C7.09 0.57999 6.86 0.50999 6.55 0.50999H6.04C5.76 0.50999 5.6 0.64999 5.53 0.92999L5.15 2.50999H5.92C6.15 2.50999 6.32 2.45999 6.43 2.35999C6.54 2.25999 6.63 2.08999 6.73 1.82999C6.75 1.78999 6.78 1.76999 6.83 1.76999C6.9 1.76999 6.93 1.78999 6.93 1.81999C6.93 1.83999 6.9 1.98999 6.82 2.26999C6.74 2.56999 6.68 2.84999 6.63 3.09999C6.61 3.20999 6.6 3.28999 6.58 3.34999L6.55 3.51999C6.53 3.56999 6.5 3.59999 6.44 3.59999C6.37 3.59999 6.34 3.57999 6.34 3.53999C6.35 3.40999 6.36 3.30999 6.36 3.21999C6.36 3.03999 6.33 2.90999 6.26 2.83999C6.19 2.76999 6.07 2.72999 5.88 2.72999H5.1L4.72 4.31999C4.7 4.41999 4.69 4.49999 4.69 4.55999C4.69 4.65999 4.74 4.73999 4.83 4.78999C4.92 4.83999 5.08 4.87999 5.31 4.90999C5.33 4.90999 5.34 4.93999 5.34 4.96999C5.34 4.99999 5.33 5.03999 5.31 5.05999C5.29 5.08999 5.27 5.09999 5.25 5.09999C5.08 5.09999 4.89 5.09999 4.65 5.07999C4.45 5.05999 4.3 5.05999 4.18 5.05999C4.06 5.05999 3.9 5.05999 3.7 5.07999C3.47 5.09999 3.29 5.09999 3.14 5.09999C3.12 5.09999 3.11 5.07999 3.11 5.03999C3.11 5.00999 3.12 4.97999 3.14 4.95999C3.16 4.92999 3.18 4.91999 3.2 4.90999C3.38 4.88999 3.53 4.85999 3.63 4.82999C3.73 4.78999 3.81 4.74999 3.86 4.68999C3.91 4.62999 3.96 4.50999 4.01 4.31999L4.79 1.02999C4.81 0.92999 4.82 0.84999 4.82 0.78999C4.82 0.68999 4.77 0.60999 4.68 0.55999C4.59 0.50999 4.43 0.46999 4.2 0.43999C4.18 0.43999 4.17 0.41999 4.17 0.37999C4.17 0.34999 4.18 0.30999 4.2 0.28999C4.22 0.25999 4.23 0.24999 4.26 0.24999C4.74 0.27999 5.32 0.28999 5.99 0.28999C6.66 0.28999 7.21 0.27999 7.7 0.24999C7.69 0.41999 7.68 0.55999 7.68 0.67999C7.68 0.88999 7.69 1.12999 7.71 1.40999H7.74ZM10.31 2.19999L9.58 4.34999C9.52 4.52999 9.49 4.64999 9.49 4.68999C9.49 4.74999 9.51 4.76999 9.56 4.76999C9.63 4.76999 9.77 4.64999 9.96 4.39999C10.06 4.27999 10.11 4.21999 10.13 4.21999C10.16 4.21999 10.19 4.22999 10.21 4.25999C10.24 4.27999 10.25 4.30999 10.25 4.33999C10.25 4.37999 10.17 4.47999 10.02 4.65999C9.87 4.82999 9.72 4.96999 9.57 5.06999C9.43 5.16999 9.3 5.21999 9.2 5.21999C9.08 5.21999 9 5.18999 8.93 5.13999C8.87 5.07999 8.83 4.99999 8.83 4.90999C8.83 4.78999 8.87 4.62999 8.94 4.40999L9.17 3.72999C8.89 4.19999 8.62 4.56999 8.35 4.82999C8.08 5.08999 7.85 5.21999 7.64 5.21999C7.51 5.21999 7.41 5.17999 7.32 5.08999C7.23 4.99999 7.2 4.88999 7.2 4.75999C7.2 4.60999 7.25 4.40999 7.34 4.17999L7.9 2.85999C7.98 2.66999 8.02 2.55999 8.02 2.51999C8.02 2.45999 8 2.43999 7.96 2.43999C7.87 2.43999 7.73 2.56999 7.51 2.82999C7.41 2.94999 7.36 2.99999 7.34 2.99999C7.31 2.99999 7.29 2.97999 7.27 2.95999C7.25 2.93999 7.24 2.90999 7.24 2.87999C7.24 2.83999 7.32 2.72999 7.48 2.55999C7.64 2.38999 7.8 2.24999 7.96 2.14999C8.11 2.04999 8.25 1.99999 8.36 1.99999C8.46 1.99999 8.54 2.01999 8.61 2.06999C8.67 2.11999 8.7 2.17999 8.7 2.25999C8.7 2.38999 8.65 2.57999 8.55 2.80999L7.98 4.15999C7.91 4.30999 7.88 4.43999 7.88 4.53999C7.88 4.66999 7.93 4.73999 8.04 4.73999C8.17 4.73999 8.36 4.57999 8.61 4.25999C8.86 3.93999 9.14 3.49999 9.44 2.94999L9.7 2.20999C9.7 2.20999 9.75 2.14999 9.83 2.11999C9.9 2.09999 9.98 2.08999 10.06 2.08999C10.13 2.08999 10.19 2.08999 10.24 2.11999C10.3 2.13999 10.32 2.16999 10.32 2.20999L10.31 2.19999ZM13.64 2.44999C13.64 2.59999 13.59 2.79999 13.49 3.02999L12.94 4.33999C12.86 4.52999 12.82 4.64999 12.82 4.67999C12.82 4.73999 12.84 4.75999 12.89 4.75999C12.97 4.75999 13.12 4.62999 13.33 4.37999C13.43 4.25999 13.48 4.20999 13.5 4.20999C13.53 4.20999 13.55 4.21999 13.57 4.24999C13.59 4.26999 13.6 4.29999 13.6 4.32999C13.6 4.36999 13.52 4.47999 13.35 4.64999C13.19 4.81999 13.03 4.95999 12.87 5.05999C12.71 5.15999 12.58 5.20999 12.47 5.20999C12.37 5.20999 12.29 5.18999 12.23 5.13999C12.17 5.08999 12.14 5.02999 12.14 4.94999C12.14 4.81999 12.19 4.62999 12.29 4.38999L12.86 3.03999C12.93 2.88999 12.96 2.75999 12.96 2.65999C12.96 2.52999 12.91 2.45999 12.8 2.45999C12.67 2.45999 12.48 2.62999 12.22 2.96999C11.96 3.30999 11.68 3.75999 11.37 4.33999L11.14 5.00999C11.14 5.00999 11.08 5.06999 11.01 5.08999C10.93 5.10999 10.86 5.11999 10.79 5.11999C10.72 5.11999 10.66 5.10999 10.6 5.08999C10.55 5.06999 10.52 5.03999 10.52 5.01999V4.99999L11.25 2.84999C11.31 2.68999 11.34 2.57999 11.34 2.50999C11.34 2.44999 11.32 2.42999 11.28 2.42999C11.2 2.42999 11.07 2.54999 10.88 2.79999C10.78 2.92999 10.72 2.98999 10.7 2.98999C10.67 2.98999 10.64 2.96999 10.62 2.94999C10.6 2.92999 10.59 2.89999 10.59 2.86999C10.59 2.83999 10.67 2.72999 10.82 2.54999C10.97 2.36999 11.12 2.22999 11.27 2.12999C11.41 2.02999 11.54 1.97999 11.64 1.97999C11.88 1.97999 12 2.07999 12 2.29999C12 2.42999 11.97 2.58999 11.9 2.79999L11.69 3.38999C11.96 2.93999 12.22 2.59999 12.48 2.35999C12.74 2.10999 12.98 1.98999 13.19 1.98999C13.32 1.98999 13.42 2.02999 13.51 2.11999C13.6 2.19999 13.64 2.31999 13.64 2.44999ZM17.8 0.0799902C17.8 0.0799902 17.79 0.17999 17.77 0.25999L16.34 4.19999C16.26 4.41999 16.22 4.56999 16.22 4.62999C16.22 4.69999 16.24 4.73999 16.29 4.73999C16.37 4.73999 16.52 4.59999 16.73 4.30999C16.81 4.19999 16.86 4.14999 16.87 4.14999C16.9 4.14999 16.93 4.16999 16.95 4.18999C16.97 4.20999 16.99 4.23999 16.99 4.26999C16.99 4.30999 16.91 4.41999 16.76 4.60999C16.61 4.79999 16.46 4.93999 16.31 5.04999C16.16 5.15999 16.04 5.20999 15.92 5.20999C15.67 5.20999 15.54 5.07999 15.54 4.81999C15.54 4.64999 15.61 4.41999 15.74 4.11999C15.56 4.42999 15.34 4.68999 15.09 4.89999C14.84 5.10999 14.62 5.20999 14.42 5.20999C14.26 5.20999 14.13 5.14999 14.03 5.01999C13.93 4.88999 13.88 4.71999 13.88 4.51999C13.88 4.18999 14 3.82999 14.22 3.42999C14.45 3.03999 14.74 2.69999 15.09 2.40999C15.44 2.12999 15.74 1.97999 15.99 1.97999C16.07 1.97999 16.16 1.99999 16.25 2.03999C16.34 2.06999 16.41 2.11999 16.45 2.17999L16.84 1.06999C16.89 0.93999 16.92 0.82999 16.92 0.74999C16.92 0.65999 16.82 0.59999 16.62 0.57999C16.58 0.57999 16.56 0.54999 16.56 0.48999C16.56 0.42999 16.58 0.40999 16.61 0.40999C16.76 0.37999 16.94 0.32999 17.14 0.25999C17.35 0.17999 17.51 0.10999 17.61 0.0399902C17.66 0.00999023 17.7 -0.0100098 17.73 -0.0100098C17.78 -0.0100098 17.8 0.0199902 17.8 0.0699902V0.0799902ZM16.32 2.54999C16.32 2.31999 16.21 2.20999 15.99 2.20999C15.79 2.20999 15.57 2.32999 15.34 2.56999C15.11 2.80999 14.91 3.09999 14.74 3.44999C14.58 3.79999 14.5 4.11999 14.5 4.41999C14.5 4.63999 14.58 4.74999 14.72 4.74999C14.88 4.74999 15.07 4.61999 15.31 4.35999C15.54 4.09999 15.77 3.77999 15.99 3.36999C16.21 2.96999 16.32 2.69999 16.32 2.54999ZM20.42 2.04999L19.43 4.33999C19.36 4.49999 19.33 4.60999 19.33 4.67999C19.33 4.73999 19.35 4.75999 19.4 4.75999C19.47 4.75999 19.62 4.61999 19.85 4.33999C19.96 4.20999 20.02 4.14999 20.03 4.14999C20.06 4.14999 20.08 4.16999 20.11 4.18999C20.14 4.20999 20.14 4.23999 20.14 4.26999C20.14 4.29999 20.06 4.41999 19.88 4.59999C19.71 4.78999 19.55 4.93999 19.4 5.04999C19.25 5.14999 19.12 5.20999 19.01 5.20999C18.78 5.20999 18.66 5.09999 18.66 4.87999C18.66 4.67999 18.76 4.38999 18.96 4.02999C18.79 4.34999 18.56 4.62999 18.28 4.85999C18 5.08999 17.75 5.20999 17.54 5.20999C17.42 5.20999 17.32 5.16999 17.26 5.07999C17.19 4.98999 17.16 4.85999 17.16 4.70999C17.16 4.39999 17.29 4.04999 17.54 3.65999C17.8 3.25999 18.11 2.91999 18.48 2.61999C18.85 2.31999 19.17 2.17999 19.42 2.17999C19.54 2.17999 19.64 2.20999 19.72 2.25999L19.8 2.05999C19.83 1.97999 19.95 1.93999 20.16 1.93999C20.33 1.93999 20.41 1.96999 20.41 2.03999V2.05999L20.42 2.04999ZM19.55 2.59999C19.55 2.45999 19.5 2.38999 19.4 2.38999C19.2 2.38999 18.98 2.49999 18.72 2.71999C18.46 2.93999 18.24 3.20999 18.05 3.52999C17.86 3.84999 17.76 4.11999 17.76 4.32999C17.76 4.45999 17.78 4.54999 17.82 4.59999C17.86 4.64999 17.92 4.67999 18.02 4.67999C18.14 4.67999 18.32 4.54999 18.57 4.26999C18.82 3.99999 19.05 3.68999 19.25 3.34999C19.45 3.00999 19.56 2.74999 19.56 2.59999H19.55ZM22.91 2.42999C22.91 2.49999 22.89 2.55999 22.84 2.60999C22.8 2.65999 22.74 2.67999 22.67 2.67999C22.55 2.67999 22.42 2.60999 22.31 2.46999C22.21 2.34999 22.11 2.28999 22.02 2.28999C21.93 2.28999 21.8 2.39999 21.65 2.61999C21.5 2.83999 21.38 3.08999 21.3 3.38999C21.22 3.68999 21.17 3.99999 21.17 4.31999C21.17 4.59999 21.28 4.73999 21.5 4.73999C21.6 4.73999 21.72 4.68999 21.85 4.60999C21.98 4.51999 22.1 4.39999 22.21 4.25999H22.23C22.23 4.25999 22.26 4.25999 22.29 4.28999C22.31 4.30999 22.32 4.33999 22.32 4.35999C22.32 4.40999 22.25 4.51999 22.11 4.68999C21.97 4.85999 21.83 4.98999 21.68 5.08999C21.53 5.18999 21.39 5.22999 21.25 5.22999C21.05 5.22999 20.88 5.14999 20.73 4.96999C20.59 4.79999 20.52 4.58999 20.52 4.34999C20.52 4.00999 20.61 3.66999 20.79 3.29999C20.97 2.93999 21.21 2.62999 21.49 2.37999C21.77 2.12999 22.03 2.00999 22.27 2.00999C22.44 2.00999 22.59 2.04999 22.72 2.13999C22.85 2.21999 22.91 2.32999 22.91 2.44999V2.42999ZM24.68 2.27999C24.68 2.42999 24.63 2.59999 24.53 2.79999L23.77 4.33999C23.69 4.49999 23.65 4.60999 23.65 4.67999C23.65 4.73999 23.67 4.75999 23.7 4.75999C23.78 4.75999 23.94 4.61999 24.18 4.33999C24.29 4.20999 24.36 4.13999 24.38 4.13999C24.41 4.13999 24.43 4.15999 24.46 4.17999C24.49 4.19999 24.49 4.22999 24.49 4.25999C24.49 4.28999 24.4 4.40999 24.22 4.58999C24.04 4.76999 23.87 4.92999 23.71 5.03999C23.55 5.14999 23.42 5.19999 23.31 5.19999C23.09 5.19999 22.98 5.09999 22.98 4.88999C22.98 4.76999 23.03 4.59999 23.13 4.37999L23.89 2.83999C23.97 2.67999 24.01 2.55999 24.01 2.47999C24.01 2.42999 23.99 2.40999 23.94 2.40999C23.86 2.40999 23.69 2.55999 23.44 2.84999C23.34 2.96999 23.28 3.02999 23.27 3.02999C23.24 3.02999 23.21 3.01999 23.19 2.99999C23.17 2.97999 23.16 2.94999 23.16 2.91999C23.16 2.88999 23.25 2.76999 23.43 2.58999C23.61 2.40999 23.78 2.24999 23.94 2.13999C24.1 2.02999 24.24 1.97999 24.34 1.97999C24.56 1.97999 24.67 2.07999 24.67 2.26999L24.68 2.27999ZM25.09 0.67999C25.09 0.78999 25.05 0.87999 24.97 0.95999C24.89 1.03999 24.8 1.07999 24.69 1.07999C24.58 1.07999 24.49 1.03999 24.41 0.95999C24.33 0.87999 24.29 0.78999 24.29 0.67999C24.29 0.56999 24.33 0.47999 24.41 0.39999C24.49 0.31999 24.58 0.27999 24.69 0.27999C24.8 0.27999 24.89 0.31999 24.97 0.39999C25.05 0.47999 25.09 0.56999 25.09 0.67999ZM27.55 3.05999C27.55 3.38999 27.47 3.72999 27.29 4.05999C27.12 4.39999 26.89 4.67999 26.61 4.88999C26.33 5.10999 26.06 5.20999 25.79 5.20999C25.56 5.20999 25.36 5.10999 25.2 4.90999C25.04 4.70999 24.95 4.44999 24.95 4.13999C24.95 3.80999 25.04 3.46999 25.21 3.13999C25.38 2.79999 25.61 2.51999 25.88 2.30999C26.16 2.08999 26.43 1.98999 26.7 1.98999C26.93 1.98999 27.13 2.08999 27.29 2.29999C27.46 2.49999 27.54 2.75999 27.54 3.06999L27.55 3.05999ZM26.98 2.60999C26.98 2.45999 26.96 2.34999 26.92 2.29999C26.88 2.24999 26.81 2.21999 26.71 2.21999C26.56 2.21999 26.38 2.34999 26.19 2.59999C25.99 2.85999 25.84 3.16999 25.71 3.52999C25.59 3.89999 25.53 4.24999 25.53 4.58999C25.53 4.73999 25.55 4.84999 25.59 4.89999C25.63 4.95999 25.7 4.97999 25.8 4.97999C25.95 4.97999 26.13 4.84999 26.32 4.59999C26.51 4.33999 26.67 4.02999 26.79 3.66999C26.91 3.29999 26.97 2.94999 26.97 2.59999L26.98 2.60999ZM27.73 0.74999C27.73 0.74999 27.73 0.81999 27.7 0.85999C27.68 0.88999 27.66 0.91999 27.63 0.93999L26.46 1.61999C26.46 1.61999 26.42 1.63999 26.4 1.63999C26.38 1.63999 26.37 1.62999 26.35 1.60999C26.33 1.58999 26.32 1.56999 26.32 1.53999C26.32 1.50999 26.34 1.47999 26.37 1.45999L27.42 0.51999C27.42 0.51999 27.48 0.47999 27.52 0.47999C27.58 0.47999 27.63 0.50999 27.67 0.56999C27.71 0.62999 27.73 0.68999 27.73 0.75999V0.74999ZM30.92 2.44999C30.92 2.59999 30.87 2.79999 30.77 3.02999L30.22 4.33999C30.14 4.52999 30.1 4.64999 30.1 4.67999C30.1 4.73999 30.12 4.75999 30.16 4.75999C30.24 4.75999 30.39 4.62999 30.6 4.37999C30.7 4.25999 30.75 4.20999 30.77 4.20999C30.8 4.20999 30.82 4.21999 30.84 4.24999C30.86 4.26999 30.87 4.29999 30.87 4.32999C30.87 4.36999 30.79 4.47999 30.62 4.64999C30.46 4.81999 30.3 4.95999 30.14 5.05999C29.98 5.15999 29.85 5.20999 29.74 5.20999C29.64 5.20999 29.56 5.18999 29.5 5.13999C29.44 5.08999 29.41 5.01999 29.41 4.94999C29.41 4.81999 29.46 4.62999 29.56 4.38999L30.13 3.03999C30.2 2.88999 30.23 2.75999 30.23 2.65999C30.23 2.52999 30.18 2.45999 30.07 2.45999C29.94 2.45999 29.75 2.62999 29.49 2.96999C29.23 3.30999 28.95 3.75999 28.64 4.33999L28.41 5.00999C28.41 5.00999 28.35 5.06999 28.28 5.08999C28.21 5.10999 28.13 5.11999 28.06 5.11999C27.99 5.11999 27.93 5.10999 27.88 5.08999C27.82 5.06999 27.8 5.03999 27.8 5.01999V4.99999L28.53 2.84999C28.59 2.68999 28.62 2.57999 28.62 2.50999C28.62 2.44999 28.6 2.42999 28.56 2.42999C28.49 2.42999 28.35 2.54999 28.16 2.79999C28.06 2.92999 28 2.98999 27.98 2.98999C27.95 2.98999 27.92 2.96999 27.9 2.94999C27.88 2.92999 27.87 2.89999 27.87 2.86999C27.87 2.83999 27.95 2.72999 28.1 2.54999C28.25 2.36999 28.4 2.22999 28.55 2.12999C28.69 2.02999 28.82 1.97999 28.92 1.97999C29.16 1.97999 29.27 2.07999 29.27 2.29999C29.27 2.42999 29.24 2.58999 29.17 2.79999L28.96 3.38999C29.23 2.93999 29.49 2.59999 29.75 2.35999C30.01 2.10999 30.24 1.98999 30.46 1.98999C30.59 1.98999 30.69 2.02999 30.78 2.11999C30.86 2.19999 30.91 2.31999 30.91 2.44999H30.92Z" fill="#EFEFEF"/>
<path d="M5.47002 39.4799C5.47002 39.4799 5.46002 39.5399 5.44002 39.5599C5.42002 39.5799 5.41002 39.5999 5.38002 39.5999C5.08002 39.6299 4.87002 39.6899 4.75002 39.7699C4.63002 39.8399 4.55002 39.9899 4.50002 40.1999L3.98002 42.3899C3.82002 43.0699 3.58002 43.5699 3.25002 43.8999C2.92002 44.2199 2.50002 44.3799 1.98002 44.3799C1.46002 44.3799 1.08002 44.2599 0.810024 44.0299C0.540024 43.7999 0.400024 43.4699 0.400024 43.0499C0.400024 42.8799 0.420024 42.6999 0.470024 42.4999L1.02002 40.1999C1.04002 40.0999 1.05002 40.0199 1.05002 39.9599C1.05002 39.8499 1.00002 39.7699 0.910024 39.7199C0.820024 39.6699 0.660024 39.6299 0.430024 39.5999C0.410024 39.5999 0.400024 39.5799 0.400024 39.5499C0.400024 39.5199 0.400024 39.4799 0.420024 39.4599C0.440024 39.4299 0.460024 39.4099 0.480024 39.4099C0.640024 39.4099 0.840024 39.4099 1.08002 39.4299C1.28002 39.4399 1.44002 39.4499 1.55002 39.4499C1.66002 39.4499 1.83002 39.4499 2.03002 39.4299C2.26002 39.4099 2.44002 39.4099 2.59002 39.4099C2.61002 39.4099 2.62002 39.4299 2.62002 39.4799C2.62002 39.5099 2.62002 39.5399 2.59002 39.5599C2.57002 39.5899 2.56002 39.5999 2.53002 39.5999C2.35002 39.6199 2.20002 39.6499 2.10002 39.6799C2.00002 39.7199 1.92002 39.7599 1.87002 39.8199C1.82002 39.8799 1.77002 39.9999 1.73002 40.1899L1.20002 42.3899C1.13002 42.6699 1.10002 42.9199 1.10002 43.1199C1.10002 43.4399 1.18002 43.6799 1.35002 43.8299C1.52002 43.9799 1.78002 44.0599 2.16002 44.0599C2.56002 44.0599 2.89002 43.9199 3.14002 43.6399C3.40002 43.3599 3.59002 42.9199 3.74002 42.3199L4.25002 40.1999C4.27002 40.0999 4.28002 40.0199 4.28002 39.9599C4.28002 39.8599 4.23002 39.7699 4.14002 39.7199C4.05002 39.6699 3.89002 39.6299 3.66002 39.5999C3.63002 39.5999 3.62002 39.5799 3.62002 39.5499C3.62002 39.5199 3.62002 39.4799 3.65002 39.4499C3.67002 39.4199 3.69002 39.4099 3.71002 39.4099C3.81002 39.4099 3.96002 39.4099 4.13002 39.4299C4.31002 39.4399 4.46002 39.4499 4.58002 39.4499C4.70002 39.4499 4.83002 39.4499 5.01002 39.4299C5.19002 39.4099 5.33002 39.4099 5.45002 39.4099C5.48002 39.4099 5.49002 39.4299 5.49002 39.4799H5.47002ZM7.61002 41.6199C7.61002 41.7799 7.56002 41.9699 7.46002 42.1999L6.91002 43.5199C6.83002 43.7099 6.79002 43.8199 6.79002 43.8599C6.79002 43.9099 6.81002 43.9399 6.85002 43.9399C6.93002 43.9399 7.08002 43.8099 7.29002 43.5599C7.39002 43.4399 7.44002 43.3899 7.46002 43.3899C7.49002 43.3899 7.51002 43.3999 7.53002 43.4299C7.55002 43.4599 7.56002 43.4799 7.56002 43.5099C7.56002 43.5499 7.48002 43.6599 7.31002 43.8299C7.15002 43.9999 6.99002 44.1399 6.83002 44.2399C6.67002 44.3399 6.54002 44.3899 6.43002 44.3899C6.33002 44.3899 6.25002 44.3699 6.19002 44.3199C6.13002 44.2799 6.10002 44.1999 6.10002 44.1299C6.10002 43.9999 6.15002 43.8099 6.25002 43.5699L6.82002 42.2199C6.89002 42.0699 6.92002 41.9399 6.92002 41.8399C6.92002 41.7099 6.87002 41.6499 6.76002 41.6499C6.63002 41.6499 6.44002 41.8199 6.18002 42.1499C5.92002 42.4899 5.64002 42.9499 5.33002 43.5199L5.10002 44.1799C5.10002 44.1799 5.04002 44.2399 4.97002 44.2599C4.90002 44.2799 4.82002 44.2899 4.75002 44.2899C4.68002 44.2899 4.62002 44.2799 4.56002 44.2599C4.51002 44.2399 4.48002 44.2199 4.48002 44.1899V44.1699L5.21002 42.0199C5.27002 41.8599 5.30002 41.7399 5.30002 41.6699C5.30002 41.6199 5.28002 41.5899 5.24002 41.5899C5.16002 41.5899 5.03002 41.7099 4.84002 41.9599C4.74002 42.0899 4.68002 42.1499 4.66002 42.1499C4.63002 42.1499 4.60002 42.1399 4.58002 42.1099C4.56002 42.0899 4.55002 42.0599 4.55002 42.0299C4.55002 41.9999 4.63002 41.8899 4.78002 41.7099C4.93002 41.5299 5.08002 41.3899 5.23002 41.2899C5.37002 41.1899 5.50002 41.1399 5.60002 41.1399C5.84002 41.1399 5.95002 41.2499 5.95002 41.4599C5.95002 41.5899 5.92002 41.7599 5.85002 41.9599L5.64002 42.5599C5.91002 42.1099 6.17002 41.7699 6.43002 41.5199C6.69002 41.2699 6.93002 41.1499 7.14002 41.1499C7.27002 41.1499 7.37002 41.1999 7.46002 41.2799C7.54002 41.3599 7.59002 41.4799 7.59002 41.6099L7.61002 41.6199ZM14.01 39.3799C13.99 39.5799 13.94 39.9699 13.89 40.5499C13.89 40.5899 13.86 40.6199 13.8 40.6199C13.73 40.6199 13.7 40.5999 13.7 40.5499C13.7 39.9099 13.4 39.5999 12.82 39.5999C12.39 39.5999 11.99 39.7499 11.62 40.0399C11.24 40.3299 10.95 40.7299 10.73 41.2299C10.52 41.7299 10.41 42.2799 10.41 42.8799C10.41 43.2599 10.53 43.5699 10.78 43.8099C11.03 44.0499 11.36 44.1699 11.77 44.1699C12.15 44.1699 12.46 44.0699 12.71 43.8799C12.96 43.6899 13.18 43.3699 13.36 42.9299C13.38 42.8899 13.42 42.8699 13.48 42.8699C13.54 42.8699 13.56 42.8899 13.56 42.9299C13.48 43.2199 13.37 43.6399 13.24 44.1799C12.69 44.3199 12.17 44.3999 11.67 44.3999C11.08 44.3999 10.6 44.2299 10.23 43.8799C9.86002 43.5299 9.68003 43.0799 9.68003 42.5199C9.68003 41.9599 9.84002 41.3999 10.15 40.9099C10.47 40.4199 10.9 40.0299 11.44 39.7499C11.99 39.4699 12.59 39.3299 13.24 39.3299C13.52 39.3299 13.77 39.3499 14 39.3999L14.01 39.3799ZM17.16 41.2199L16.17 43.5099C16.1 43.6699 16.07 43.7799 16.07 43.8499C16.07 43.8999 16.09 43.9299 16.14 43.9299C16.21 43.9299 16.36 43.7899 16.59 43.5099C16.7 43.3799 16.76 43.3199 16.77 43.3199C16.8 43.3199 16.82 43.3299 16.85 43.3599C16.88 43.3899 16.88 43.4099 16.88 43.4399C16.88 43.4699 16.8 43.5799 16.63 43.7699C16.46 43.9599 16.3 44.1099 16.15 44.2199C16 44.3299 15.87 44.3799 15.77 44.3799C15.54 44.3799 15.42 44.2699 15.42 44.0499C15.42 43.8499 15.52 43.5599 15.71 43.1999C15.54 43.5199 15.31 43.7899 15.03 44.0299C14.75 44.2599 14.5 44.3799 14.29 44.3799C14.17 44.3799 14.07 44.3299 14.01 44.2399C13.94 44.1499 13.91 44.0199 13.91 43.8699C13.91 43.5699 14.04 43.2199 14.29 42.8199C14.54 42.4299 14.86 42.0799 15.23 41.7899C15.6 41.4899 15.91 41.3399 16.17 41.3399C16.29 41.3399 16.39 41.3699 16.47 41.4199L16.55 41.2199C16.58 41.1399 16.71 41.0999 16.92 41.0999C17.09 41.0999 17.17 41.1299 17.17 41.1999V41.2199H17.16ZM16.29 41.7699C16.29 41.6299 16.24 41.5599 16.14 41.5599C15.94 41.5599 15.71 41.6699 15.46 41.8899C15.2 42.1099 14.98 42.3799 14.79 42.6999C14.6 43.0199 14.5 43.2899 14.5 43.4999C14.5 43.6299 14.52 43.7199 14.56 43.7699C14.6 43.8199 14.67 43.8499 14.76 43.8499C14.88 43.8499 15.06 43.7099 15.31 43.4399C15.56 43.1699 15.78 42.8599 15.99 42.5199C16.19 42.1699 16.3 41.9199 16.3 41.7699H16.29ZM22.04 41.5999C22.04 41.7199 22.01 41.8399 21.95 41.9599L21.19 43.5099C21.11 43.6799 21.06 43.7899 21.06 43.8599C21.06 43.9099 21.08 43.9299 21.13 43.9299C21.2 43.9299 21.36 43.7999 21.59 43.5299C21.71 43.3899 21.79 43.3199 21.8 43.3199C21.83 43.3199 21.86 43.3299 21.88 43.3599C21.9 43.3799 21.91 43.4099 21.91 43.4399C21.91 43.4699 21.82 43.5799 21.64 43.7699C21.46 43.9599 21.29 44.1099 21.13 44.2199C20.97 44.3299 20.84 44.3799 20.73 44.3799C20.5 44.3799 20.39 44.2799 20.39 44.0899C20.39 43.9599 20.44 43.7899 20.55 43.5599L21.3 42.0299C21.35 41.9299 21.38 41.8499 21.38 41.7699C21.38 41.6599 21.32 41.5999 21.19 41.5999C21.08 41.5999 20.92 41.7199 20.72 41.9599C20.52 42.1999 20.15 42.7299 19.63 43.5599L19.35 44.1599C19.3 44.2599 19.18 44.3099 19.02 44.3099C18.82 44.3099 18.72 44.2699 18.72 44.1999C18.72 44.1899 18.72 44.1799 18.73 44.1699L19.74 42.0499C19.79 41.9499 19.81 41.8699 19.81 41.7999C19.81 41.6799 19.74 41.6199 19.61 41.6199C19.48 41.6199 19.31 41.7399 19.11 41.9799C18.9 42.2199 18.54 42.7499 18.03 43.5799L17.76 44.1799C17.72 44.2799 17.61 44.3299 17.43 44.3299C17.23 44.3299 17.13 44.2899 17.13 44.2199C17.13 44.2099 17.13 44.1999 17.13 44.1899L18.11 42.0699C18.19 41.8899 18.23 41.7799 18.23 41.7199C18.23 41.6599 18.2 41.6399 18.16 41.6399C18.08 41.6399 17.92 41.7899 17.68 42.0799C17.58 42.1999 17.53 42.2599 17.51 42.2599C17.48 42.2599 17.46 42.2399 17.43 42.2199C17.41 42.1999 17.4 42.1699 17.4 42.1399C17.4 42.1099 17.49 41.9899 17.66 41.8099C17.83 41.6199 17.99 41.4699 18.15 41.3599C18.3 41.2499 18.44 41.1899 18.55 41.1899C18.78 41.1899 18.9 41.2999 18.9 41.5099C18.9 41.6399 18.85 41.7999 18.76 42.0099L18.61 42.3399C18.81 42.0099 19.03 41.7299 19.29 41.5199C19.55 41.2999 19.79 41.1999 20.01 41.1999C20.16 41.1999 20.27 41.2399 20.34 41.3299C20.42 41.4099 20.46 41.5199 20.46 41.6599C20.46 41.7799 20.43 41.8899 20.38 42.0099L20.25 42.2999C20.46 41.9499 20.68 41.6799 20.92 41.4899C21.15 41.2999 21.38 41.1999 21.59 41.1999C21.73 41.1999 21.84 41.2399 21.92 41.3199C22 41.3999 22.04 41.5099 22.04 41.6499V41.5999ZM24.02 41.4499C24.02 41.5899 23.97 41.7699 23.87 41.9699L23.11 43.5199C23.03 43.6799 22.99 43.7899 22.99 43.8599C22.99 43.9099 23.01 43.9399 23.05 43.9399C23.13 43.9399 23.28 43.7999 23.52 43.5199C23.63 43.3899 23.7 43.3199 23.72 43.3199C23.75 43.3199 23.78 43.3299 23.8 43.3599C23.82 43.3899 23.83 43.4099 23.83 43.4399C23.83 43.4699 23.74 43.5799 23.56 43.7699C23.38 43.9599 23.21 44.1099 23.05 44.2199C22.89 44.3299 22.76 44.3799 22.65 44.3799C22.43 44.3799 22.32 44.2799 22.32 44.0699C22.32 43.9499 22.37 43.7799 22.47 43.5599L23.23 42.0299C23.31 41.8699 23.35 41.7499 23.35 41.6699C23.35 41.6199 23.33 41.5999 23.28 41.5999C23.2 41.5999 23.04 41.7499 22.78 42.0299C22.68 42.1499 22.62 42.2099 22.61 42.2099C22.58 42.2099 22.56 42.1899 22.53 42.1699C22.51 42.1499 22.5 42.1199 22.5 42.0899C22.5 42.0599 22.59 41.9399 22.77 41.7599C22.95 41.5699 23.12 41.4199 23.28 41.3099C23.44 41.1999 23.58 41.1399 23.69 41.1399C23.91 41.1399 24.02 41.2399 24.02 41.4399V41.4499ZM24.43 39.8499C24.43 39.9599 24.39 40.0499 24.31 40.1199C24.23 40.1999 24.14 40.2399 24.04 40.2399C23.94 40.2399 23.83 40.2099 23.76 40.1199C23.68 40.0499 23.64 39.9499 23.64 39.8499C23.64 39.7499 23.68 39.6499 23.76 39.5699C23.84 39.4899 23.93 39.4499 24.04 39.4499C24.15 39.4499 24.24 39.4899 24.31 39.5699C24.39 39.6499 24.43 39.7399 24.43 39.8499ZM27.36 41.6199C27.36 41.7799 27.31 41.9699 27.21 42.1999L26.66 43.5199C26.58 43.7099 26.54 43.8199 26.54 43.8599C26.54 43.9099 26.56 43.9399 26.61 43.9399C26.69 43.9399 26.84 43.8099 27.05 43.5599C27.15 43.4399 27.2 43.3899 27.22 43.3899C27.25 43.3899 27.27 43.3999 27.29 43.4299C27.31 43.4599 27.32 43.4799 27.32 43.5099C27.32 43.5499 27.24 43.6599 27.07 43.8299C26.91 43.9999 26.75 44.1399 26.59 44.2399C26.43 44.3399 26.3 44.3899 26.19 44.3899C26.09 44.3899 26.01 44.3699 25.95 44.3199C25.89 44.2799 25.85 44.2099 25.86 44.1299C25.86 43.9999 25.91 43.8099 26.01 43.5699L26.58 42.2199C26.65 42.0699 26.68 41.9399 26.68 41.8399C26.68 41.7099 26.63 41.6499 26.52 41.6499C26.39 41.6499 26.2 41.8199 25.94 42.1499C25.69 42.4899 25.4 42.9499 25.09 43.5199L24.86 44.1799C24.86 44.1799 24.81 44.2399 24.73 44.2599C24.65 44.2799 24.58 44.2899 24.51 44.2899C24.44 44.2899 24.38 44.2799 24.32 44.2599C24.27 44.2399 24.24 44.2199 24.24 44.1899V44.1699L24.97 42.0199C25.03 41.8599 25.06 41.7399 25.06 41.6699C25.06 41.6199 25.04 41.5899 25 41.5899C24.92 41.5899 24.79 41.7099 24.6 41.9599C24.5 42.0899 24.44 42.1499 24.42 42.1499C24.39 42.1499 24.36 42.1399 24.34 42.1099C24.32 42.0899 24.31 42.0599 24.31 42.0299C24.31 41.9999 24.38 41.8899 24.54 41.7099C24.69 41.5299 24.84 41.3899 24.98 41.2899C25.13 41.1899 25.25 41.1399 25.35 41.1399C25.59 41.1399 25.71 41.2499 25.71 41.4599C25.71 41.5899 25.68 41.7599 25.61 41.9599L25.4 42.5599C25.67 42.1099 25.93 41.7699 26.19 41.5199C26.45 41.2699 26.69 41.1499 26.9 41.1499C27.02 41.1499 27.13 41.1999 27.22 41.2799C27.31 41.3599 27.35 41.4799 27.35 41.6099L27.36 41.6199ZM30.26 42.2299C30.26 42.5599 30.17 42.8999 30 43.2399C29.82 43.5799 29.6 43.8499 29.32 44.0699C29.04 44.2799 28.77 44.3899 28.5 44.3899C28.27 44.3899 28.08 44.2899 27.91 44.0799C27.75 43.8799 27.67 43.6199 27.67 43.3199C27.67 42.9899 27.75 42.6499 27.93 42.3099C28.11 41.9699 28.33 41.6999 28.61 41.4799C28.89 41.2599 29.16 41.1599 29.43 41.1599C29.66 41.1599 29.85 41.2599 30.02 41.4699C30.19 41.6799 30.27 41.9299 30.27 42.2399L30.26 42.2299ZM29.68 41.7799C29.68 41.6299 29.66 41.5299 29.62 41.4699C29.58 41.4099 29.51 41.3899 29.41 41.3899C29.25 41.3899 29.08 41.5199 28.88 41.7699C28.69 42.0299 28.53 42.3399 28.4 42.6999C28.28 43.0699 28.22 43.4199 28.22 43.7599C28.22 43.9099 28.24 44.0199 28.28 44.0799C28.32 44.1299 28.39 44.1599 28.5 44.1599C28.65 44.1599 28.83 44.0299 29.02 43.7799C29.22 43.5299 29.37 43.2099 29.5 42.8499C29.62 42.4799 29.68 42.1299 29.68 41.7799ZM35.14 41.2199L34.15 43.5099C34.08 43.6699 34.05 43.7799 34.05 43.8499C34.05 43.8999 34.07 43.9299 34.12 43.9299C34.19 43.9299 34.34 43.7899 34.57 43.5099C34.68 43.3799 34.74 43.3199 34.75 43.3199C34.78 43.3199 34.8 43.3299 34.83 43.3599C34.86 43.3899 34.86 43.4099 34.86 43.4399C34.86 43.4699 34.78 43.5799 34.61 43.7699C34.44 43.9599 34.28 44.1099 34.13 44.2199C33.98 44.3299 33.85 44.3799 33.75 44.3799C33.52 44.3799 33.4 44.2699 33.4 44.0499C33.4 43.8499 33.5 43.5599 33.69 43.1999C33.52 43.5199 33.29 43.7899 33.01 44.0299C32.73 44.2599 32.48 44.3799 32.27 44.3799C32.16 44.3799 32.05 44.3299 31.99 44.2399C31.92 44.1499 31.89 44.0199 31.89 43.8699C31.89 43.5699 32.02 43.2199 32.27 42.8199C32.53 42.4299 32.84 42.0799 33.22 41.7899C33.6 41.4999 33.9 41.3399 34.16 41.3399C34.28 41.3399 34.38 41.3699 34.46 41.4199L34.54 41.2199C34.57 41.1399 34.7 41.0999 34.91 41.0999C35.08 41.0999 35.16 41.1299 35.16 41.1999V41.2199H35.14ZM34.27 41.7699C34.27 41.6299 34.22 41.5599 34.12 41.5599C33.92 41.5599 33.69 41.6699 33.44 41.8899C33.19 42.1099 32.96 42.3799 32.77 42.6999C32.58 43.0199 32.48 43.2899 32.48 43.4999C32.48 43.6299 32.5 43.7199 32.54 43.7699C32.58 43.8199 32.65 43.8499 32.74 43.8499C32.86 43.8499 33.04 43.7099 33.29 43.4399C33.54 43.1699 33.76 42.8599 33.97 42.5199C34.17 42.1699 34.27 41.9199 34.27 41.7699ZM38.98 39.2399C38.98 39.2399 38.96 39.3499 38.94 39.4199L37.42 43.3599C37.33 43.5899 37.29 43.7299 37.29 43.7599C37.29 43.8299 37.31 43.8599 37.37 43.8599C37.47 43.8599 37.62 43.7199 37.84 43.4499C37.93 43.3299 37.98 43.2799 38 43.2799C38.03 43.2799 38.06 43.2899 38.08 43.3199C38.1 43.3499 38.11 43.3699 38.11 43.3999C38.11 43.4399 38.03 43.5499 37.86 43.7499C37.69 43.9399 37.54 44.0999 37.38 44.2099C37.22 44.3199 37.1 44.3799 36.99 44.3799C36.74 44.3799 36.62 44.2599 36.62 44.0099C36.62 43.8899 36.65 43.7399 36.72 43.5599L37.99 40.2399C38.04 40.1099 38.07 39.9999 38.07 39.9299C38.07 39.8399 37.97 39.7799 37.78 39.7599C37.74 39.7599 37.72 39.7299 37.72 39.6699C37.72 39.6099 37.74 39.5899 37.78 39.5899C37.93 39.5599 38.11 39.5099 38.32 39.4299C38.53 39.3499 38.69 39.2799 38.8 39.2099C38.85 39.1799 38.89 39.1599 38.92 39.1599C38.97 39.1599 38.99 39.1899 38.99 39.2399H38.98ZM41.69 41.2199L40.7 43.5099C40.63 43.6699 40.6 43.7799 40.6 43.8499C40.6 43.8999 40.62 43.9299 40.67 43.9299C40.74 43.9299 40.89 43.7899 41.12 43.5099C41.23 43.3799 41.29 43.3199 41.3 43.3199C41.33 43.3199 41.35 43.3299 41.38 43.3599C41.4 43.3899 41.41 43.4099 41.41 43.4399C41.41 43.4699 41.33 43.5799 41.15 43.7699C40.98 43.9599 40.82 44.1099 40.67 44.2199C40.52 44.3299 40.39 44.3799 40.29 44.3799C40.06 44.3799 39.94 44.2699 39.94 44.0499C39.94 43.8499 40.04 43.5599 40.24 43.1999C40.07 43.5199 39.84 43.7999 39.56 44.0299C39.28 44.2599 39.03 44.3799 38.82 44.3799C38.7 44.3799 38.6 44.3299 38.54 44.2399C38.47 44.1499 38.44 44.0199 38.44 43.8699C38.44 43.5699 38.57 43.2199 38.82 42.8199C39.07 42.4299 39.39 42.0799 39.76 41.7899C40.13 41.4899 40.45 41.3399 40.7 41.3399C40.82 41.3399 40.92 41.3699 41 41.4199L41.08 41.2199C41.12 41.1399 41.24 41.0999 41.45 41.0999C41.62 41.0999 41.7 41.1299 41.7 41.1999V41.2199H41.69ZM40.82 41.7699C40.82 41.6299 40.77 41.5599 40.67 41.5599C40.47 41.5599 40.24 41.6699 39.99 41.8899C39.73 42.1099 39.51 42.3799 39.32 42.6999C39.13 43.0199 39.03 43.2899 39.03 43.4999C39.03 43.6299 39.05 43.7199 39.09 43.7699C39.13 43.8199 39.19 43.8499 39.29 43.8499C39.41 43.8499 39.59 43.7099 39.84 43.4399C40.09 43.1699 40.32 42.8599 40.52 42.5199C40.72 42.1699 40.83 41.9199 40.83 41.7699H40.82ZM47.71 44.2799C47.71 44.3599 47.68 44.3999 47.63 44.3999H47.6C47.3 44.3199 46.89 44.2699 46.36 44.2699L45.37 42.2999C45.32 42.2199 45.27 42.1499 45.2 42.1199C45.13 42.0799 45.03 42.0699 44.89 42.0699L44.55 43.4899C44.53 43.5899 44.52 43.6699 44.52 43.7299C44.52 43.8299 44.57 43.9099 44.66 43.9599C44.75 44.0099 44.91 44.0499 45.14 44.0799C45.16 44.0799 45.17 44.0999 45.17 44.1399C45.17 44.1799 45.17 44.2099 45.14 44.2299C45.12 44.2599 45.11 44.2699 45.08 44.2699C44.92 44.2699 44.72 44.2699 44.49 44.2499C44.29 44.2399 44.13 44.2299 44.01 44.2299C43.89 44.2299 43.73 44.2299 43.53 44.2499C43.31 44.2699 43.12 44.2699 42.98 44.2699C42.96 44.2699 42.95 44.2499 42.95 44.1999C42.95 44.1699 42.95 44.1399 42.98 44.1199C43 44.0899 43.01 44.0799 43.04 44.0799C43.22 44.0599 43.36 44.0299 43.47 43.9999C43.57 43.9699 43.65 43.9199 43.7 43.8599C43.75 43.7999 43.8 43.6799 43.85 43.4899L44.63 40.1999C44.66 40.0999 44.67 40.0199 44.67 39.9599C44.67 39.8599 44.62 39.7699 44.53 39.7199C44.44 39.6699 44.28 39.6299 44.05 39.5999C44.03 39.5999 44.02 39.5799 44.02 39.5499C44.02 39.5199 44.02 39.4799 44.04 39.4499C44.06 39.4199 44.07 39.4099 44.1 39.4099C44.26 39.4099 44.44 39.4099 44.63 39.4299C44.78 39.4399 44.92 39.4499 45.03 39.4499C45.14 39.4499 45.29 39.4499 45.45 39.4299C45.64 39.4099 45.82 39.4099 45.98 39.4099C46.51 39.4099 46.89 39.4999 47.14 39.6899C47.39 39.8799 47.51 40.1699 47.51 40.5599C47.51 40.8899 47.35 41.1899 47.04 41.4799C46.73 41.7699 46.36 41.9399 45.96 42.0099L46.77 43.5499C46.85 43.7099 46.97 43.8399 47.1 43.9399C47.24 44.0399 47.43 44.1299 47.68 44.2099C47.71 44.2099 47.72 44.2399 47.72 44.2799H47.71ZM46.76 40.4999C46.76 39.9299 46.49 39.6499 45.96 39.6499C45.76 39.6499 45.62 39.6799 45.54 39.7499C45.46 39.8199 45.39 39.9699 45.34 40.1999L44.95 41.8399H45.35C45.62 41.8399 45.85 41.7799 46.07 41.6699C46.28 41.5499 46.45 41.3799 46.57 41.1699C46.69 40.9499 46.75 40.7299 46.75 40.5099L46.76 40.4999ZM50.02 41.6799C50.02 41.9999 49.86 42.2799 49.54 42.5399C49.22 42.7899 48.86 42.9199 48.44 42.9199C48.43 43.0599 48.42 43.1899 48.42 43.2999C48.42 43.5099 48.45 43.6499 48.5 43.7399C48.55 43.8299 48.65 43.8699 48.78 43.8699C49.08 43.8699 49.35 43.6999 49.57 43.3599H49.59C49.59 43.3599 49.63 43.3599 49.65 43.3799C49.67 43.4099 49.68 43.4299 49.68 43.4499C49.68 43.4999 49.61 43.6199 49.46 43.7999C49.31 43.9799 49.17 44.1299 49.01 44.2299C48.86 44.3299 48.7 44.3799 48.55 44.3799C48.32 44.3799 48.13 44.2899 47.99 44.1099C47.84 43.9399 47.77 43.7299 47.77 43.4899C47.77 43.1599 47.86 42.8099 48.04 42.4399C48.22 42.0699 48.44 41.7699 48.71 41.5199C48.99 41.2699 49.24 41.1499 49.47 41.1499C49.64 41.1499 49.77 41.1999 49.86 41.2899C49.95 41.3899 50 41.5099 50 41.6699L50.02 41.6799ZM49.53 41.7999C49.53 41.5999 49.45 41.4999 49.27 41.4999C49.09 41.4999 48.94 41.6199 48.8 41.8399C48.65 42.0699 48.55 42.3599 48.49 42.6899C48.69 42.6899 48.86 42.6499 49.01 42.5699C49.16 42.4899 49.29 42.3699 49.38 42.2099C49.47 42.0499 49.53 41.9099 49.53 41.7899V41.7999ZM52.65 41.5999C52.65 41.6699 52.63 41.7299 52.58 41.7799C52.54 41.8299 52.48 41.8499 52.41 41.8499C52.29 41.8499 52.17 41.7799 52.05 41.6499C51.95 41.5299 51.85 41.4699 51.76 41.4699C51.67 41.4699 51.54 41.5799 51.39 41.7999C51.24 42.0199 51.12 42.2699 51.04 42.5699C50.96 42.8699 50.91 43.1799 50.91 43.4999C50.91 43.7799 51.02 43.9199 51.24 43.9199C51.34 43.9199 51.46 43.8799 51.59 43.7899C51.72 43.6999 51.84 43.5799 51.95 43.4399H51.97C51.97 43.4399 52.01 43.4399 52.03 43.4699C52.05 43.4899 52.06 43.5199 52.06 43.5399C52.06 43.5899 51.99 43.6899 51.85 43.8599C51.71 44.0299 51.57 44.1599 51.42 44.2599C51.27 44.3599 51.13 44.4099 50.99 44.4099C50.79 44.4099 50.62 44.3199 50.47 44.1499C50.33 43.9699 50.26 43.7699 50.26 43.5199C50.26 43.1899 50.35 42.8399 50.53 42.4699C50.71 42.0999 50.95 41.7999 51.23 41.5499C51.51 41.2999 51.77 41.1699 52.01 41.1699C52.18 41.1699 52.33 41.2199 52.46 41.2999C52.58 41.3799 52.64 41.4899 52.64 41.6099L52.65 41.5999ZM55.3 42.2299C55.3 42.5599 55.21 42.8999 55.04 43.2399C54.86 43.5799 54.64 43.8499 54.36 44.0699C54.08 44.2799 53.81 44.3899 53.54 44.3899C53.31 44.3899 53.12 44.2899 52.95 44.0799C52.79 43.8799 52.71 43.6199 52.71 43.3199C52.71 42.9899 52.79 42.6499 52.97 42.3099C53.15 41.9699 53.37 41.6999 53.65 41.4799C53.93 41.2599 54.2 41.1599 54.47 41.1599C54.7 41.1599 54.89 41.2599 55.06 41.4699C55.23 41.6799 55.31 41.9299 55.31 42.2399L55.3 42.2299ZM54.72 41.7799C54.72 41.6299 54.7 41.5299 54.66 41.4699C54.62 41.4199 54.55 41.3899 54.45 41.3899C54.29 41.3899 54.12 41.5199 53.92 41.7699C53.73 42.0299 53.57 42.3399 53.44 42.6999C53.32 43.0699 53.26 43.4199 53.26 43.7599C53.26 43.9099 53.28 44.0199 53.32 44.0799C53.36 44.1299 53.43 44.1599 53.54 44.1599C53.69 44.1599 53.87 44.0299 54.06 43.7799C54.25 43.5299 54.41 43.2099 54.54 42.8499C54.66 42.4799 54.72 42.1299 54.72 41.7799ZM58.67 41.6199C58.67 41.7799 58.62 41.9699 58.52 42.1999L57.97 43.5199C57.89 43.7099 57.85 43.8199 57.85 43.8599C57.85 43.9099 57.87 43.9399 57.91 43.9399C57.99 43.9399 58.14 43.8099 58.36 43.5599C58.46 43.4399 58.51 43.3899 58.53 43.3899C58.56 43.3899 58.58 43.3999 58.6 43.4299C58.62 43.4599 58.63 43.4799 58.63 43.5099C58.63 43.5499 58.55 43.6599 58.38 43.8299C58.21 43.9999 58.06 44.1399 57.9 44.2399C57.75 44.3399 57.61 44.3899 57.5 44.3899C57.4 44.3899 57.32 44.3699 57.26 44.3199C57.2 44.2799 57.17 44.1999 57.17 44.1299C57.17 43.9999 57.22 43.8099 57.32 43.5699L57.89 42.2199C57.95 42.0699 57.99 41.9399 57.99 41.8399C57.99 41.7099 57.94 41.6499 57.83 41.6499C57.7 41.6499 57.51 41.8199 57.25 42.1499C57 42.4899 56.71 42.9499 56.4 43.5199L56.17 44.1799C56.17 44.1799 56.12 44.2399 56.04 44.2599C55.97 44.2799 55.89 44.2899 55.82 44.2899C55.75 44.2899 55.69 44.2799 55.64 44.2599C55.59 44.2399 55.56 44.2199 55.56 44.1899V44.1699L56.29 42.0199C56.35 41.8599 56.38 41.7399 56.38 41.6699C56.38 41.6199 56.36 41.5899 56.31 41.5899C56.24 41.5899 56.11 41.7099 55.92 41.9599C55.82 42.0899 55.76 42.1499 55.74 42.1499C55.71 42.1499 55.69 42.1399 55.66 42.1099C55.64 42.0899 55.63 42.0599 55.63 42.0299C55.63 41.9999 55.71 41.8899 55.86 41.7099C56.01 41.5299 56.16 41.3899 56.31 41.2899C56.46 41.1899 56.58 41.1399 56.68 41.1399C56.92 41.1399 57.04 41.2499 57.04 41.4599C57.04 41.5899 57.01 41.7599 56.94 41.9599L56.73 42.5599C57 42.1099 57.26 41.7699 57.52 41.5199C57.78 41.2699 58.02 41.1499 58.23 41.1499C58.35 41.1499 58.46 41.1999 58.55 41.2799C58.63 41.3599 58.68 41.4799 58.68 41.6099L58.67 41.6199ZM61.35 41.5999C61.35 41.6699 61.33 41.7299 61.28 41.7799C61.24 41.8299 61.18 41.8499 61.11 41.8499C60.99 41.8499 60.87 41.7799 60.75 41.6499C60.65 41.5299 60.55 41.4699 60.46 41.4699C60.37 41.4699 60.24 41.5799 60.09 41.7999C59.94 42.0199 59.82 42.2699 59.74 42.5699C59.66 42.8699 59.61 43.1799 59.61 43.4999C59.61 43.7799 59.72 43.9199 59.94 43.9199C60.04 43.9199 60.16 43.8799 60.29 43.7899C60.42 43.6999 60.54 43.5799 60.65 43.4399H60.67C60.67 43.4399 60.71 43.4399 60.73 43.4699C60.75 43.4899 60.76 43.5199 60.76 43.5399C60.76 43.5899 60.69 43.6899 60.55 43.8599C60.41 44.0299 60.27 44.1599 60.12 44.2599C59.97 44.3599 59.83 44.4099 59.69 44.4099C59.49 44.4099 59.32 44.3199 59.17 44.1499C59.03 43.9699 58.96 43.7699 58.96 43.5199C58.96 43.1899 59.05 42.8399 59.23 42.4699C59.41 42.0999 59.65 41.7999 59.93 41.5499C60.21 41.2999 60.47 41.1699 60.71 41.1699C60.88 41.1699 61.03 41.2199 61.16 41.2999C61.28 41.3799 61.34 41.4899 61.34 41.6099L61.35 41.5999ZM63.12 41.4499C63.12 41.5899 63.07 41.7699 62.97 41.9699L62.21 43.5199C62.13 43.6799 62.09 43.7899 62.09 43.8599C62.09 43.9099 62.11 43.9399 62.14 43.9399C62.22 43.9399 62.37 43.7999 62.62 43.5199C62.73 43.3899 62.8 43.3199 62.82 43.3199C62.85 43.3199 62.87 43.3299 62.9 43.3599C62.93 43.3899 62.93 43.4099 62.93 43.4399C62.93 43.4699 62.84 43.5799 62.66 43.7699C62.48 43.9599 62.31 44.1099 62.15 44.2199C61.99 44.3299 61.86 44.3799 61.75 44.3799C61.53 44.3799 61.42 44.2799 61.42 44.0699C61.42 43.9499 61.47 43.7799 61.57 43.5599L62.33 42.0299C62.41 41.8699 62.45 41.7499 62.45 41.6699C62.45 41.6199 62.43 41.5999 62.38 41.5999C62.3 41.5999 62.13 41.7499 61.88 42.0299C61.78 42.1499 61.72 42.2099 61.71 42.2099C61.68 42.2099 61.65 42.1899 61.63 42.1699C61.61 42.1499 61.6 42.1199 61.6 42.0899C61.6 42.0599 61.69 41.9399 61.87 41.7599C62.05 41.5699 62.22 41.4199 62.38 41.3099C62.54 41.1999 62.68 41.1399 62.79 41.1399C63.01 41.1399 63.12 41.2399 63.12 41.4399V41.4499ZM63.53 39.8499C63.53 39.9599 63.49 40.0499 63.41 40.1199C63.33 40.1999 63.24 40.2399 63.13 40.2399C63.02 40.2399 62.93 40.2099 62.85 40.1199C62.77 40.0499 62.73 39.9499 62.73 39.8499C62.73 39.7499 62.77 39.6499 62.85 39.5699C62.93 39.4899 63.02 39.4499 63.13 39.4499C63.24 39.4499 63.33 39.4899 63.41 39.5699C63.49 39.6499 63.53 39.7399 63.53 39.8499ZM65.71 39.2399C65.71 39.2399 65.69 39.3499 65.67 39.4199L64.15 43.3599C64.06 43.5899 64.02 43.7299 64.02 43.7599C64.02 43.8299 64.05 43.8599 64.1 43.8599C64.2 43.8599 64.36 43.7199 64.57 43.4499C64.66 43.3299 64.71 43.2799 64.73 43.2799C64.76 43.2799 64.79 43.2899 64.81 43.3199C64.83 43.3499 64.84 43.3699 64.84 43.3999C64.84 43.4399 64.76 43.5499 64.59 43.7499C64.42 43.9399 64.27 44.0999 64.11 44.2099C63.96 44.3199 63.83 44.3799 63.72 44.3799C63.47 44.3799 63.35 44.2599 63.35 44.0099C63.35 43.8899 63.38 43.7399 63.45 43.5599L64.72 40.2399C64.77 40.1099 64.8 39.9999 64.8 39.9299C64.8 39.8399 64.7 39.7799 64.51 39.7599C64.47 39.7599 64.45 39.7299 64.45 39.6699C64.45 39.6099 64.47 39.5899 64.51 39.5899C64.66 39.5599 64.84 39.5099 65.05 39.4299C65.26 39.3499 65.42 39.2799 65.53 39.2099C65.58 39.1799 65.62 39.1599 65.65 39.1599C65.7 39.1599 65.72 39.1899 65.72 39.2399H65.71ZM66.99 41.4499C66.99 41.5899 66.94 41.7699 66.84 41.9699L66.08 43.5199C66 43.6799 65.96 43.7899 65.96 43.8599C65.96 43.9099 65.98 43.9399 66.02 43.9399C66.1 43.9399 66.25 43.7999 66.49 43.5199C66.61 43.3899 66.67 43.3199 66.69 43.3199C66.72 43.3199 66.75 43.3299 66.77 43.3599C66.79 43.3899 66.8 43.4099 66.8 43.4399C66.8 43.4699 66.71 43.5799 66.53 43.7699C66.35 43.9599 66.18 44.1099 66.02 44.2199C65.86 44.3299 65.73 44.3799 65.62 44.3799C65.4 44.3799 65.29 44.2799 65.29 44.0699C65.29 43.9499 65.34 43.7799 65.44 43.5599L66.2 42.0299C66.28 41.8699 66.32 41.7499 66.32 41.6699C66.32 41.6199 66.3 41.5999 66.26 41.5999C66.18 41.5999 66.01 41.7499 65.76 42.0299C65.66 42.1499 65.6 42.2099 65.58 42.2099C65.55 42.2099 65.53 42.1899 65.51 42.1699C65.49 42.1499 65.48 42.1199 65.48 42.0899C65.48 42.0599 65.57 41.9399 65.75 41.7599C65.93 41.5699 66.1 41.4199 66.26 41.3099C66.42 41.1999 66.56 41.1399 66.66 41.1399C66.88 41.1399 66.99 41.2399 66.99 41.4399V41.4499ZM67.41 39.8499C67.41 39.9599 67.37 40.0499 67.29 40.1199C67.21 40.1999 67.12 40.2399 67.01 40.2399C66.9 40.2399 66.8 40.2099 66.73 40.1199C66.65 40.0499 66.61 39.9499 66.61 39.8499C66.61 39.7499 66.65 39.6499 66.73 39.5699C66.81 39.4899 66.9 39.4499 67.01 39.4499C67.12 39.4499 67.21 39.4899 67.29 39.5699C67.37 39.6499 67.41 39.7399 67.41 39.8499ZM70.41 41.2199L69.42 43.5099C69.35 43.6699 69.32 43.7799 69.32 43.8499C69.32 43.8999 69.34 43.9299 69.39 43.9299C69.46 43.9299 69.61 43.7899 69.84 43.5099C69.95 43.3799 70.01 43.3199 70.02 43.3199C70.05 43.3199 70.07 43.3299 70.1 43.3599C70.13 43.3899 70.13 43.4099 70.13 43.4399C70.13 43.4699 70.05 43.5799 69.88 43.7699C69.71 43.9599 69.55 44.1099 69.4 44.2199C69.25 44.3299 69.12 44.3799 69.02 44.3799C68.79 44.3799 68.67 44.2699 68.67 44.0499C68.67 43.8499 68.77 43.5599 68.96 43.1999C68.79 43.5199 68.56 43.7899 68.28 44.0299C68 44.2599 67.75 44.3799 67.54 44.3799C67.43 44.3799 67.32 44.3299 67.26 44.2399C67.19 44.1499 67.16 44.0199 67.16 43.8699C67.16 43.5699 67.29 43.2199 67.54 42.8199C67.8 42.4299 68.11 42.0799 68.49 41.7899C68.87 41.4999 69.17 41.3399 69.43 41.3399C69.55 41.3399 69.65 41.3699 69.73 41.4199L69.81 41.2199C69.84 41.1399 69.97 41.0999 70.17 41.0999C70.34 41.0999 70.43 41.1299 70.43 41.1999V41.2199H70.41ZM69.55 41.7699C69.55 41.6299 69.5 41.5599 69.4 41.5599C69.2 41.5599 68.97 41.6699 68.72 41.8899C68.47 42.1099 68.24 42.3799 68.05 42.6999C67.86 43.0199 67.77 43.2899 67.77 43.4999C67.77 43.6299 67.79 43.7199 67.83 43.7699C67.87 43.8199 67.94 43.8499 68.03 43.8499C68.15 43.8499 68.33 43.7099 68.58 43.4399C68.83 43.1699 69.05 42.8599 69.26 42.5199C69.46 42.1699 69.56 41.9199 69.56 41.7699H69.55ZM72.91 41.5999C72.91 41.6699 72.89 41.7299 72.84 41.7799C72.79 41.8299 72.74 41.8499 72.67 41.8499C72.54 41.8499 72.42 41.7799 72.31 41.6499C72.21 41.5299 72.11 41.4699 72.02 41.4699C71.92 41.4699 71.79 41.5799 71.65 41.7999C71.5 42.0199 71.38 42.2699 71.3 42.5699C71.22 42.8699 71.17 43.1799 71.17 43.4999C71.17 43.7799 71.28 43.9199 71.5 43.9199C71.6 43.9199 71.72 43.8799 71.85 43.7899C71.98 43.6999 72.1 43.5799 72.21 43.4399H72.23C72.23 43.4399 72.27 43.4399 72.29 43.4699C72.31 43.4899 72.32 43.5199 72.32 43.5399C72.32 43.5899 72.25 43.6899 72.11 43.8599C71.97 44.0299 71.83 44.1599 71.68 44.2599C71.53 44.3599 71.39 44.4099 71.26 44.4099C71.06 44.4099 70.88 44.3199 70.74 44.1499C70.6 43.9699 70.52 43.7699 70.52 43.5199C70.52 43.1899 70.61 42.8399 70.79 42.4699C70.97 42.0999 71.2 41.7999 71.49 41.5499C71.77 41.2999 72.03 41.1699 72.27 41.1699C72.45 41.1699 72.6 41.2199 72.72 41.2999C72.84 41.3799 72.91 41.4899 72.91 41.6099V41.5999ZM74.67 41.4499C74.67 41.5899 74.62 41.7699 74.52 41.9699L73.76 43.5199C73.68 43.6799 73.64 43.7899 73.64 43.8599C73.64 43.9099 73.66 43.9399 73.7 43.9399C73.78 43.9399 73.93 43.7999 74.17 43.5199C74.28 43.3899 74.35 43.3199 74.37 43.3199C74.4 43.3199 74.43 43.3299 74.45 43.3599C74.47 43.3899 74.48 43.4099 74.48 43.4399C74.48 43.4699 74.39 43.5799 74.21 43.7699C74.03 43.9599 73.86 44.1099 73.7 44.2199C73.54 44.3299 73.41 44.3799 73.3 44.3799C73.08 44.3799 72.97 44.2799 72.97 44.0699C72.97 43.9499 73.02 43.7799 73.12 43.5599L73.88 42.0299C73.96 41.8699 74 41.7499 74 41.6699C74 41.6199 73.98 41.5999 73.94 41.5999C73.86 41.5999 73.69 41.7499 73.44 42.0299C73.34 42.1499 73.28 42.2099 73.26 42.2099C73.23 42.2099 73.21 42.1899 73.19 42.1699C73.17 42.1499 73.16 42.1199 73.16 42.0899C73.16 42.0599 73.25 41.9399 73.43 41.7599C73.61 41.5699 73.78 41.4199 73.94 41.3099C74.1 41.1999 74.23 41.1399 74.34 41.1399C74.56 41.1399 74.67 41.2399 74.67 41.4399V41.4499ZM75.09 39.8499C75.09 39.9599 75.05 40.0499 74.97 40.1199C74.9 40.1999 74.8 40.2399 74.7 40.2399C74.59 40.2399 74.49 40.2099 74.42 40.1199C74.34 40.0499 74.3 39.9499 74.3 39.8499C74.3 39.7499 74.34 39.6499 74.42 39.5699C74.5 39.4899 74.59 39.4499 74.7 39.4499C74.81 39.4499 74.9 39.4899 74.97 39.5699C75.05 39.6499 75.09 39.7399 75.09 39.8499ZM77.55 42.2299C77.55 42.5599 77.46 42.8999 77.29 43.2399C77.11 43.5799 76.89 43.8499 76.61 44.0699C76.33 44.2799 76.06 44.3899 75.79 44.3899C75.56 44.3899 75.37 44.2899 75.2 44.0799C75.04 43.8799 74.96 43.6199 74.96 43.3199C74.96 42.9899 75.04 42.6499 75.22 42.3099C75.4 41.9699 75.62 41.6999 75.9 41.4799C76.18 41.2599 76.45 41.1599 76.72 41.1599C76.95 41.1599 77.14 41.2599 77.31 41.4699C77.48 41.6799 77.56 41.9299 77.56 42.2399L77.55 42.2299ZM76.98 41.7799C76.98 41.6299 76.96 41.5299 76.92 41.4699C76.88 41.4199 76.81 41.3899 76.71 41.3899C76.55 41.3899 76.38 41.5199 76.18 41.7699C75.99 42.0299 75.83 42.3399 75.7 42.6999C75.58 43.0699 75.52 43.4199 75.52 43.7599C75.52 43.9099 75.54 44.0199 75.58 44.0799C75.62 44.1299 75.69 44.1599 75.8 44.1599C75.95 44.1599 76.13 44.0299 76.32 43.7799C76.51 43.5299 76.67 43.2099 76.8 42.8499C76.92 42.4799 76.98 42.1299 76.98 41.7799ZM77.72 39.9199C77.72 39.9199 77.72 39.9899 77.7 40.0199C77.68 40.0499 77.66 40.0799 77.63 40.0999L76.46 40.7799C76.46 40.7799 76.42 40.7999 76.4 40.7999C76.38 40.7999 76.37 40.7899 76.35 40.7699C76.33 40.7499 76.32 40.7199 76.32 40.6999C76.32 40.6699 76.34 40.6399 76.38 40.6199L77.43 39.6799C77.43 39.6799 77.49 39.6399 77.53 39.6399C77.59 39.6399 77.64 39.6699 77.68 39.7299C77.72 39.7899 77.74 39.8499 77.74 39.9199H77.72ZM80.92 41.6199C80.92 41.7799 80.87 41.9699 80.77 42.1999L80.22 43.5199C80.14 43.7099 80.1 43.8199 80.1 43.8599C80.1 43.9099 80.12 43.9399 80.16 43.9399C80.24 43.9399 80.39 43.8099 80.61 43.5599C80.71 43.4399 80.76 43.3899 80.78 43.3899C80.81 43.3899 80.83 43.3999 80.85 43.4299C80.87 43.4599 80.88 43.4799 80.88 43.5099C80.88 43.5499 80.8 43.6599 80.63 43.8299C80.46 43.9999 80.31 44.1399 80.15 44.2399C80 44.3399 79.86 44.3899 79.75 44.3899C79.65 44.3899 79.57 44.3699 79.51 44.3199C79.45 44.2799 79.42 44.1999 79.42 44.1299C79.42 43.9999 79.47 43.8099 79.57 43.5699L80.14 42.2199C80.21 42.0699 80.24 41.9399 80.24 41.8399C80.24 41.7099 80.19 41.6499 80.08 41.6499C79.95 41.6499 79.76 41.8199 79.5 42.1499C79.25 42.4899 78.96 42.9499 78.65 43.5199L78.42 44.1799C78.42 44.1799 78.37 44.2399 78.29 44.2599C78.21 44.2799 78.14 44.2899 78.07 44.2899C78 44.2899 77.94 44.2799 77.89 44.2599C77.84 44.2399 77.81 44.2199 77.81 44.1899V44.1699L78.54 42.0199C78.6 41.8599 78.63 41.7399 78.63 41.6699C78.63 41.6199 78.61 41.5899 78.56 41.5899C78.49 41.5899 78.36 41.7099 78.17 41.9599C78.07 42.0899 78.01 42.1499 77.99 42.1499C77.96 42.1499 77.94 42.1399 77.91 42.1099C77.89 42.0899 77.88 42.0599 77.88 42.0299C77.88 41.9999 77.96 41.8899 78.11 41.7099C78.26 41.5299 78.41 41.3899 78.56 41.2899C78.7 41.1899 78.83 41.1399 78.93 41.1399C79.17 41.1399 79.29 41.2499 79.29 41.4599C79.29 41.5899 79.26 41.7599 79.19 41.9599L78.98 42.5599C79.25 42.1099 79.51 41.7699 79.77 41.5199C80.03 41.2699 80.27 41.1499 80.48 41.1499C80.6 41.1499 80.71 41.1999 80.8 41.2799C80.88 41.3599 80.93 41.4799 80.93 41.6099L80.92 41.6199ZM85.42 41.3599C85.42 41.7099 85.22 42.3199 84.81 43.1899C84.4 44.0599 83.98 44.7799 83.54 45.3399C83.09 45.9099 82.72 46.1899 82.41 46.1899C82.29 46.1899 82.18 46.1599 82.09 46.0899C82 46.0199 81.95 45.9399 81.95 45.8499C81.95 45.7599 81.98 45.6899 82.03 45.6499C82.08 45.5999 82.15 45.5699 82.24 45.5699C82.3 45.5699 82.37 45.5999 82.44 45.6499C82.53 45.7199 82.62 45.7499 82.72 45.7499C82.83 45.7499 82.97 45.6499 83.14 45.4599C83.31 45.2699 83.43 45.0299 83.52 44.7499C83.61 44.4699 83.65 44.1599 83.65 43.8299C83.65 43.2099 83.61 42.7099 83.53 42.3099C83.45 41.9199 83.36 41.7199 83.25 41.7199C83.14 41.7199 83.02 41.8699 82.87 42.1899C82.81 42.3099 82.78 42.3699 82.76 42.3699C82.73 42.3699 82.7 42.3499 82.68 42.3299C82.65 42.2999 82.64 42.2799 82.64 42.2499C82.64 42.1499 82.69 42.0099 82.79 41.8199C82.89 41.6199 83 41.4599 83.11 41.3399C83.22 41.2199 83.33 41.1599 83.43 41.1599C83.67 41.1599 83.86 41.3399 84.01 41.6899C84.15 42.0499 84.22 42.5499 84.22 43.1999C84.22 43.4799 84.22 43.6999 84.2 43.8599C84.41 43.4999 84.57 43.1299 84.7 42.7499C84.82 42.3699 84.91 41.9299 84.97 41.4499C84.99 41.2599 85.05 41.1599 85.16 41.1599C85.23 41.1599 85.29 41.1799 85.34 41.2199C85.39 41.2599 85.41 41.3099 85.41 41.3699L85.42 41.3599ZM91.62 44.2799C91.62 44.3599 91.59 44.3999 91.54 44.3999H91.52C91.22 44.3199 90.81 44.2699 90.28 44.2699L89.3 42.2999C89.25 42.2199 89.19 42.1499 89.12 42.1199C89.05 42.0799 88.95 42.0699 88.81 42.0699L88.47 43.4899C88.45 43.5899 88.44 43.6699 88.44 43.7299C88.44 43.8299 88.49 43.9099 88.58 43.9599C88.67 44.0099 88.83 44.0499 89.06 44.0799C89.09 44.0799 89.1 44.0999 89.1 44.1399C89.1 44.1799 89.09 44.2099 89.07 44.2299C89.05 44.2599 89.03 44.2699 89.01 44.2699C88.84 44.2699 88.65 44.2699 88.42 44.2499C88.22 44.2399 88.06 44.2299 87.94 44.2299C87.82 44.2299 87.67 44.2299 87.46 44.2499C87.23 44.2699 87.05 44.2699 86.9 44.2699C86.88 44.2699 86.87 44.2499 86.87 44.1999C86.87 44.1699 86.88 44.1399 86.9 44.1199C86.92 44.0899 86.94 44.0799 86.96 44.0799C87.14 44.0599 87.28 44.0299 87.39 43.9999C87.49 43.9699 87.57 43.9199 87.62 43.8599C87.67 43.7999 87.72 43.6799 87.77 43.4899L88.55 40.1999C88.57 40.0999 88.58 40.0199 88.58 39.9599C88.58 39.8599 88.53 39.7699 88.44 39.7199C88.35 39.6699 88.19 39.6299 87.96 39.5999C87.94 39.5999 87.93 39.5799 87.93 39.5499C87.93 39.5199 87.93 39.4799 87.96 39.4499C87.98 39.4199 87.99 39.4099 88.02 39.4099C88.18 39.4099 88.36 39.4099 88.55 39.4299C88.71 39.4399 88.84 39.4499 88.95 39.4499C89.06 39.4499 89.2 39.4499 89.37 39.4299C89.56 39.4099 89.74 39.4099 89.9 39.4099C90.43 39.4099 90.81 39.4999 91.06 39.6899C91.31 39.8799 91.43 40.1699 91.43 40.5599C91.43 40.8899 91.27 41.1899 90.96 41.4799C90.64 41.7599 90.28 41.9399 89.87 42.0099L90.68 43.5499C90.76 43.7099 90.88 43.8399 91.02 43.9399C91.16 44.0399 91.35 44.1299 91.6 44.2099C91.63 44.2099 91.64 44.2399 91.64 44.2799H91.62ZM90.67 40.4999C90.67 39.9299 90.4 39.6499 89.87 39.6499C89.67 39.6499 89.54 39.6799 89.45 39.7499C89.36 39.8199 89.3 39.9699 89.25 40.1999L88.86 41.8399H89.27C89.54 41.8399 89.77 41.7799 89.99 41.6699C90.2 41.5499 90.37 41.3799 90.49 41.1699C90.62 40.9499 90.68 40.7299 90.68 40.5099L90.67 40.4999ZM93.94 41.6799C93.94 41.9999 93.78 42.2799 93.46 42.5399C93.14 42.7899 92.78 42.9199 92.36 42.9199C92.34 43.0599 92.34 43.1899 92.34 43.2999C92.34 43.5099 92.37 43.6499 92.42 43.7399C92.47 43.8299 92.57 43.8699 92.7 43.8699C93 43.8699 93.26 43.6999 93.49 43.3599H93.51C93.51 43.3599 93.55 43.3599 93.57 43.3799C93.59 43.4099 93.6 43.4299 93.6 43.4499C93.6 43.4999 93.53 43.6199 93.39 43.7999C93.25 43.9799 93.1 44.1299 92.94 44.2299C92.78 44.3299 92.63 44.3799 92.48 44.3799C92.25 44.3799 92.06 44.2899 91.91 44.1099C91.76 43.9399 91.69 43.7299 91.69 43.4899C91.69 43.1599 91.78 42.8099 91.96 42.4399C92.13 42.0699 92.36 41.7699 92.63 41.5199C92.9 41.2699 93.16 41.1499 93.39 41.1499C93.56 41.1499 93.69 41.1999 93.78 41.2899C93.88 41.3899 93.92 41.5099 93.92 41.6699L93.94 41.6799ZM93.44 41.7999C93.44 41.5999 93.35 41.4999 93.18 41.4999C93.01 41.4999 92.86 41.6199 92.71 41.8399C92.56 42.0699 92.46 42.3599 92.4 42.6899C92.6 42.6899 92.77 42.6499 92.92 42.5699C93.07 42.4899 93.2 42.3699 93.29 42.2099C93.38 42.0499 93.44 41.9099 93.44 41.7899V41.7999ZM96.18 41.5399C96.18 41.7499 96.1 41.8499 95.94 41.8499C95.87 41.8499 95.76 41.7899 95.62 41.6599C95.48 41.5399 95.38 41.4799 95.32 41.4799C95.27 41.4799 95.22 41.4999 95.18 41.5399C95.15 41.5799 95.13 41.6299 95.13 41.6899C95.13 41.8199 95.21 42.0699 95.38 42.4299C95.56 42.8299 95.65 43.0999 95.65 43.2499C95.65 43.5499 95.55 43.8199 95.34 44.0399C95.13 44.2699 94.87 44.3899 94.55 44.3899C94.38 44.3899 94.23 44.3499 94.1 44.2599C93.97 44.1699 93.9 44.0799 93.9 43.9899C93.9 43.8999 93.92 43.8199 93.98 43.7699C94.03 43.7199 94.1 43.6899 94.2 43.6899C94.27 43.6899 94.36 43.7499 94.45 43.8699C94.53 43.9699 94.6 44.0299 94.65 44.0599C94.71 44.0899 94.78 44.1099 94.84 44.1099C94.93 44.1099 95.01 44.0699 95.06 43.9899C95.11 43.9099 95.14 43.7899 95.14 43.6399C95.14 43.5399 95.07 43.3499 94.94 43.0799C94.75 42.6899 94.66 42.3799 94.66 42.1599C94.66 41.9199 94.76 41.6899 94.95 41.4799C95.14 41.2699 95.37 41.1599 95.62 41.1599C95.79 41.1599 95.92 41.1999 96.03 41.2699C96.13 41.3399 96.19 41.4299 96.19 41.5399H96.18ZM98.84 42.2299C98.84 42.5599 98.75 42.8999 98.58 43.2399C98.41 43.5799 98.18 43.8499 97.9 44.0699C97.62 44.2799 97.35 44.3899 97.08 44.3899C96.85 44.3899 96.66 44.2899 96.5 44.0799C96.33 43.8799 96.25 43.6199 96.25 43.3199C96.25 42.9899 96.34 42.6499 96.51 42.3099C96.68 41.9699 96.91 41.6999 97.18 41.4799C97.46 41.2599 97.73 41.1599 98 41.1599C98.23 41.1599 98.43 41.2599 98.59 41.4699C98.76 41.6799 98.84 41.9299 98.84 42.2399V42.2299ZM98.27 41.7799C98.27 41.6299 98.25 41.5299 98.21 41.4699C98.17 41.4199 98.1 41.3899 98 41.3899C97.85 41.3899 97.67 41.5199 97.47 41.7699C97.28 42.0299 97.12 42.3399 96.99 42.6999C96.87 43.0699 96.81 43.4199 96.81 43.7599C96.81 43.9099 96.83 44.0199 96.87 44.0799C96.91 44.1299 96.98 44.1599 97.08 44.1599C97.23 44.1599 97.41 44.0299 97.6 43.7799C97.8 43.5299 97.95 43.2099 98.08 42.8499C98.2 42.4799 98.26 42.1299 98.26 41.7799H98.27ZM101.54 41.5999C101.54 41.6699 101.52 41.7299 101.47 41.7799C101.42 41.8299 101.37 41.8499 101.3 41.8499C101.18 41.8499 101.06 41.7799 100.94 41.6499C100.84 41.5299 100.74 41.4699 100.65 41.4699C100.56 41.4699 100.43 41.5799 100.28 41.7999C100.13 42.0199 100.01 42.2699 99.93 42.5699C99.85 42.8699 99.8 43.1799 99.8 43.4999C99.8 43.7799 99.91 43.9199 100.13 43.9199C100.23 43.9199 100.35 43.8799 100.48 43.7899C100.61 43.6999 100.73 43.5799 100.84 43.4399H100.86C100.86 43.4399 100.9 43.4399 100.92 43.4699C100.94 43.4999 100.95 43.5199 100.95 43.5399C100.95 43.5899 100.88 43.6899 100.74 43.8599C100.6 44.0299 100.46 44.1599 100.31 44.2599C100.16 44.3599 100.02 44.4099 99.88 44.4099C99.68 44.4099 99.51 44.3199 99.36 44.1499C99.22 43.9699 99.15 43.7699 99.15 43.5199C99.15 43.1899 99.24 42.8399 99.42 42.4699C99.6 42.0999 99.84 41.7999 100.12 41.5499C100.4 41.2999 100.66 41.1699 100.9 41.1699C101.07 41.1699 101.22 41.2199 101.35 41.2999C101.47 41.3799 101.53 41.4899 101.53 41.6099L101.54 41.5999ZM103.31 41.4499C103.31 41.5899 103.26 41.7699 103.16 41.9699L102.4 43.5199C102.32 43.6799 102.28 43.7899 102.28 43.8599C102.28 43.9099 102.3 43.9399 102.33 43.9399C102.41 43.9399 102.57 43.7999 102.81 43.5199C102.92 43.3899 102.99 43.3199 103.01 43.3199C103.04 43.3199 103.06 43.3299 103.09 43.3599C103.12 43.3899 103.12 43.4099 103.12 43.4399C103.12 43.4699 103.03 43.5799 102.85 43.7699C102.67 43.9599 102.5 44.1099 102.34 44.2199C102.18 44.3299 102.05 44.3799 101.94 44.3799C101.72 44.3799 101.61 44.2799 101.61 44.0699C101.61 43.9499 101.66 43.7799 101.76 43.5599L102.52 42.0299C102.6 41.8699 102.64 41.7499 102.64 41.6699C102.64 41.6199 102.62 41.5999 102.57 41.5999C102.49 41.5999 102.33 41.7499 102.07 42.0299C101.97 42.1499 101.91 42.2099 101.9 42.2099C101.87 42.2099 101.84 42.1899 101.82 42.1699C101.8 42.1499 101.79 42.1199 101.79 42.0899C101.79 42.0599 101.88 41.9399 102.06 41.7599C102.24 41.5699 102.41 41.4199 102.57 41.3099C102.73 41.1999 102.87 41.1399 102.98 41.1399C103.2 41.1399 103.31 41.2399 103.31 41.4399V41.4499ZM103.72 39.8499C103.72 39.9599 103.68 40.0499 103.6 40.1199C103.52 40.1999 103.43 40.2399 103.32 40.2399C103.21 40.2399 103.12 40.2099 103.04 40.1199C102.96 40.0499 102.92 39.9499 102.92 39.8499C102.92 39.7499 102.96 39.6499 103.04 39.5699C103.12 39.4899 103.21 39.4499 103.32 39.4499C103.43 39.4499 103.52 39.4899 103.6 39.5699C103.68 39.6499 103.72 39.7399 103.72 39.8499ZM106.73 41.2199L105.74 43.5099C105.67 43.6699 105.64 43.7799 105.64 43.8499C105.64 43.8999 105.66 43.9299 105.71 43.9299C105.78 43.9299 105.93 43.7899 106.16 43.5099C106.27 43.3799 106.33 43.3199 106.34 43.3199C106.37 43.3199 106.39 43.3299 106.42 43.3599C106.45 43.3899 106.45 43.4099 106.45 43.4399C106.45 43.4699 106.37 43.5799 106.19 43.7699C106.02 43.9599 105.86 44.1099 105.71 44.2199C105.56 44.3299 105.43 44.3799 105.33 44.3799C105.1 44.3799 104.98 44.2699 104.98 44.0499C104.98 43.8499 105.08 43.5599 105.28 43.1999C105.11 43.5199 104.88 43.7999 104.6 44.0299C104.32 44.2599 104.07 44.3799 103.86 44.3799C103.74 44.3799 103.64 44.3299 103.58 44.2399C103.51 44.1499 103.48 44.0199 103.48 43.8699C103.48 43.5699 103.61 43.2199 103.86 42.8199C104.11 42.4299 104.43 42.0799 104.8 41.7899C105.17 41.4899 105.49 41.3399 105.74 41.3399C105.86 41.3399 105.96 41.3699 106.04 41.4199L106.12 41.2199C106.16 41.1399 106.28 41.0999 106.49 41.0999C106.66 41.0999 106.74 41.1299 106.74 41.1999V41.2199H106.73ZM105.87 41.7699C105.87 41.6299 105.82 41.5599 105.72 41.5599C105.52 41.5599 105.29 41.6699 105.04 41.8899C104.78 42.1099 104.56 42.3799 104.37 42.6999C104.18 43.0199 104.08 43.2899 104.08 43.4999C104.08 43.6299 104.1 43.7199 104.14 43.7699C104.18 43.8199 104.25 43.8499 104.34 43.8499C104.46 43.8499 104.64 43.7099 104.89 43.4399C105.14 43.1699 105.37 42.8599 105.57 42.5199C105.77 42.1699 105.88 41.9199 105.88 41.7699H105.87ZM109.14 39.2399C109.14 39.2399 109.12 39.3499 109.1 39.4199L107.58 43.3599C107.49 43.5899 107.45 43.7299 107.45 43.7599C107.45 43.8299 107.47 43.8599 107.53 43.8599C107.63 43.8599 107.78 43.7199 108 43.4499C108.09 43.3299 108.15 43.2799 108.16 43.2799C108.19 43.2799 108.22 43.2899 108.24 43.3199C108.26 43.3499 108.27 43.3699 108.27 43.3999C108.27 43.4399 108.19 43.5499 108.02 43.7499C107.86 43.9399 107.7 44.0999 107.54 44.2099C107.38 44.3199 107.26 44.3799 107.15 44.3799C106.9 44.3799 106.78 44.2599 106.78 44.0099C106.78 43.8899 106.81 43.7399 106.88 43.5599L108.15 40.2399C108.2 40.1099 108.23 39.9999 108.23 39.9299C108.23 39.8399 108.13 39.7799 107.94 39.7599C107.9 39.7599 107.88 39.7299 107.88 39.6699C107.88 39.6099 107.9 39.5899 107.94 39.5899C108.09 39.5599 108.27 39.5099 108.48 39.4299C108.69 39.3499 108.85 39.2799 108.96 39.2099C109.01 39.1799 109.05 39.1599 109.08 39.1599C109.13 39.1599 109.15 39.1899 109.15 39.2399H109.14ZM110.43 41.4499C110.43 41.5899 110.38 41.7699 110.28 41.9699L109.52 43.5199C109.44 43.6799 109.4 43.7899 109.4 43.8599C109.4 43.9099 109.42 43.9399 109.46 43.9399C109.54 43.9399 109.69 43.7999 109.94 43.5199C110.05 43.3899 110.12 43.3199 110.13 43.3199C110.16 43.3199 110.19 43.3299 110.21 43.3599C110.23 43.3899 110.24 43.4099 110.24 43.4399C110.24 43.4699 110.15 43.5799 109.97 43.7699C109.79 43.9599 109.62 44.1099 109.46 44.2199C109.3 44.3299 109.17 44.3799 109.06 44.3799C108.84 44.3799 108.73 44.2799 108.73 44.0699C108.73 43.9499 108.78 43.7799 108.88 43.5599L109.64 42.0299C109.72 41.8699 109.76 41.7499 109.76 41.6699C109.76 41.6199 109.74 41.5999 109.7 41.5999C109.62 41.5999 109.45 41.7499 109.2 42.0299C109.1 42.1499 109.04 42.2099 109.02 42.2099C108.99 42.2099 108.97 42.1899 108.95 42.1699C108.93 42.1499 108.92 42.1199 108.92 42.0899C108.92 42.0599 109.01 41.9399 109.19 41.7599C109.37 41.5699 109.54 41.4199 109.7 41.3099C109.86 41.1999 110 41.1399 110.1 41.1399C110.32 41.1399 110.43 41.2399 110.43 41.4399V41.4499ZM110.84 39.8499C110.84 39.9599 110.8 40.0499 110.72 40.1199C110.64 40.1999 110.55 40.2399 110.44 40.2399C110.33 40.2399 110.23 40.2099 110.16 40.1199C110.08 40.0499 110.04 39.9499 110.04 39.8499C110.04 39.7499 110.08 39.6499 110.16 39.5699C110.24 39.4899 110.33 39.4499 110.44 39.4499C110.55 39.4499 110.64 39.4899 110.72 39.5699C110.8 39.6499 110.84 39.7399 110.84 39.8499ZM113.52 41.4199C113.52 41.4199 113.45 41.5199 113.33 41.6299C113.24 41.6999 113.18 41.7599 113.14 41.7999L111.28 43.6599C111.28 43.6599 111.42 43.5799 111.57 43.5799C111.68 43.5799 111.87 43.6599 112.16 43.8399C112.42 43.9999 112.59 44.0799 112.69 44.0799C112.77 44.0799 112.82 44.0399 112.82 43.9499C112.82 43.9099 112.79 43.8599 112.74 43.7999C112.67 43.7199 112.64 43.6499 112.64 43.5699C112.64 43.4899 112.66 43.4299 112.72 43.3799C112.77 43.3299 112.84 43.2999 112.93 43.2999C113.02 43.2999 113.1 43.3399 113.15 43.4099C113.2 43.4899 113.23 43.5899 113.23 43.7099C113.23 43.8699 113.15 44.0299 112.99 44.1699C112.83 44.3099 112.63 44.3899 112.4 44.3899C112.28 44.3899 112.07 44.3399 111.78 44.2399C111.51 44.1399 111.32 44.0999 111.21 44.0999C111.09 44.0999 110.99 44.1599 110.91 44.2799C110.86 44.3499 110.81 44.3899 110.77 44.3899C110.7 44.3899 110.64 44.3599 110.58 44.3099C110.52 44.2599 110.49 44.1899 110.49 44.1299C110.49 44.0999 110.55 44.0299 110.67 43.9299C110.76 43.8599 110.82 43.7999 110.87 43.7599L112.73 41.8899C112.68 41.9499 112.59 41.9699 112.45 41.9699C112.33 41.9699 112.15 41.9099 111.9 41.7799C111.67 41.6599 111.5 41.5999 111.4 41.5999C111.3 41.5999 111.25 41.6399 111.25 41.7299C111.25 41.7899 111.3 41.8399 111.4 41.8899C111.53 41.9599 111.6 42.0399 111.6 42.1299C111.6 42.1899 111.57 42.2499 111.51 42.2999C111.45 42.3499 111.38 42.3799 111.31 42.3799C111.2 42.3799 111.12 42.3399 111.06 42.2599C110.99 42.1799 110.96 42.0799 110.96 41.9499C110.96 41.7499 111.04 41.5699 111.2 41.3999C111.36 41.2299 111.53 41.1499 111.73 41.1499C111.85 41.1499 112.04 41.2099 112.29 41.3399C112.52 41.4499 112.7 41.5099 112.81 41.5099C112.93 41.5099 113.03 41.4399 113.11 41.2899C113.16 41.1999 113.21 41.1499 113.26 41.1499C113.32 41.1499 113.38 41.1799 113.44 41.2299C113.5 41.2799 113.53 41.3499 113.53 41.4099L113.52 41.4199ZM116.78 41.2199L115.79 43.5099C115.72 43.6699 115.69 43.7799 115.69 43.8499C115.69 43.8999 115.71 43.9299 115.76 43.9299C115.83 43.9299 115.98 43.7899 116.21 43.5099C116.32 43.3799 116.38 43.3199 116.39 43.3199C116.42 43.3199 116.44 43.3299 116.47 43.3599C116.5 43.3899 116.5 43.4099 116.5 43.4399C116.5 43.4699 116.42 43.5799 116.25 43.7699C116.08 43.9599 115.92 44.1099 115.77 44.2199C115.62 44.3299 115.49 44.3799 115.39 44.3799C115.16 44.3799 115.04 44.2699 115.04 44.0499C115.04 43.8499 115.14 43.5599 115.33 43.1999C115.16 43.5199 114.93 43.7899 114.65 44.0299C114.37 44.2599 114.12 44.3799 113.91 44.3799C113.79 44.3799 113.69 44.3299 113.63 44.2399C113.56 44.1499 113.53 44.0199 113.53 43.8699C113.53 43.5699 113.66 43.2199 113.91 42.8199C114.16 42.4299 114.48 42.0799 114.85 41.7899C115.22 41.4899 115.53 41.3399 115.79 41.3399C115.91 41.3399 116.01 41.3699 116.09 41.4199L116.17 41.2199C116.2 41.1399 116.33 41.0999 116.54 41.0999C116.71 41.0999 116.79 41.1299 116.79 41.1999V41.2199H116.78ZM115.91 41.7699C115.91 41.6299 115.86 41.5599 115.76 41.5599C115.56 41.5599 115.33 41.6699 115.08 41.8899C114.82 42.1099 114.6 42.3799 114.41 42.6999C114.22 43.0199 114.12 43.2899 114.12 43.4999C114.12 43.6299 114.14 43.7199 114.18 43.7699C114.22 43.8199 114.29 43.8499 114.38 43.8499C114.5 43.8499 114.68 43.7099 114.93 43.4399C115.18 43.1699 115.41 42.8599 115.61 42.5199C115.81 42.1699 115.92 41.9199 115.92 41.7699H115.91ZM119.27 41.5999C119.27 41.6699 119.25 41.7299 119.2 41.7799C119.16 41.8199 119.09 41.8499 119.03 41.8499C118.9 41.8499 118.78 41.7799 118.67 41.6499C118.57 41.5299 118.47 41.4699 118.38 41.4699C118.28 41.4699 118.16 41.5799 118.01 41.7999C117.86 42.0199 117.74 42.2699 117.66 42.5699C117.57 42.8699 117.53 43.1799 117.53 43.4999C117.53 43.7799 117.65 43.9199 117.87 43.9199C117.97 43.9199 118.09 43.8799 118.22 43.7899C118.35 43.6999 118.47 43.5799 118.58 43.4399H118.6C118.6 43.4399 118.63 43.4399 118.66 43.4699C118.68 43.4899 118.69 43.5199 118.69 43.5399C118.69 43.5899 118.62 43.6899 118.48 43.8599C118.34 44.0299 118.2 44.1599 118.05 44.2599C117.9 44.3599 117.76 44.4099 117.62 44.4099C117.42 44.4099 117.24 44.3199 117.1 44.1499C116.96 43.9699 116.88 43.7699 116.88 43.5199C116.88 43.1899 116.97 42.8399 117.15 42.4699C117.33 42.0999 117.57 41.7999 117.85 41.5499C118.13 41.2999 118.39 41.1699 118.63 41.1699C118.8 41.1699 118.95 41.2199 119.08 41.2999C119.21 41.3799 119.27 41.4899 119.27 41.6099V41.5999ZM121.04 41.4499C121.04 41.5899 120.99 41.7699 120.89 41.9699L120.13 43.5199C120.05 43.6799 120.01 43.7899 120.01 43.8599C120.01 43.9099 120.03 43.9399 120.06 43.9399C120.14 43.9399 120.29 43.7999 120.54 43.5199C120.65 43.3899 120.72 43.3199 120.73 43.3199C120.76 43.3199 120.79 43.3299 120.81 43.3599C120.83 43.3899 120.84 43.4099 120.84 43.4399C120.84 43.4699 120.75 43.5799 120.57 43.7699C120.39 43.9599 120.22 44.1099 120.06 44.2199C119.9 44.3299 119.77 44.3799 119.66 44.3799C119.44 44.3799 119.33 44.2799 119.33 44.0699C119.33 43.9499 119.38 43.7799 119.48 43.5599L120.24 42.0299C120.32 41.8699 120.36 41.7499 120.36 41.6699C120.36 41.6199 120.34 41.5999 120.3 41.5999C120.22 41.5999 120.05 41.7499 119.8 42.0299C119.7 42.1499 119.64 42.2099 119.62 42.2099C119.59 42.2099 119.57 42.1899 119.55 42.1699C119.53 42.1499 119.52 42.1199 119.52 42.0899C119.52 42.0599 119.61 41.9399 119.79 41.7599C119.97 41.5699 120.14 41.4199 120.3 41.3099C120.46 41.1999 120.6 41.1399 120.7 41.1399C120.92 41.1399 121.03 41.2399 121.03 41.4399L121.04 41.4499ZM121.45 39.8499C121.45 39.9599 121.41 40.0499 121.33 40.1199C121.25 40.1999 121.16 40.2399 121.05 40.2399C120.94 40.2399 120.84 40.2099 120.77 40.1199C120.7 40.0499 120.65 39.9499 120.66 39.8499C120.66 39.7399 120.69 39.6499 120.77 39.5699C120.85 39.4899 120.94 39.4499 121.05 39.4499C121.16 39.4499 121.25 39.4899 121.33 39.5699C121.41 39.6499 121.45 39.7399 121.45 39.8499ZM123.92 42.2299C123.92 42.5599 123.83 42.8999 123.66 43.2399C123.49 43.5799 123.26 43.8499 122.98 44.0699C122.7 44.2799 122.43 44.3899 122.16 44.3899C121.93 44.3899 121.74 44.2899 121.58 44.0799C121.41 43.8799 121.33 43.6199 121.33 43.3199C121.33 42.9899 121.42 42.6499 121.59 42.3099C121.76 41.9699 121.99 41.6999 122.26 41.4799C122.54 41.2599 122.81 41.1599 123.08 41.1599C123.31 41.1599 123.51 41.2599 123.67 41.4699C123.84 41.6799 123.92 41.9299 123.92 42.2399V42.2299ZM123.34 41.7799C123.34 41.6299 123.32 41.5299 123.28 41.4699C123.24 41.4099 123.17 41.3899 123.07 41.3899C122.92 41.3899 122.74 41.5199 122.54 41.7699C122.35 42.0299 122.19 42.3399 122.06 42.6999C121.94 43.0699 121.88 43.4199 121.88 43.7599C121.88 43.9099 121.9 44.0199 121.94 44.0799C121.98 44.1299 122.05 44.1599 122.15 44.1599C122.3 44.1599 122.48 44.0299 122.67 43.7799C122.87 43.5299 123.02 43.2099 123.15 42.8499C123.27 42.4799 123.33 42.1299 123.33 41.7799H123.34ZM124.09 39.9199C124.09 39.9199 124.08 39.9899 124.06 40.0199C124.05 40.0499 124.02 40.0799 123.99 40.0999L122.82 40.7799C122.82 40.7799 122.78 40.7999 122.75 40.7999C122.73 40.7999 122.72 40.7899 122.7 40.7699C122.68 40.7499 122.67 40.7199 122.67 40.6999C122.67 40.6699 122.69 40.6399 122.72 40.6199L123.77 39.6799C123.77 39.6799 123.83 39.6399 123.87 39.6399C123.93 39.6399 123.98 39.6699 124.02 39.7299C124.06 39.7899 124.08 39.8499 124.08 39.9199H124.09ZM127.29 41.6199C127.29 41.7799 127.24 41.9699 127.14 42.1999L126.59 43.5199C126.51 43.7099 126.47 43.8199 126.47 43.8599C126.47 43.9099 126.49 43.9399 126.54 43.9399C126.62 43.9399 126.77 43.8099 126.98 43.5599C127.08 43.4399 127.13 43.3899 127.15 43.3899C127.18 43.3899 127.2 43.3999 127.22 43.4299C127.24 43.4599 127.25 43.4799 127.25 43.5099C127.25 43.5499 127.17 43.6599 127 43.8299C126.84 43.9999 126.68 44.1399 126.52 44.2399C126.36 44.3399 126.23 44.3899 126.12 44.3899C126.02 44.3899 125.94 44.3699 125.88 44.3199C125.82 44.2699 125.79 44.2099 125.79 44.1299C125.79 43.9999 125.84 43.8099 125.94 43.5699L126.51 42.2199C126.58 42.0699 126.61 41.9399 126.61 41.8399C126.61 41.7099 126.56 41.6499 126.45 41.6499C126.32 41.6499 126.13 41.8199 125.87 42.1499C125.62 42.4899 125.33 42.9499 125.02 43.5199L124.79 44.1799C124.79 44.1799 124.73 44.2399 124.66 44.2599C124.58 44.2799 124.51 44.2899 124.44 44.2899C124.37 44.2899 124.31 44.2799 124.25 44.2599C124.2 44.2399 124.17 44.2199 124.17 44.1899V44.1699L124.9 42.0199C124.96 41.8599 124.99 41.7399 124.99 41.6699C124.99 41.6199 124.97 41.5899 124.93 41.5899C124.85 41.5899 124.72 41.7099 124.53 41.9599C124.43 42.0899 124.37 42.1499 124.35 42.1499C124.32 42.1499 124.29 42.1399 124.27 42.1099C124.25 42.0899 124.24 42.0599 124.24 42.0299C124.24 41.9999 124.32 41.8899 124.47 41.7099C124.62 41.5299 124.77 41.3899 124.92 41.2899C125.06 41.1899 125.19 41.1399 125.29 41.1399C125.53 41.1399 125.65 41.2499 125.65 41.4599C125.65 41.5899 125.62 41.7599 125.55 41.9599L125.34 42.5599C125.61 42.1099 125.87 41.7699 126.13 41.5199C126.39 41.2699 126.63 41.1499 126.84 41.1499C126.97 41.1499 127.07 41.1999 127.16 41.2799C127.25 41.3599 127.29 41.4799 127.29 41.6099V41.6199Z" fill="#EFEFEF"/>
</g>
<defs>
<clipPath id="clip0_83_30">
<rect width="127.29" height="46.19" fill="white"/>
</clipPath>
</defs>
</svg>
