<svg width="25" height="24" viewBox="0 0 25 24" fill="none" xmlns="http://www.w3.org/2000/svg">
<g clip-path="url(#clip0_71_2)">
<path d="M6.45003 23.7102C5.01003 23.7002 3.87003 22.5302 3.89003 21.1002C3.90003 19.6502 5.08003 18.5302 6.57003 18.5602C7.93003 18.5802 9.08003 19.7602 9.07003 21.1102C9.05003 22.5902 7.92003 23.7302 6.46003 23.7202L6.45003 23.7102ZM6.46003 22.2702C7.12003 22.2702 7.60003 21.8002 7.61003 21.1402C7.62003 20.5002 7.12003 19.9902 6.47003 19.9902C5.85003 19.9902 5.32003 20.5202 5.32003 21.1502C5.32003 21.7602 5.83003 22.2702 6.45003 22.2702H6.46003Z" fill="#EFEFEF"/>
<path d="M17.45 21.0998C17.45 19.6998 18.6 18.5598 20.03 18.5498C21.51 18.5498 22.6199 19.6798 22.6299 21.2098C22.6299 22.5098 21.42 23.6998 20.07 23.7098C18.62 23.7198 17.4599 22.5598 17.4599 21.0998H17.45ZM18.9 21.1298C18.9 21.7998 19.4 22.2898 20.07 22.2798C20.71 22.2798 21.18 21.7698 21.18 21.0998C21.18 20.4698 20.65 19.9798 20 19.9898C19.4 19.9898 18.89 20.5198 18.9 21.1198V21.1298Z" fill="#EFEFEF"/>
<path d="M23.9 0.04C23.7 0 23.48 0 23.27 0L0 0.04C0.14 0.82 0.29 1.59 0.43 2.37C1.24 6.7 2.05 11.03 2.86 15.36C3.14 16.82 3.86 17.44 5.34 17.44C10.43 17.44 15.51 17.44 20.6 17.44C21.39 17.44 22.17 17.45 22.96 17.46C23.51 17.46 23.87 17.18 23.88 16.75C23.88 16.27 23.58 16.01 22.98 15.99C22.92 15.99 22.87 15.99 22.81 15.99C18.03 15.99 13.26 15.99 8.48 15.99C7.36 15.99 6.23 15.99 5.11 15.99C4.8 15.99 4.52 15.91 4.43 15.61C4.26 14.97 4.13 14.31 3.98 13.6C4.36 13.57 4.61 13.55 4.86 13.52C8.13 13.08 11.4 12.64 14.66 12.19C16.84 11.89 19.03 11.61 21.21 11.29C22.45 11.11 23.04 10.53 23.27 9.3C23.78 6.63 24.27 3.97 24.77 1.3C24.89 0.64 24.58 0.18 23.91 0.05L23.9 0.04ZM22.94 3.21C22.58 5.12 22.22 7.03 21.86 8.94C21.73 9.65 21.59 9.79 20.89 9.88C18.35 10.23 15.8 10.56 13.26 10.91C10.24 11.32 7.23 11.73 4.21 12.13C4.07 12.15 3.93 12.16 3.74 12.19C3.07 8.59 2.4 5.04 1.74 1.45H23.25C23.14 2.06 23.05 2.64 22.94 3.21Z" fill="#EFEFEF"/>
</g>
<defs>
<clipPath id="clip0_71_2">
<rect width="24.79" height="23.72" fill="white"/>
</clipPath>
</defs>
</svg>
