<svg width="156" height="36" viewBox="0 0 156 36" fill="none" xmlns="http://www.w3.org/2000/svg">
<g clip-path="url(#clip0_85_82)">
<path d="M0.67 4.48997C0.69 4.64997 0.74 4.79997 0.84 4.93997C0.94 5.07997 1.06 5.19997 1.2 5.29997C1.35 5.39997 1.51 5.47997 1.69 5.52997C1.87 5.57997 2.05 5.60997 2.24 5.60997C2.43 5.60997 2.61 5.58997 2.79 5.54997C2.97 5.50997 3.14 5.44997 3.28 5.35997C3.43 5.26997 3.54 5.14997 3.63 4.99997C3.72 4.84997 3.76 4.66997 3.76 4.45997C3.76 4.24997 3.71 4.06997 3.6 3.92997C3.49 3.78997 3.35 3.68997 3.18 3.60997C3 3.52997 2.8 3.46997 2.58 3.41997C2.36 3.36997 2.12 3.31997 1.89 3.26997C1.66 3.21997 1.43 3.15997 1.2 3.08997C0.97 3.01997 0.77 2.93997 0.6 2.81997C0.42 2.70997 0.28 2.55997 0.17 2.36997C0.06 2.17997 0.01 1.94997 0.01 1.66997C0.01 1.38997 0.07 1.13997 0.19 0.929971C0.31 0.719971 0.47 0.539971 0.67 0.399971C0.87 0.259971 1.1 0.149971 1.36 0.0799707C1.62 0.0099707 1.89 -0.0300293 2.17 -0.0300293C2.47 -0.0300293 2.75 0.00997069 3.01 0.0999707C3.27 0.189971 3.49 0.299971 3.68 0.449971C3.87 0.599971 4.03 0.779971 4.15 0.979971C4.27 1.17997 4.35 1.40997 4.38 1.64997H3.72C3.69 1.47997 3.63 1.31997 3.54 1.17997C3.45 1.03997 3.33 0.919971 3.2 0.819971C3.07 0.719971 2.91 0.649971 2.74 0.599971C2.57 0.549971 2.39 0.519971 2.2 0.519971C2.01 0.519971 1.83 0.539971 1.65 0.579971C1.47 0.619971 1.3 0.689971 1.16 0.779971C1.02 0.869971 0.9 0.979971 0.81 1.11997C0.72 1.24997 0.67 1.40997 0.67 1.59997C0.67 1.81997 0.72 1.98997 0.83 2.12997C0.94 2.25997 1.08 2.36997 1.26 2.45997C1.44 2.53997 1.64 2.60997 1.86 2.65997C2.08 2.70997 2.31 2.75997 2.55 2.80997C2.79 2.85997 3.02 2.90997 3.24 2.96997C3.46 3.02997 3.67 3.11997 3.84 3.22997C4.01 3.34997 4.15 3.48997 4.26 3.66997C4.37 3.84997 4.42 4.06997 4.42 4.34997C4.42 4.66997 4.36 4.93997 4.24 5.16997C4.12 5.38997 3.96 5.57997 3.76 5.71997C3.56 5.85997 3.33 5.96997 3.07 6.03997C2.81 6.10997 2.54 6.14997 2.26 6.14997C1.95 6.14997 1.66 6.10997 1.4 6.02997C1.14 5.94997 0.92 5.82997 0.72 5.68997C0.52 5.53997 0.36 5.36997 0.24 5.15997C0.12 4.94997 0.03 4.71997 0 4.46997H0.67V4.48997Z" fill="#EFEFEF"/>
<path d="M8.92998 4.90991C8.72998 5.30991 8.46998 5.60991 8.13998 5.80991C7.81998 6.00991 7.42998 6.10991 6.98998 6.10991C6.64998 6.10991 6.33998 6.05991 6.05998 5.93991C5.77998 5.81991 5.54998 5.66991 5.34998 5.47991C5.14998 5.27991 4.99998 5.04991 4.88998 4.76991C4.77998 4.49991 4.72998 4.19991 4.72998 3.86991C4.72998 3.53991 4.77998 3.24991 4.88998 2.97991C4.99998 2.70991 5.14998 2.46991 5.32998 2.27991C5.50998 2.08991 5.73998 1.92991 6.00998 1.81991C6.27998 1.70991 6.56998 1.65991 6.88998 1.65991C7.20998 1.65991 7.50998 1.70991 7.77998 1.81991C8.04998 1.92991 8.26998 2.07991 8.45998 2.26991C8.64998 2.45991 8.79998 2.68991 8.89998 2.95991C9.00998 3.22991 9.05998 3.51991 9.05998 3.83991C9.05998 3.87991 9.05998 3.93991 9.05998 4.01991C9.05998 4.08991 9.04998 4.13991 9.03998 4.16991H5.31998C5.33998 4.36991 5.39998 4.55991 5.48998 4.72991C5.57998 4.89991 5.69998 5.04991 5.84998 5.16991C5.99998 5.28991 6.16998 5.38991 6.35998 5.45991C6.55998 5.52991 6.76998 5.56991 6.99998 5.56991C7.13998 5.56991 7.27998 5.54991 7.39998 5.51991C7.52998 5.48991 7.64998 5.43991 7.75998 5.38991C7.86998 5.32991 7.96998 5.25991 8.05998 5.17991C8.14998 5.09991 8.22998 4.99991 8.28998 4.89991H8.90998L8.92998 4.90991ZM8.52998 3.74991C8.51998 3.53991 8.47998 3.34991 8.39998 3.15991C8.31998 2.96991 8.21998 2.80991 8.07998 2.67991C7.93998 2.53991 7.76998 2.42991 7.57998 2.34991C7.37998 2.26991 7.16998 2.21991 6.92998 2.21991C6.66998 2.21991 6.43998 2.26991 6.23998 2.35991C6.03998 2.44991 5.87998 2.56991 5.73998 2.71991C5.60998 2.85991 5.50998 3.02991 5.42998 3.20991C5.34998 3.38991 5.31998 3.57991 5.31998 3.75991H8.51998L8.52998 3.74991Z" fill="#EFEFEF"/>
<path d="M12.35 1.77993C12.56 1.84993 12.75 1.93993 12.93 2.06993C13.11 2.18993 13.26 2.34993 13.39 2.52993C13.52 2.70993 13.62 2.91993 13.69 3.14993H13.05C13 2.99993 12.92 2.86993 12.83 2.75993C12.74 2.63993 12.63 2.54993 12.51 2.46993C12.39 2.38993 12.25 2.32993 12.11 2.28993C11.97 2.24993 11.82 2.22993 11.68 2.22993C11.44 2.22993 11.22 2.26993 11.03 2.35993C10.84 2.44993 10.67 2.56993 10.53 2.71993C10.39 2.86993 10.28 3.03993 10.21 3.23993C10.14 3.43993 10.1 3.64993 10.1 3.86993C10.1 4.08993 10.14 4.30993 10.21 4.50993C10.28 4.70993 10.39 4.88993 10.52 5.04993C10.65 5.20993 10.82 5.32993 11.02 5.41993C11.22 5.50993 11.44 5.55993 11.68 5.55993C11.82 5.55993 11.96 5.53993 12.11 5.49993C12.25 5.45993 12.39 5.39993 12.51 5.31993C12.63 5.23993 12.74 5.13993 12.84 5.02993C12.94 4.90993 13.01 4.77993 13.06 4.62993H13.69C13.64 4.85993 13.54 5.07993 13.41 5.25993C13.28 5.44993 13.12 5.59993 12.94 5.72993C12.76 5.85993 12.56 5.94993 12.34 6.01993C12.12 6.08993 11.9 6.11993 11.68 6.11993C11.36 6.11993 11.06 6.06993 10.8 5.94993C10.53 5.83993 10.3 5.67993 10.11 5.48993C9.92 5.28993 9.77 5.05993 9.66 4.78993C9.55 4.51993 9.5 4.21993 9.5 3.89993C9.5 3.57993 9.55 3.27993 9.66 3.00993C9.77 2.73993 9.92 2.50993 10.11 2.30993C10.3 2.10993 10.53 1.95993 10.8 1.84993C11.07 1.73993 11.37 1.67993 11.69 1.67993C11.92 1.67993 12.14 1.70993 12.35 1.77993Z" fill="#EFEFEF"/>
<path d="M14.1 1.81006H14.73V2.39006C14.84 2.19006 15.01 2.04006 15.22 1.95006C15.43 1.86006 15.67 1.81006 15.95 1.81006H16.59V2.40006H15.77C15.62 2.40006 15.49 2.42006 15.37 2.47006C15.25 2.51006 15.14 2.59006 15.05 2.69006C14.96 2.79006 14.88 2.92006 14.83 3.08006C14.78 3.24006 14.75 3.44006 14.75 3.66006V5.98006H14.11V1.81006H14.1Z" fill="#EFEFEF"/>
<path d="M20.7601 4.90991C20.5601 5.30991 20.3001 5.60991 19.9701 5.80991C19.6501 6.00991 19.2601 6.10991 18.8201 6.10991C18.4801 6.10991 18.1701 6.05991 17.8901 5.93991C17.6101 5.81991 17.3801 5.66991 17.1801 5.47991C16.9801 5.27991 16.8301 5.04991 16.7201 4.76991C16.6101 4.49991 16.5601 4.19991 16.5601 3.86991C16.5601 3.53991 16.6101 3.24991 16.7201 2.97991C16.8301 2.70991 16.9801 2.46991 17.1601 2.27991C17.3401 2.08991 17.5701 1.92991 17.8401 1.81991C18.1101 1.70991 18.4001 1.65991 18.7201 1.65991C19.0401 1.65991 19.3401 1.70991 19.6101 1.81991C19.8801 1.92991 20.1001 2.07991 20.2901 2.26991C20.4801 2.45991 20.6301 2.68991 20.7301 2.95991C20.8401 3.22991 20.8901 3.51991 20.8901 3.83991C20.8901 3.87991 20.8901 3.93991 20.8901 4.01991C20.8901 4.08991 20.8801 4.13991 20.8701 4.16991H17.1501C17.1701 4.36991 17.2301 4.55991 17.3201 4.72991C17.4101 4.89991 17.5301 5.04991 17.6801 5.16991C17.8301 5.28991 18.0001 5.38991 18.1901 5.45991C18.3901 5.52991 18.6001 5.56991 18.8301 5.56991C18.9701 5.56991 19.1101 5.54991 19.2301 5.51991C19.3601 5.48991 19.4801 5.43991 19.5901 5.38991C19.7001 5.32991 19.8001 5.25991 19.8901 5.17991C19.9801 5.09991 20.0601 4.99991 20.1201 4.89991H20.7401L20.7601 4.90991ZM20.3601 3.74991C20.3501 3.53991 20.3101 3.34991 20.2301 3.15991C20.1501 2.96991 20.0501 2.80991 19.9101 2.67991C19.7701 2.53991 19.6001 2.42991 19.4101 2.34991C19.2101 2.26991 19.0001 2.21991 18.7601 2.21991C18.5001 2.21991 18.2701 2.26991 18.0701 2.35991C17.8701 2.44991 17.7101 2.56991 17.5701 2.71991C17.4401 2.85991 17.3401 3.02991 17.2601 3.20991C17.1801 3.38991 17.1501 3.57991 17.1501 3.75991H20.3501L20.3601 3.74991Z" fill="#EFEFEF"/>
<path d="M21.3201 0.179932H21.9601V1.80993H23.3501V2.38993H21.9601V4.74993C21.9601 4.92993 22.0101 5.08993 22.1101 5.21993C22.2101 5.34993 22.3601 5.40993 22.5601 5.40993H23.3401V5.98993H22.3901C22.2301 5.98993 22.0801 5.95993 21.9501 5.89993C21.8201 5.83993 21.7001 5.75993 21.6101 5.65993C21.5201 5.55993 21.4501 5.42993 21.3901 5.27993C21.3301 5.12993 21.3101 4.96993 21.3101 4.79993V0.179932H21.3201Z" fill="#EFEFEF"/>
<path d="M26.5599 1.84994C26.8299 1.95994 27.06 2.11994 27.26 2.30994C27.45 2.50994 27.6 2.73994 27.7 3.00994C27.8 3.27994 27.85 3.57994 27.85 3.89994V5.98994H27.2199V5.25994C27.0599 5.52994 26.8399 5.73994 26.5599 5.89994C26.2799 6.05994 25.96 6.12994 25.6 6.12994C25.28 6.12994 24.9899 6.07994 24.7299 5.96994C24.4699 5.85994 24.2399 5.70994 24.0499 5.50994C23.8599 5.30994 23.71 5.07994 23.61 4.80994C23.51 4.53994 23.45 4.23994 23.45 3.90994C23.45 3.57994 23.5 3.28994 23.61 3.01994C23.72 2.74994 23.8699 2.50994 24.0599 2.31994C24.2499 2.12994 24.48 1.96994 24.75 1.85994C25.02 1.74994 25.3099 1.68994 25.6299 1.68994C25.9699 1.68994 26.27 1.73994 26.54 1.85994L26.5599 1.84994ZM25.03 2.37994C24.84 2.45994 24.68 2.57994 24.54 2.71994C24.4 2.85994 24.2899 3.03994 24.2099 3.23994C24.1299 3.43994 24.09 3.65994 24.09 3.88994C24.09 4.11994 24.1299 4.34994 24.2099 4.54994C24.2899 4.74994 24.4 4.91994 24.54 5.06994C24.68 5.21994 24.84 5.32994 25.03 5.40994C25.22 5.48994 25.43 5.52994 25.66 5.52994C25.89 5.52994 26.09 5.48994 26.28 5.40994C26.47 5.32994 26.63 5.21994 26.77 5.07994C26.91 4.93994 27.02 4.75994 27.09 4.55994C27.17 4.34994 27.2 4.12994 27.2 3.88994C27.2 3.65994 27.17 3.43994 27.1 3.23994C27.03 3.03994 26.93 2.85994 26.79 2.71994C26.65 2.57994 26.4899 2.45994 26.2999 2.37994C26.1099 2.29994 25.9 2.25994 25.66 2.25994C25.42 2.25994 25.22 2.29994 25.03 2.37994Z" fill="#EFEFEF"/>
<path d="M28.27 1.81006H28.9V2.39006C29.01 2.19006 29.18 2.04006 29.39 1.95006C29.6 1.86006 29.84 1.81006 30.12 1.81006H30.76V2.40006H29.94C29.79 2.40006 29.66 2.42006 29.54 2.47006C29.42 2.51006 29.31 2.59006 29.22 2.69006C29.13 2.79006 29.05 2.92006 29 3.08006C28.95 3.24006 28.92 3.44006 28.92 3.66006V5.98006H28.28V1.81006H28.27Z" fill="#EFEFEF"/>
<path d="M31.16 1.81007H31.8V5.99007H31.16V1.81007ZM32.09 0.0700684H32.63L31.61 1.35007H31.32L32.09 0.0700684Z" fill="#EFEFEF"/>
<path d="M35.4299 1.84994C35.6999 1.95994 35.9299 2.11994 36.1299 2.30994C36.3199 2.50994 36.4699 2.73994 36.5699 3.00994C36.6699 3.27994 36.7199 3.57994 36.7199 3.89994V5.98994H36.0899V5.25994C35.9299 5.52994 35.7099 5.73994 35.4299 5.89994C35.1499 6.05994 34.8299 6.12994 34.4699 6.12994C34.1499 6.12994 33.8599 6.07994 33.5999 5.96994C33.3399 5.85994 33.1099 5.70994 32.9199 5.50994C32.7299 5.30994 32.5799 5.07994 32.4799 4.80994C32.3799 4.53994 32.3199 4.23994 32.3199 3.90994C32.3199 3.57994 32.3699 3.28994 32.4799 3.01994C32.5899 2.74994 32.7399 2.50994 32.9299 2.31994C33.1199 2.12994 33.3499 1.96994 33.6199 1.85994C33.8899 1.74994 34.1799 1.68994 34.4999 1.68994C34.8399 1.68994 35.1399 1.73994 35.4099 1.85994L35.4299 1.84994ZM33.8999 2.37994C33.7099 2.45994 33.5499 2.57994 33.4099 2.71994C33.2699 2.85994 33.1599 3.03994 33.0799 3.23994C32.9999 3.43994 32.9599 3.65994 32.9599 3.88994C32.9599 4.11994 32.9999 4.34994 33.0799 4.54994C33.1599 4.74994 33.2699 4.91994 33.4099 5.06994C33.5499 5.21994 33.7099 5.32994 33.8999 5.40994C34.0899 5.48994 34.2999 5.52994 34.5299 5.52994C34.7599 5.52994 34.9599 5.48994 35.1499 5.40994C35.3399 5.32994 35.4999 5.21994 35.6399 5.07994C35.7799 4.93994 35.8899 4.75994 35.9599 4.55994C36.0399 4.34994 36.0699 4.12994 36.0699 3.88994C36.0699 3.65994 36.0399 3.43994 35.9699 3.23994C35.8999 3.03994 35.7999 2.85994 35.6599 2.71994C35.5199 2.57994 35.3599 2.45994 35.1699 2.37994C34.9799 2.29994 34.7699 2.25994 34.5299 2.25994C34.2899 2.25994 34.0899 2.29994 33.8999 2.37994Z" fill="#EFEFEF"/>
<path d="M43.63 0.179932V3.95993C43.63 4.28993 43.58 4.58993 43.47 4.84993C43.36 5.10993 43.21 5.33993 43.02 5.52993C42.83 5.71993 42.6 5.86993 42.34 5.96993C42.07 6.06993 41.78 6.12993 41.46 6.12993C41.14 6.12993 40.85 6.06993 40.58 5.95993C40.31 5.84993 40.08 5.68993 39.88 5.49993C39.68 5.29993 39.53 5.06993 39.42 4.79993C39.31 4.52993 39.26 4.22993 39.26 3.90993C39.26 3.58993 39.31 3.28993 39.41 3.01993C39.51 2.74993 39.66 2.50993 39.84 2.31993C40.03 2.11993 40.25 1.96993 40.5 1.85993C40.76 1.74993 41.05 1.68993 41.37 1.68993C41.72 1.68993 42.03 1.75993 42.3 1.90993C42.57 2.05993 42.8 2.25993 42.98 2.50993V0.179932H43.62H43.63ZM40.02 4.55993C40.1 4.75993 40.2 4.93993 40.34 5.07993C40.48 5.21993 40.64 5.33993 40.83 5.41993C41.02 5.49993 41.23 5.53993 41.46 5.53993C41.69 5.53993 41.89 5.49993 42.08 5.41993C42.27 5.33993 42.44 5.22993 42.58 5.08993C42.72 4.94993 42.83 4.77993 42.91 4.56993C42.99 4.35993 43.02 4.13993 43.02 3.88993C43.02 3.64993 42.99 3.42993 42.91 3.22993C42.83 3.02993 42.72 2.85993 42.58 2.70993C42.44 2.55993 42.28 2.44993 42.08 2.36993C41.88 2.28993 41.68 2.24993 41.46 2.24993C41.24 2.24993 41.02 2.28993 40.83 2.36993C40.64 2.44993 40.48 2.56993 40.34 2.70993C40.2 2.84993 40.09 3.02993 40.01 3.22993C39.93 3.42993 39.89 3.64993 39.89 3.88993C39.89 4.12993 39.94 4.34993 40.01 4.54993L40.02 4.55993Z" fill="#EFEFEF"/>
<path d="M48.24 4.90991C48.04 5.30991 47.78 5.60991 47.45 5.80991C47.13 6.00991 46.74 6.10991 46.3 6.10991C45.96 6.10991 45.65 6.05991 45.37 5.93991C45.09 5.81991 44.86 5.66991 44.66 5.47991C44.46 5.27991 44.31 5.04991 44.2 4.76991C44.09 4.49991 44.04 4.19991 44.04 3.86991C44.04 3.53991 44.09 3.24991 44.2 2.97991C44.31 2.70991 44.46 2.46991 44.64 2.27991C44.82 2.08991 45.05 1.92991 45.32 1.81991C45.59 1.70991 45.88 1.65991 46.2 1.65991C46.52 1.65991 46.82 1.70991 47.09 1.81991C47.36 1.92991 47.58 2.07991 47.77 2.26991C47.96 2.45991 48.11 2.68991 48.21 2.95991C48.32 3.22991 48.37 3.51991 48.37 3.83991C48.37 3.87991 48.37 3.93991 48.37 4.01991C48.37 4.08991 48.36 4.13991 48.35 4.16991H44.63C44.65 4.36991 44.71 4.55991 44.8 4.72991C44.89 4.89991 45.01 5.04991 45.16 5.16991C45.31 5.28991 45.48 5.38991 45.67 5.45991C45.87 5.52991 46.08 5.56991 46.31 5.56991C46.45 5.56991 46.59 5.54991 46.71 5.51991C46.84 5.48991 46.96 5.43991 47.07 5.38991C47.18 5.32991 47.28 5.25991 47.37 5.17991C47.46 5.09991 47.54 4.99991 47.6 4.89991H48.22L48.24 4.90991ZM47.85 3.74991C47.84 3.53991 47.8 3.34991 47.72 3.15991C47.64 2.96991 47.54 2.80991 47.4 2.67991C47.26 2.53991 47.09 2.42991 46.9 2.34991C46.7 2.26991 46.49 2.21991 46.25 2.21991C45.99 2.21991 45.76 2.26991 45.56 2.35991C45.36 2.44991 45.2 2.56991 45.06 2.71991C44.93 2.85991 44.83 3.02991 44.75 3.20991C44.67 3.38991 44.64 3.57991 44.64 3.75991H47.84L47.85 3.74991Z" fill="#EFEFEF"/>
<path d="M0.439941 8.19995H2.83994C3.73994 8.19995 4.54994 8.31995 5.25994 8.58995C5.96994 8.85995 6.56994 9.24995 7.05994 9.73995C7.54994 10.23 7.92994 10.83 8.18994 11.52C8.44994 12.21 8.57994 12.98 8.57994 13.82C8.57994 14.66 8.44994 15.41 8.18994 16.11C7.92994 16.81 7.55994 17.39 7.05994 17.88C6.56994 18.37 5.95994 18.75 5.25994 19.01C4.55994 19.27 3.73994 19.42 2.83994 19.43H0.439941V8.19995ZM2.98994 17.64C3.54994 17.64 4.04994 17.55 4.49994 17.37C4.94994 17.19 5.33994 16.94 5.65994 16.61C5.97994 16.28 6.21994 15.88 6.38994 15.4C6.55994 14.93 6.63994 14.4 6.63994 13.82C6.63994 13.24 6.55994 12.7 6.38994 12.23C6.21994 11.76 5.97994 11.35 5.65994 11.02C5.33994 10.69 4.94994 10.43 4.49994 10.26C4.04994 10.08 3.53994 9.98995 2.98994 9.98995H2.43994V17.63H2.98994V17.64Z" fill="#EFEFEF"/>
<path d="M17.3899 17.1501C17.0199 18.0001 16.5099 18.6401 15.8399 19.0701C15.1699 19.5001 14.3699 19.7201 13.4199 19.7201C12.7499 19.7201 12.1399 19.6101 11.5999 19.3901C11.0599 19.1701 10.5999 18.8601 10.2299 18.4801C9.85993 18.1001 9.56993 17.6301 9.35993 17.1101C9.14993 16.5801 9.04993 16.0201 9.04993 15.4101C9.04993 14.8001 9.14993 14.2101 9.34993 13.6801C9.54993 13.1401 9.83993 12.6901 10.2099 12.3001C10.5799 11.9201 11.0299 11.6201 11.5599 11.4001C12.0899 11.1901 12.6799 11.0801 13.3299 11.0801C13.9799 11.0801 14.5499 11.1801 15.0799 11.3901C15.6099 11.6001 16.0599 11.8901 16.4299 12.2701C16.8099 12.6501 17.0999 13.1001 17.2999 13.6301C17.5099 14.1601 17.6099 14.7301 17.6099 15.3601C17.6099 15.4901 17.6099 15.6301 17.5899 15.8001C17.5699 15.9701 17.5599 16.0901 17.5299 16.1801H10.8199C10.8699 16.4701 10.9699 16.7401 11.1099 16.9801C11.2499 17.2201 11.4399 17.4301 11.6599 17.6001C11.8899 17.7701 12.1499 17.9101 12.4599 18.0101C12.7599 18.1101 13.0999 18.1601 13.4699 18.1601C13.6499 18.1601 13.8299 18.1401 14.0299 18.1101C14.2299 18.0801 14.4099 18.0201 14.5999 17.9401C14.7799 17.8701 14.9599 17.7701 15.1199 17.6401C15.2799 17.5101 15.4299 17.3601 15.5499 17.1701H17.3799L17.3899 17.1501ZM15.9899 14.8801C15.9599 14.5901 15.8799 14.3101 15.7499 14.0401C15.6199 13.7701 15.4499 13.5401 15.2399 13.3401C15.0199 13.1401 14.7599 12.9801 14.4599 12.8601C14.1599 12.7401 13.8099 12.6801 13.4199 12.6801C12.9799 12.6801 12.5999 12.7501 12.2799 12.8901C11.9599 13.0301 11.6899 13.2101 11.4799 13.4301C11.2699 13.6501 11.1099 13.8901 11.0199 14.1501C10.9199 14.4101 10.8699 14.6501 10.8699 14.8801H15.9899Z" fill="#EFEFEF"/>
<path d="M19.8299 16.9601C19.8599 17.2001 19.9399 17.4101 20.0599 17.5801C20.1799 17.7501 20.3299 17.8801 20.4899 17.9901C20.6599 18.0901 20.8399 18.1701 21.0399 18.2201C21.2399 18.2701 21.4499 18.2901 21.6699 18.2901C21.8699 18.2901 22.0699 18.2901 22.2799 18.2401C22.4899 18.2001 22.6799 18.1301 22.8599 18.0401C23.0399 17.9501 23.1899 17.8301 23.2999 17.6801C23.4199 17.5301 23.4699 17.3501 23.4699 17.1401C23.4599 16.8601 23.3199 16.6501 23.0499 16.5201C22.7799 16.4001 22.4499 16.2901 22.0399 16.2101C21.6399 16.1301 21.1999 16.0601 20.7399 15.9801C20.2799 15.9101 19.8499 15.7901 19.4499 15.6201C19.0499 15.4501 18.7199 15.2101 18.4599 14.9001C18.1999 14.5901 18.0699 14.1601 18.0799 13.6201C18.0799 13.1601 18.1899 12.7601 18.4099 12.4401C18.6299 12.1101 18.9099 11.8501 19.2399 11.6501C19.5799 11.4401 19.9499 11.3001 20.3699 11.2101C20.7899 11.1201 21.1899 11.0801 21.5799 11.0801C22.0999 11.0801 22.5799 11.1401 22.9999 11.2601C23.4199 11.3801 23.7799 11.5501 24.0899 11.7601C24.3999 11.9701 24.6399 12.2201 24.8399 12.5201C25.0299 12.8101 25.1699 13.1401 25.2599 13.5001H23.3799C23.3399 13.3101 23.2499 13.1501 23.1099 13.0301C22.9699 12.9101 22.8199 12.8101 22.6499 12.7301C22.4799 12.6601 22.3099 12.6101 22.1199 12.5801C21.9399 12.5501 21.7699 12.5401 21.6099 12.5401C21.4499 12.5401 21.2799 12.5401 21.0799 12.5701C20.8899 12.6001 20.6999 12.6601 20.5299 12.7401C20.3599 12.8201 20.2099 12.9301 20.0899 13.0601C19.9699 13.1901 19.9099 13.3501 19.9099 13.5401C19.9099 13.8101 20.0399 14.0101 20.2999 14.1501C20.5599 14.2801 20.8899 14.3901 21.2799 14.4701C21.6699 14.5501 22.0999 14.6201 22.5599 14.6901C23.0199 14.7601 23.4499 14.8801 23.8499 15.0501C24.2499 15.2201 24.5799 15.4501 24.8499 15.7501C25.1199 16.0501 25.2499 16.4701 25.2499 17.0001C25.2599 17.4901 25.1599 17.9101 24.9399 18.2601C24.7199 18.6101 24.4499 18.8901 24.1099 19.1101C23.7699 19.3301 23.3799 19.4901 22.9399 19.5901C22.4999 19.6901 22.0599 19.7401 21.6199 19.7401C21.0799 19.7401 20.5999 19.6701 20.1599 19.5301C19.7199 19.3901 19.3499 19.2001 19.0399 18.9601C18.7299 18.7201 18.4799 18.4301 18.2799 18.0801C18.0899 17.7401 17.9699 17.3701 17.9299 16.9701L19.8099 16.9901L19.8299 16.9601Z" fill="#EFEFEF"/>
<path d="M31.78 11.3901C32.32 11.6101 32.79 11.9101 33.17 12.2901C33.56 12.6701 33.86 13.1301 34.08 13.6601C34.29 14.1901 34.4 14.7701 34.4 15.4001V19.4301H32.54V18.4501C32.19 18.8801 31.78 19.2001 31.3 19.4001C30.82 19.6001 30.27 19.7101 29.65 19.7101C29.03 19.7101 28.5 19.6001 28 19.4001C27.5 19.1901 27.08 18.8901 26.72 18.5201C26.37 18.1401 26.09 17.6801 25.89 17.1501C25.69 16.6201 25.59 16.0301 25.59 15.4001C25.59 14.7701 25.7 14.1901 25.91 13.6601C26.12 13.1301 26.43 12.6701 26.82 12.2901C27.21 11.9101 27.67 11.6101 28.21 11.3901C28.75 11.1801 29.34 11.0701 29.99 11.0701C30.64 11.0701 31.24 11.1801 31.78 11.3901ZM29.03 13.0201C28.74 13.1501 28.48 13.3201 28.27 13.5601C28.05 13.7901 27.89 14.0601 27.77 14.3701C27.65 14.6801 27.6 15.0201 27.6 15.4001C27.6 15.7801 27.66 16.1101 27.77 16.4201C27.88 16.7301 28.05 17.0101 28.27 17.2301C28.48 17.4601 28.74 17.6301 29.03 17.7601C29.32 17.8801 29.65 17.9501 30.01 17.9501C30.37 17.9501 30.68 17.8901 30.97 17.7601C31.26 17.6301 31.52 17.4601 31.73 17.2401C31.94 17.0201 32.11 16.7501 32.23 16.4401C32.35 16.1301 32.41 15.7801 32.4 15.4001C32.41 15.0201 32.36 14.6801 32.24 14.3701C32.12 14.0601 31.96 13.7901 31.75 13.5601C31.54 13.3301 31.29 13.1501 30.99 13.0201C30.7 12.9001 30.37 12.8301 30.01 12.8301C29.65 12.8301 29.33 12.8901 29.03 13.0201Z" fill="#EFEFEF"/>
<path d="M34.86 11.3501H36.8V12.4201C37.02 12.0201 37.34 11.7401 37.77 11.5801C38.2 11.4201 38.65 11.3401 39.13 11.3401H40.19V13.1201H38.55C38.3 13.1201 38.07 13.1601 37.86 13.2401C37.66 13.3301 37.48 13.4501 37.32 13.6301C37.16 13.8101 37.05 14.0301 36.97 14.3001C36.89 14.5701 36.85 14.9001 36.85 15.2801V19.4201H34.85V11.3401L34.86 11.3501Z" fill="#EFEFEF"/>
<path d="M40.5799 11.3501H42.5199V12.4201C42.7399 12.0201 43.0599 11.7401 43.4899 11.5801C43.9199 11.4201 44.3699 11.3401 44.8499 11.3401H45.9099V13.1201H44.2699C44.0199 13.1201 43.7899 13.1601 43.5799 13.2401C43.3799 13.3301 43.1999 13.4501 43.0399 13.6301C42.8799 13.8101 42.7699 14.0301 42.6899 14.3001C42.6099 14.5701 42.5699 14.9001 42.5699 15.2801V19.4201H40.5699V11.3401L40.5799 11.3501Z" fill="#EFEFEF"/>
<path d="M54.22 17.1401C54 17.6701 53.7 18.1301 53.31 18.5101C52.92 18.8901 52.45 19.1901 51.92 19.4001C51.38 19.6101 50.79 19.7101 50.14 19.7101C49.49 19.7101 48.91 19.6001 48.37 19.4001C47.83 19.1901 47.36 18.8901 46.98 18.5101C46.6 18.1301 46.29 17.6701 46.07 17.1401C45.85 16.6101 45.75 16.0201 45.75 15.3801C45.75 14.7401 45.86 14.1701 46.08 13.6401C46.3 13.1101 46.6 12.6501 46.99 12.2701C47.37 11.8901 47.84 11.5901 48.38 11.3801C48.92 11.1701 49.51 11.0701 50.15 11.0701C50.79 11.0701 51.39 11.1801 51.93 11.3801C52.47 11.5901 52.93 11.8901 53.32 12.2701C53.71 12.6501 54.02 13.1101 54.23 13.6401C54.44 14.1701 54.55 14.7601 54.55 15.4001C54.55 16.0401 54.44 16.6101 54.23 17.1401H54.22ZM52.49 14.2901C52.36 13.9601 52.19 13.6701 51.96 13.4401C51.73 13.2101 51.46 13.0201 51.15 12.8801C50.84 12.7401 50.49 12.6701 50.13 12.6701C49.77 12.6701 49.42 12.7401 49.11 12.8801C48.79 13.0201 48.53 13.2001 48.31 13.4401C48.09 13.6801 47.92 13.9601 47.79 14.2901C47.66 14.6201 47.6 14.9901 47.6 15.3801C47.6 15.7701 47.66 16.1601 47.78 16.4801C47.9 16.8101 48.07 17.0901 48.3 17.3301C48.53 17.5701 48.8 17.7601 49.11 17.9001C49.42 18.0401 49.77 18.1101 50.13 18.1101C50.49 18.1101 50.84 18.0401 51.15 17.9001C51.47 17.7601 51.74 17.5801 51.96 17.3301C52.18 17.0801 52.36 16.8001 52.49 16.4801C52.62 16.1601 52.68 15.7901 52.68 15.3801C52.68 14.9701 52.62 14.6201 52.49 14.2901Z" fill="#EFEFEF"/>
<path d="M57.5399 19.44C57.1699 19.44 56.8299 19.38 56.5199 19.25C56.2099 19.12 55.9399 18.95 55.7199 18.71C55.4999 18.48 55.3299 18.2 55.2099 17.87C55.0899 17.54 55.0299 17.18 55.0299 16.77V8.19995H57.0299V16.19C57.0299 16.66 57.1299 17 57.3499 17.21C57.5599 17.42 57.8399 17.52 58.1799 17.52H58.9799V19.44H57.5299H57.5399Z" fill="#EFEFEF"/>
<path d="M61.88 19.44C61.51 19.44 61.17 19.38 60.86 19.25C60.55 19.12 60.28 18.95 60.06 18.71C59.84 18.48 59.67 18.2 59.55 17.87C59.43 17.54 59.37 17.18 59.37 16.77V8.19995H61.37V16.19C61.37 16.66 61.47 17 61.69 17.21C61.9 17.42 62.18 17.52 62.52 17.52H63.32V19.44H61.87H61.88Z" fill="#EFEFEF"/>
<path d="M72.0199 17.1401C71.7999 17.6701 71.4999 18.1301 71.1099 18.5101C70.7199 18.8901 70.2499 19.1901 69.7199 19.4001C69.1799 19.6101 68.5899 19.7101 67.9399 19.7101C67.2899 19.7101 66.7099 19.6001 66.1699 19.4001C65.6299 19.1901 65.1599 18.8901 64.7799 18.5101C64.3999 18.1301 64.0899 17.6701 63.8699 17.1401C63.6499 16.6101 63.5499 16.0201 63.5499 15.3801C63.5499 14.7401 63.6599 14.1701 63.8799 13.6401C64.0999 13.1101 64.3999 12.6501 64.7899 12.2701C65.1699 11.8901 65.6399 11.5901 66.1799 11.3801C66.7199 11.1701 67.3099 11.0701 67.9499 11.0701C68.5899 11.0701 69.1899 11.1801 69.7299 11.3801C70.2699 11.5901 70.7299 11.8901 71.1199 12.2701C71.5099 12.6501 71.8199 13.1101 72.0299 13.6401C72.2399 14.1701 72.3499 14.7601 72.3499 15.4001C72.3499 16.0401 72.2399 16.6101 72.0299 17.1401H72.0199ZM70.2999 14.2901C70.1699 13.9601 69.9999 13.6701 69.7699 13.4401C69.5399 13.2101 69.2699 13.0201 68.9599 12.8801C68.6499 12.7401 68.2999 12.6701 67.9399 12.6701C67.5799 12.6701 67.2299 12.7401 66.9199 12.8801C66.5999 13.0201 66.3399 13.2001 66.1199 13.4401C65.8999 13.6801 65.7299 13.9601 65.5999 14.2901C65.4699 14.6201 65.4099 14.9901 65.4099 15.3801C65.4099 15.7701 65.4699 16.1601 65.5899 16.4801C65.7099 16.8101 65.8799 17.0901 66.1099 17.3301C66.3399 17.5701 66.6099 17.7601 66.9199 17.9001C67.2299 18.0401 67.5799 18.1101 67.9399 18.1101C68.2999 18.1101 68.6499 18.0401 68.9599 17.9001C69.2799 17.7601 69.5499 17.5801 69.7699 17.3301C69.9899 17.0801 70.1699 16.8001 70.2999 16.4801C70.4299 16.1601 70.4899 15.7901 70.4899 15.3801C70.4899 14.9701 70.4299 14.6201 70.2999 14.2901Z" fill="#EFEFEF"/>
<path d="M76.3199 8.19995H83.9499V9.99995H78.3299V13.04H83.3199V14.71H78.3299V17.64H84.1099V19.44H76.3299V8.20995L76.3199 8.19995Z" fill="#EFEFEF"/>
<path d="M90.0299 11.2701C90.4599 11.4101 90.8399 11.6101 91.1999 11.8701C91.5499 12.1301 91.8499 12.4601 92.0999 12.8501C92.3499 13.2401 92.5299 13.6701 92.6599 14.1601H90.7999C90.7299 13.9201 90.6199 13.7101 90.4799 13.5301C90.3399 13.3501 90.1699 13.2001 89.9799 13.0901C89.7899 12.9701 89.5799 12.8801 89.3599 12.8201C89.1299 12.7601 88.8999 12.7201 88.6599 12.7201C88.2799 12.7201 87.9399 12.7901 87.6299 12.9301C87.3199 13.0701 87.0499 13.2501 86.8299 13.4801C86.5999 13.7101 86.4299 13.9901 86.3099 14.3101C86.1899 14.6301 86.1299 14.9701 86.1299 15.3301C86.1299 15.6901 86.1899 16.0501 86.3099 16.3801C86.4299 16.7101 86.5999 17.0001 86.8099 17.2501C87.0299 17.5001 87.2899 17.7001 87.5899 17.8501C87.8899 18.0001 88.2499 18.0801 88.6499 18.0801C88.8799 18.0801 89.1099 18.0501 89.3399 17.9901C89.5699 17.9301 89.7799 17.8401 89.9699 17.7201C90.1599 17.6001 90.3299 17.4601 90.4699 17.2701C90.6199 17.0901 90.7299 16.8801 90.8199 16.6301H92.6599C92.5599 17.1401 92.3799 17.6001 92.1399 17.9901C91.8999 18.3801 91.5999 18.7101 91.2499 18.9701C90.8999 19.2301 90.4999 19.4201 90.0499 19.5401C89.5999 19.6701 89.1299 19.7301 88.6199 19.7301C87.9799 19.7301 87.3899 19.6301 86.8599 19.4201C86.3299 19.2101 85.8599 18.9201 85.4799 18.5401C85.0999 18.1601 84.7999 17.7001 84.5799 17.1701C84.3599 16.6401 84.2599 16.0501 84.2599 15.4101C84.2599 14.7701 84.3699 14.1701 84.5799 13.6401C84.7899 13.1101 85.0999 12.6601 85.4899 12.2801C85.8799 11.9001 86.3399 11.6101 86.8799 11.4001C87.4199 11.1901 87.9999 11.0901 88.6399 11.0901C89.1399 11.0901 89.6099 11.1601 90.0299 11.3001V11.2701Z" fill="#EFEFEF"/>
<path d="M101.61 17.1401C101.39 17.6701 101.09 18.1301 100.7 18.5101C100.31 18.8901 99.8399 19.1901 99.3099 19.4001C98.7699 19.6101 98.1799 19.7101 97.5299 19.7101C96.8799 19.7101 96.2999 19.6001 95.7599 19.4001C95.2199 19.1901 94.7499 18.8901 94.3699 18.5101C93.9899 18.1301 93.6799 17.6701 93.4599 17.1401C93.2399 16.6101 93.1399 16.0201 93.1399 15.3801C93.1399 14.7401 93.2499 14.1701 93.4699 13.6401C93.6899 13.1101 93.9899 12.6501 94.3799 12.2701C94.7599 11.8901 95.2299 11.5901 95.7699 11.3801C96.3099 11.1701 96.8999 11.0701 97.5399 11.0701C98.1799 11.0701 98.7799 11.1801 99.3199 11.3801C99.8599 11.5901 100.32 11.8901 100.71 12.2701C101.1 12.6501 101.41 13.1101 101.62 13.6401C101.83 14.1701 101.94 14.7601 101.94 15.4001C101.94 16.0401 101.83 16.6101 101.62 17.1401H101.61ZM99.8899 14.2901C99.7599 13.9601 99.5899 13.6701 99.3599 13.4401C99.1299 13.2101 98.8599 13.0201 98.5499 12.8801C98.2399 12.7401 97.8899 12.6701 97.5299 12.6701C97.1699 12.6701 96.8199 12.7401 96.5099 12.8801C96.1899 13.0201 95.9299 13.2001 95.7099 13.4401C95.4899 13.6801 95.3199 13.9601 95.1899 14.2901C95.0599 14.6201 94.9999 14.9901 94.9999 15.3801C94.9999 15.7701 95.0599 16.1601 95.1799 16.4801C95.2999 16.8101 95.4699 17.0901 95.6999 17.3301C95.9299 17.5701 96.1999 17.7601 96.5099 17.9001C96.8199 18.0401 97.1699 18.1101 97.5299 18.1101C97.8899 18.1101 98.2399 18.0401 98.5499 17.9001C98.8699 17.7601 99.1399 17.5801 99.3599 17.3301C99.5799 17.0801 99.7599 16.8001 99.8899 16.4801C100.02 16.1601 100.08 15.7901 100.08 15.3801C100.08 14.9701 100.02 14.6201 99.8899 14.2901Z" fill="#EFEFEF"/>
<path d="M102.42 11.3501H104.41V12.3101C104.71 11.9301 105.11 11.6301 105.6 11.4101C106.09 11.1801 106.6 11.0701 107.12 11.0701C107.79 11.0701 108.38 11.2001 108.88 11.4601C109.38 11.7201 109.8 12.0701 110.13 12.5101C110.47 12.9501 110.72 13.4501 110.89 14.0201C111.06 14.5901 111.14 15.1801 111.14 15.7901V19.4301H109.19V15.9201C109.19 15.3901 109.13 14.9501 109 14.5701C108.87 14.1901 108.71 13.8901 108.5 13.6501C108.29 13.4101 108.05 13.2301 107.79 13.1201C107.53 13.0101 107.26 12.9501 106.99 12.9501C106.62 12.9501 106.28 13.0201 105.97 13.1501C105.66 13.2801 105.39 13.4801 105.16 13.7601C104.93 14.0301 104.75 14.3801 104.62 14.8101C104.49 15.2401 104.42 15.7401 104.42 16.3101V19.4301H102.43V11.3501H102.42Z" fill="#EFEFEF"/>
<path d="M120.09 17.14C119.88 17.67 119.57 18.13 119.18 18.51C118.79 18.89 118.32 19.19 117.79 19.4C117.25 19.61 116.66 19.71 116.01 19.71C115.36 19.71 114.78 19.6 114.24 19.4C113.7 19.19 113.23 18.89 112.85 18.51C112.46 18.13 112.16 17.67 111.94 17.14C111.72 16.61 111.62 16.02 111.62 15.38C111.62 14.74 111.73 14.17 111.95 13.64C112.17 13.11 112.47 12.65 112.86 12.27C113.24 11.89 113.7 11.59 114.25 11.38C114.79 11.17 115.38 11.07 116.02 11.07C116.66 11.07 117.27 11.18 117.8 11.38C118.34 11.59 118.8 11.89 119.19 12.27C119.58 12.65 119.89 13.11 120.1 13.64C120.32 14.17 120.42 14.76 120.42 15.4C120.42 16.04 120.31 16.61 120.1 17.14H120.09ZM118.37 14.29C118.24 13.96 118.07 13.67 117.84 13.44C117.61 13.21 117.34 13.02 117.03 12.88C116.72 12.74 116.37 12.67 116.01 12.67C115.65 12.67 115.3 12.74 114.99 12.88C114.67 13.02 114.41 13.2 114.19 13.44C113.97 13.68 113.8 13.96 113.67 14.29C113.54 14.62 113.48 14.99 113.48 15.38C113.48 15.77 113.54 16.16 113.66 16.48C113.78 16.81 113.95 17.09 114.18 17.33C114.41 17.57 114.68 17.76 114.99 17.9C115.3 18.04 115.65 18.11 116.01 18.11C116.37 18.11 116.72 18.04 117.03 17.9C117.35 17.76 117.62 17.58 117.84 17.33C118.06 17.08 118.24 16.8 118.37 16.48C118.5 16.16 118.56 15.79 118.56 15.38C118.56 14.97 118.5 14.62 118.37 14.29ZM117.08 7.76001H118.53L116.39 10.45H115.62L117.09 7.76001H117.08Z" fill="#EFEFEF"/>
<path d="M120.92 11.3501H122.92V12.0301C123.16 11.7401 123.48 11.5001 123.87 11.3401C124.26 11.1801 124.67 11.0901 125.12 11.0901C125.71 11.0901 126.24 11.2001 126.71 11.4401C127.18 11.6801 127.57 12.0601 127.86 12.5701C128.11 12.2701 128.38 12.0201 128.66 11.8201C128.94 11.6301 129.21 11.4801 129.48 11.3701C129.75 11.2701 130.01 11.1901 130.28 11.1501C130.54 11.1101 130.78 11.0901 131 11.0901C131.68 11.0901 132.26 11.2101 132.73 11.4501C133.2 11.6901 133.59 12.0001 133.88 12.4001C134.17 12.8001 134.39 13.2601 134.53 13.7901C134.67 14.3201 134.74 14.8701 134.74 15.4601V19.4501H132.77V15.4301C132.77 14.9401 132.71 14.5201 132.6 14.1901C132.49 13.8601 132.34 13.5901 132.16 13.3901C131.98 13.1801 131.77 13.0401 131.54 12.9601C131.31 12.8801 131.09 12.8401 130.86 12.8501C130.54 12.8501 130.26 12.9101 130.01 13.0301C129.76 13.1501 129.54 13.3201 129.36 13.5401C129.18 13.7601 129.05 14.0301 128.96 14.3401C128.87 14.6501 128.83 15.0101 128.83 15.3901V19.4401H126.88V15.3901C126.88 14.9201 126.82 14.5201 126.71 14.1901C126.59 13.8701 126.45 13.6001 126.27 13.4001C126.09 13.2001 125.89 13.0501 125.66 12.9701C125.43 12.8901 125.21 12.8501 124.97 12.8501C124.32 12.8501 123.82 13.0801 123.47 13.5401C123.12 14.0001 122.94 14.6201 122.94 15.4101V19.4601H120.94V11.3801L120.92 11.3501Z" fill="#EFEFEF"/>
<path d="M135.53 8.30998C135.75 8.08998 136.04 7.97998 136.4 7.97998C136.76 7.97998 137.05 8.08998 137.27 8.30998C137.49 8.52998 137.6 8.80998 137.6 9.14998C137.6 9.48998 137.49 9.76998 137.27 9.97998C137.05 10.2 136.76 10.31 136.4 10.31C136.04 10.31 135.75 10.2 135.53 9.97998C135.31 9.75998 135.2 9.47998 135.2 9.14998C135.2 8.81998 135.31 8.52998 135.53 8.30998ZM135.4 11.35H137.39V19.43H135.4V11.35Z" fill="#EFEFEF"/>
<path d="M143.82 11.2701C144.25 11.4101 144.63 11.6101 144.99 11.8701C145.34 12.1301 145.64 12.4601 145.89 12.8501C146.14 13.2401 146.32 13.6701 146.45 14.1601H144.59C144.52 13.9201 144.41 13.7101 144.27 13.5301C144.13 13.3501 143.96 13.2001 143.77 13.0901C143.58 12.9701 143.37 12.8801 143.15 12.8201C142.92 12.7601 142.69 12.7201 142.45 12.7201C142.07 12.7201 141.73 12.7901 141.42 12.9301C141.11 13.0701 140.84 13.2501 140.62 13.4801C140.39 13.7101 140.22 13.9901 140.1 14.3101C139.98 14.6301 139.92 14.9701 139.92 15.3301C139.92 15.6901 139.98 16.0501 140.1 16.3801C140.22 16.7101 140.39 17.0001 140.6 17.2501C140.81 17.5001 141.07 17.7001 141.38 17.8501C141.69 18.0001 142.04 18.0801 142.44 18.0801C142.67 18.0801 142.9 18.0501 143.13 17.9901C143.36 17.9301 143.57 17.8401 143.76 17.7201C143.95 17.6001 144.12 17.4601 144.26 17.2701C144.41 17.0901 144.52 16.8801 144.61 16.6301H146.45C146.34 17.1401 146.17 17.6001 145.93 17.9901C145.69 18.3801 145.39 18.7101 145.04 18.9701C144.69 19.2301 144.29 19.4201 143.84 19.5401C143.39 19.6701 142.92 19.7301 142.41 19.7301C141.77 19.7301 141.18 19.6301 140.65 19.4201C140.11 19.2101 139.65 18.9201 139.27 18.5401C138.89 18.1601 138.59 17.7001 138.37 17.1701C138.15 16.6401 138.05 16.0501 138.05 15.4101C138.05 14.7701 138.16 14.1701 138.37 13.6401C138.58 13.1101 138.89 12.6601 139.28 12.2801C139.67 11.9001 140.13 11.6101 140.67 11.4001C141.21 11.1901 141.79 11.0901 142.43 11.0901C142.93 11.0901 143.4 11.1601 143.82 11.3001V11.2701Z" fill="#EFEFEF"/>
<path d="M155.4 17.1401C155.19 17.6701 154.88 18.1301 154.49 18.5101C154.1 18.8901 153.63 19.1901 153.1 19.4001C152.56 19.6101 151.97 19.7101 151.32 19.7101C150.67 19.7101 150.09 19.6001 149.55 19.4001C149.01 19.1901 148.54 18.8901 148.16 18.5101C147.77 18.1301 147.47 17.6701 147.25 17.1401C147.03 16.6101 146.93 16.0201 146.93 15.3801C146.93 14.7401 147.04 14.1701 147.26 13.6401C147.48 13.1101 147.78 12.6501 148.17 12.2701C148.55 11.8901 149.01 11.5901 149.56 11.3801C150.1 11.1701 150.69 11.0701 151.33 11.0701C151.97 11.0701 152.58 11.1801 153.11 11.3801C153.65 11.5901 154.11 11.8901 154.5 12.2701C154.89 12.6501 155.2 13.1101 155.41 13.6401C155.63 14.1701 155.73 14.7601 155.73 15.4001C155.73 16.0401 155.62 16.6101 155.41 17.1401H155.4ZM153.68 14.2901C153.55 13.9601 153.38 13.6701 153.15 13.4401C152.92 13.2101 152.65 13.0201 152.34 12.8801C152.03 12.7401 151.68 12.6701 151.32 12.6701C150.96 12.6701 150.61 12.7401 150.3 12.8801C149.98 13.0201 149.72 13.2001 149.5 13.4401C149.28 13.6801 149.11 13.9601 148.98 14.2901C148.85 14.6201 148.79 14.9901 148.79 15.3801C148.79 15.7701 148.85 16.1601 148.97 16.4801C149.09 16.8101 149.26 17.0901 149.49 17.3301C149.72 17.5701 149.99 17.7601 150.3 17.9001C150.61 18.0401 150.96 18.1101 151.32 18.1101C151.68 18.1101 152.03 18.0401 152.34 17.9001C152.66 17.7601 152.93 17.5801 153.15 17.3301C153.37 17.0801 153.55 16.8001 153.68 16.4801C153.81 16.1601 153.87 15.7901 153.87 15.3801C153.87 14.9701 153.81 14.6201 153.68 14.2901Z" fill="#EFEFEF"/>
<path d="M2.40994 34.17C2.63994 34.17 2.84994 34.13 3.03994 34.06C3.22994 33.99 3.39994 33.88 3.55994 33.74C3.71994 33.6 3.86994 33.41 4.00994 33.19C4.14994 32.96 4.28994 32.7 4.40994 32.39L0.439941 24.26H2.57994L5.22994 29.9L7.33994 24.26H9.39994L6.19994 32.56C6.01994 33.03 5.81994 33.47 5.60994 33.88C5.39994 34.29 5.14994 34.65 4.88994 34.95C4.61994 35.25 4.32994 35.5 3.99994 35.67C3.66994 35.85 3.31994 35.94 2.92994 35.94H1.41994V34.16H2.40994V34.17Z" fill="#EFEFEF"/>
<path d="M19.08 20.9399L24.81 32.3499H22.6L21.75 30.6199H16.39L15.56 32.3499H13.35L19.07 20.9399H19.08ZM21.01 29.0999L19.07 25.1799L17.13 29.0999H21.01Z" fill="#EFEFEF"/>
<path d="M25.2699 34.25H28.6699C29.0099 34.25 29.3199 34.21 29.5999 34.13C29.8799 34.05 30.1299 33.93 30.3399 33.77C30.5499 33.61 30.7099 33.4 30.8199 33.14C30.9299 32.88 30.9899 32.57 30.9899 32.2V31.44C30.7299 31.76 30.3899 32.01 29.9699 32.21C29.5499 32.4 29.0099 32.5 28.3599 32.5C27.7599 32.5 27.2099 32.39 26.7099 32.19C26.2099 31.98 25.7799 31.68 25.4199 31.31C25.0599 30.93 24.7699 30.49 24.5699 29.97C24.3699 29.46 24.2599 28.9 24.2599 28.3C24.2599 27.67 24.3699 27.09 24.5899 26.57C24.8099 26.04 25.1099 25.59 25.4999 25.21C25.8899 24.83 26.3499 24.53 26.8899 24.32C27.4299 24.11 28.0199 24 28.6599 24C29.2999 24 29.8499 24.11 30.3899 24.32C30.9199 24.53 31.3799 24.83 31.7599 25.21C32.1399 25.59 32.4399 26.04 32.6599 26.57C32.8799 27.1 32.9799 27.67 32.9799 28.3V32.27C32.9799 32.84 32.8899 33.35 32.6999 33.81C32.5099 34.27 32.2499 34.66 31.8999 34.98C31.5499 35.3 31.1399 35.54 30.6599 35.71C30.1699 35.88 29.6199 35.96 29.0099 35.96H25.2599V34.26L25.2699 34.25ZM29.6499 30.66C29.9399 30.54 30.1999 30.36 30.4099 30.14C30.6199 29.92 30.7799 29.65 30.8899 29.34C30.9999 29.03 31.0599 28.69 31.0599 28.32C31.0599 27.95 30.9999 27.6 30.8899 27.28C30.7799 26.96 30.6199 26.69 30.3999 26.47C30.1799 26.25 29.9299 26.07 29.6399 25.94C29.3499 25.81 29.0199 25.75 28.6599 25.75C28.2999 25.75 27.9799 25.81 27.6899 25.94C27.3999 26.07 27.1499 26.24 26.9299 26.47C26.7099 26.7 26.5499 26.97 26.4299 27.28C26.3099 27.59 26.2599 27.94 26.2599 28.32C26.2599 28.68 26.3199 29.01 26.4399 29.32C26.5599 29.63 26.7299 29.9 26.9399 30.12C27.1499 30.34 27.4099 30.52 27.6999 30.65C27.9899 30.78 28.3099 30.84 28.6699 30.84C29.0299 30.84 29.3499 30.78 29.6499 30.65V30.66Z" fill="#EFEFEF"/>
<path d="M33.4599 24.26H35.4V25.33C35.62 24.93 35.9399 24.65 36.3699 24.5C36.7999 24.34 37.2499 24.26 37.7299 24.26H38.79V26.04H37.15C36.9 26.04 36.6699 26.08 36.4599 26.17C36.2599 26.25 36.0799 26.38 35.9199 26.56C35.7699 26.73 35.65 26.96 35.57 27.23C35.49 27.5 35.45 27.83 35.45 28.21V32.35H33.45V24.27L33.4599 24.26Z" fill="#EFEFEF"/>
<path d="M47.0999 30.05C46.8799 30.58 46.5799 31.04 46.1899 31.42C45.7999 31.8 45.3299 32.1 44.7999 32.31C44.2599 32.52 43.6699 32.62 43.0199 32.62C42.3699 32.62 41.7899 32.52 41.2499 32.31C40.7099 32.1 40.2399 31.8 39.8599 31.42C39.4699 31.04 39.1699 30.58 38.9499 30.05C38.7299 29.52 38.6299 28.93 38.6299 28.29C38.6299 27.65 38.7399 27.08 38.9599 26.55C39.1799 26.02 39.4799 25.56 39.8699 25.18C40.2499 24.8 40.7199 24.5 41.2599 24.29C41.7999 24.08 42.3899 23.98 43.0299 23.98C43.6699 23.98 44.2699 24.08 44.8099 24.29C45.3499 24.5 45.8099 24.8 46.1999 25.18C46.5899 25.56 46.8999 26.02 47.1099 26.55C47.3199 27.08 47.4299 27.67 47.4299 28.31C47.4299 28.95 47.3199 29.52 47.1099 30.05H47.0999ZM45.3699 27.2C45.2399 26.87 45.0699 26.59 44.8399 26.35C44.6099 26.11 44.3399 25.93 44.0299 25.79C43.7199 25.65 43.3699 25.58 43.0099 25.58C42.6499 25.58 42.2999 25.65 41.9899 25.79C41.6699 25.93 41.4099 26.11 41.1899 26.35C40.9699 26.59 40.7999 26.87 40.6699 27.2C40.5399 27.53 40.4799 27.9 40.4799 28.3C40.4799 28.7 40.5399 29.08 40.6599 29.4C40.7799 29.72 40.9499 30.01 41.1799 30.25C41.4099 30.49 41.6799 30.68 41.9899 30.82C42.2999 30.96 42.6499 31.03 43.0099 31.03C43.3699 31.03 43.7199 30.96 44.0299 30.82C44.3499 30.68 44.6199 30.49 44.8399 30.25C45.0699 30.01 45.2399 29.72 45.3699 29.4C45.4999 29.07 45.5599 28.71 45.5599 28.3C45.5599 27.89 45.4999 27.54 45.3699 27.2Z" fill="#EFEFEF"/>
<path d="M48.2199 21.2199C48.4399 20.9999 48.7299 20.8899 49.0899 20.8899C49.4499 20.8899 49.7399 20.9999 49.9599 21.2199C50.1799 21.4399 50.2899 21.7199 50.2899 22.0499C50.2899 22.3799 50.1799 22.6699 49.9599 22.8899C49.7399 23.1099 49.4499 23.2199 49.0899 23.2199C48.7299 23.2199 48.4399 23.1099 48.2199 22.8899C47.9999 22.6699 47.8899 22.3899 47.8899 22.0499C47.8899 21.7099 47.9999 21.4399 48.2199 21.2199ZM48.0999 24.2599H50.0799V32.3399H48.0999V24.2599Z" fill="#EFEFEF"/>
<path d="M50.7599 24.26H52.7499V25.22C53.0499 24.84 53.4499 24.54 53.9399 24.31C54.4299 24.08 54.9399 23.97 55.4599 23.97C56.1299 23.97 56.7199 24.1 57.2199 24.36C57.7199 24.62 58.1399 24.97 58.4699 25.41C58.8099 25.85 59.0599 26.35 59.2299 26.92C59.3999 27.49 59.4799 28.08 59.4799 28.69V32.33H57.5299V28.82C57.5299 28.29 57.4699 27.85 57.3399 27.47C57.2099 27.09 57.0499 26.79 56.8399 26.55C56.6299 26.31 56.3899 26.13 56.1299 26.02C55.8699 25.91 55.5999 25.86 55.3299 25.86C54.9599 25.86 54.6199 25.92 54.3099 26.06C53.9999 26.19 53.7299 26.39 53.4999 26.67C53.2699 26.94 53.0899 27.29 52.9599 27.72C52.8299 28.14 52.7599 28.65 52.7599 29.22V32.34H50.7699V24.26H50.7599Z" fill="#EFEFEF"/>
<path d="M68.6699 21.1101V28.5301C68.6699 29.1401 68.5599 29.6901 68.3499 30.1901C68.1299 30.6901 67.8399 31.1201 67.4599 31.4901C67.0799 31.8601 66.63 32.1401 66.11 32.3401C65.59 32.5401 65.0099 32.6401 64.3799 32.6401C63.7499 32.6401 63.16 32.5301 62.61 32.3201C62.06 32.1101 61.59 31.8001 61.2 31.4101C60.81 31.0201 60.4999 30.5601 60.2799 30.0401C60.0599 29.5201 59.95 28.9401 59.95 28.3101C59.95 27.6801 60.0499 27.1001 60.2599 26.5701C60.4699 26.0401 60.75 25.5801 61.11 25.2101C61.47 24.8301 61.9 24.5301 62.4 24.3101C62.9 24.0901 63.4499 23.9801 64.0599 23.9801C64.6099 23.9801 65.1 24.0801 65.54 24.2901C65.98 24.5001 66.3599 24.7801 66.6699 25.1401V21.1001H68.6699V21.1101ZM62.13 29.3401C62.25 29.6501 62.42 29.9201 62.63 30.1401C62.84 30.3701 63.0899 30.5401 63.3899 30.6701C63.6899 30.8001 64.01 30.8601 64.36 30.8601C64.71 30.8601 65.03 30.8001 65.32 30.6801C65.61 30.5601 65.87 30.3901 66.08 30.1701C66.29 29.9501 66.46 29.6801 66.58 29.3701C66.7 29.0501 66.75 28.7001 66.75 28.3101C66.76 27.9301 66.71 27.5901 66.58 27.2701C66.46 26.9501 66.29 26.6801 66.08 26.4601C65.87 26.2401 65.62 26.0601 65.32 25.9301C65.02 25.8001 64.6999 25.7401 64.3499 25.7401C63.9999 25.7401 63.68 25.8001 63.38 25.9301C63.08 26.0501 62.82 26.2301 62.61 26.4701C62.39 26.7001 62.23 26.9701 62.11 27.2801C61.99 27.5901 61.9399 27.9301 61.9399 28.3101C61.9399 28.6901 61.9999 29.0301 62.1199 29.3401H62.13Z" fill="#EFEFEF"/>
<path d="M77.8899 32.34H75.8899V31.41C75.5899 31.79 75.1899 32.09 74.6999 32.32C74.2099 32.55 73.6999 32.66 73.1799 32.66C72.5199 32.66 71.9399 32.53 71.4299 32.28C70.9199 32.03 70.5099 31.69 70.1799 31.26C69.8499 30.83 69.5999 30.33 69.4299 29.76C69.2599 29.19 69.1799 28.57 69.1799 27.91V24.26H71.1599V27.8C71.1599 28.34 71.2099 28.81 71.2999 29.21C71.3899 29.61 71.5299 29.95 71.7199 30.22C71.8999 30.49 72.1299 30.69 72.3999 30.83C72.6699 30.97 72.9699 31.04 73.3199 31.04C73.7199 31.04 74.0799 30.96 74.3899 30.8C74.7099 30.64 74.9699 30.4 75.1899 30.09C75.4099 29.78 75.5799 29.4 75.6899 28.95C75.8099 28.5 75.8599 27.98 75.8599 27.41V24.28H77.8799V32.36L77.8899 32.34Z" fill="#EFEFEF"/>
<path d="M80.0799 29.87C80.1099 30.11 80.1899 30.32 80.3099 30.48C80.4299 30.65 80.5799 30.78 80.7399 30.89C80.8999 31 81.0899 31.07 81.2899 31.12C81.4899 31.17 81.6999 31.19 81.9199 31.19C82.1199 31.2 82.3199 31.19 82.5299 31.14C82.7399 31.1 82.9299 31.03 83.1099 30.94C83.2899 30.85 83.4399 30.73 83.5499 30.58C83.6699 30.43 83.7199 30.25 83.7199 30.04C83.7099 29.76 83.5699 29.55 83.2999 29.43C83.0299 29.3 82.6999 29.2 82.2899 29.12C81.8899 29.04 81.4499 28.96 80.9899 28.89C80.5299 28.82 80.0999 28.69 79.6999 28.53C79.2999 28.36 78.9699 28.12 78.7099 27.81C78.4499 27.5 78.3199 27.07 78.3299 26.52C78.3299 26.06 78.4399 25.66 78.6599 25.34C78.8799 25.02 79.1599 24.75 79.4899 24.55C79.8299 24.34 80.1999 24.2 80.6199 24.11C81.0399 24.02 81.4399 23.98 81.8299 23.98C82.3499 23.98 82.8299 24.04 83.2499 24.16C83.6699 24.28 84.0299 24.45 84.3399 24.66C84.6399 24.87 84.8899 25.12 85.0899 25.42C85.2799 25.71 85.4199 26.04 85.5099 26.4H83.6299C83.5899 26.21 83.4999 26.05 83.3599 25.93C83.2199 25.8 83.0699 25.7 82.8999 25.63C82.7299 25.56 82.5599 25.51 82.3699 25.48C82.1899 25.45 82.0199 25.44 81.8599 25.44C81.6999 25.43 81.5299 25.44 81.3299 25.47C81.1299 25.5 80.9499 25.56 80.7799 25.64C80.6099 25.72 80.4599 25.83 80.3399 25.96C80.2199 26.09 80.1599 26.25 80.1599 26.44C80.1599 26.71 80.2899 26.91 80.5499 27.05C80.8099 27.18 81.1399 27.29 81.5299 27.36C81.9199 27.44 82.3499 27.51 82.8099 27.58C83.2699 27.65 83.6999 27.77 84.0999 27.93C84.4999 28.1 84.8299 28.33 85.0999 28.63C85.3699 28.93 85.4999 29.35 85.4999 29.88C85.5099 30.37 85.4099 30.79 85.1899 31.14C84.9699 31.49 84.6999 31.77 84.3599 31.99C84.0199 32.21 83.6299 32.37 83.1899 32.47C82.7499 32.57 82.3099 32.62 81.8699 32.62C81.3299 32.62 80.8499 32.55 80.4099 32.41C79.9699 32.27 79.5999 32.08 79.2899 31.83C78.9799 31.59 78.7299 31.3 78.5299 30.95C78.3399 30.61 78.2199 30.24 78.1799 29.84L80.0599 29.86L80.0799 29.87Z" fill="#EFEFEF"/>
<path d="M85.86 21.1101H87.86V24.2601H90.03V25.9901H87.86V29.4901C87.86 29.8301 87.95 30.0901 88.14 30.2701C88.32 30.4601 88.59 30.5501 88.94 30.5501H90.04V32.3401H88.29C87.92 32.3401 87.59 32.2801 87.3 32.1501C87.01 32.0301 86.75 31.8401 86.54 31.6001C86.32 31.3601 86.16 31.0701 86.04 30.7301C85.92 30.3901 85.87 30.0201 85.87 29.6101V21.1001L85.86 21.1101Z" fill="#EFEFEF"/>
<path d="M90.4299 24.26H92.3699V25.33C92.5899 24.93 92.9099 24.65 93.3399 24.5C93.7699 24.34 94.2199 24.26 94.6999 24.26H95.7599V26.04H94.1199C93.8699 26.04 93.6399 26.08 93.4299 26.17C93.2299 26.25 93.0499 26.38 92.8899 26.56C92.7399 26.73 92.6199 26.96 92.5399 27.23C92.4599 27.5 92.4199 27.83 92.4199 28.21V32.35H90.4199V24.27L90.4299 24.26Z" fill="#EFEFEF"/>
<path d="M96.4799 21.2199C96.6999 20.9999 96.9899 20.8899 97.3499 20.8899C97.7099 20.8899 97.9999 20.9999 98.2199 21.2199C98.4399 21.4399 98.5499 21.7199 98.5499 22.0499C98.5499 22.3799 98.4399 22.6699 98.2199 22.8899C97.9999 23.1099 97.7099 23.2199 97.3499 23.2199C96.9899 23.2199 96.6999 23.1099 96.4799 22.8899C96.2599 22.6699 96.1499 22.3899 96.1499 22.0499C96.1499 21.7099 96.2599 21.4399 96.4799 21.2199ZM96.3599 24.2599H98.3399V32.3399H96.3599V24.2599Z" fill="#EFEFEF"/>
<path d="M105.19 24.3C105.73 24.51 106.2 24.82 106.58 25.2C106.96 25.58 107.27 26.04 107.49 26.57C107.7 27.1 107.81 27.68 107.81 28.31V32.34H105.95V31.36C105.6 31.79 105.19 32.11 104.71 32.31C104.23 32.51 103.67 32.62 103.06 32.62C102.45 32.62 101.91 32.52 101.41 32.31C100.91 32.1 100.49 31.81 100.13 31.43C99.78 31.05 99.5 30.6 99.3 30.06C99.1 29.52 99 28.94 99 28.31C99 27.68 99.11 27.1 99.32 26.57C99.53 26.04 99.84 25.58 100.23 25.2C100.62 24.82 101.08 24.52 101.62 24.3C102.16 24.08 102.75 23.98 103.4 23.98C104.05 23.98 104.65 24.09 105.19 24.3ZM102.44 25.93C102.15 26.05 101.89 26.23 101.68 26.47C101.46 26.7 101.3 26.97 101.18 27.28C101.06 27.59 101.01 27.93 101.01 28.31C101.01 28.69 101.07 29.02 101.18 29.33C101.3 29.65 101.46 29.92 101.68 30.14C101.89 30.37 102.15 30.54 102.44 30.67C102.73 30.8 103.06 30.86 103.42 30.86C103.78 30.86 104.09 30.8 104.38 30.67C104.67 30.55 104.92 30.37 105.14 30.15C105.35 29.93 105.52 29.66 105.64 29.35C105.76 29.04 105.82 28.69 105.81 28.31C105.81 27.93 105.77 27.59 105.65 27.28C105.53 26.97 105.37 26.7 105.16 26.47C104.95 26.24 104.7 26.06 104.4 25.93C104.11 25.8 103.78 25.74 103.42 25.74C103.06 25.74 102.74 25.8 102.44 25.93Z" fill="#EFEFEF"/>
<path d="M110.79 32.3401C110.42 32.3401 110.08 32.2801 109.77 32.1501C109.46 32.0301 109.19 31.8501 108.97 31.6101C108.75 31.3801 108.58 31.1001 108.46 30.7801C108.34 30.4501 108.28 30.0901 108.28 29.6801V21.1101H110.28V29.1001C110.28 29.5701 110.39 29.9101 110.6 30.1201C110.81 30.3301 111.09 30.4301 111.43 30.4301H112.23V32.3501H110.78L110.79 32.3401Z" fill="#EFEFEF"/>
</g>
<defs>
<clipPath id="clip0_85_82">
<rect width="155.73" height="35.95" fill="white"/>
</clipPath>
</defs>
</svg>
