<?xml version="1.0" encoding="UTF-8"?>
<svg version="1.1" xmlns="http://www.w3.org/2000/svg" width="187" height="54">
<path d="M0 0 C15.51 0 31.02 0 47 0 C47 4.95 47 9.9 47 15 C48.32 15 49.64 15 51 15 C51.33 11.04 51.66 7.08 52 3 C51.34 3 50.68 3 50 3 C50 2.01 50 1.02 50 0 C54.62 0 59.24 0 64 0 C63.67 5.28 63.34 10.56 63 16 C64.32 16 65.64 16 67 16 C67.33 15.01 67.66 14.02 68 13 C68.99 13 69.98 13 71 13 C73.20536179 8.9728176 74.45660208 5.56454251 75 1 C77.475 0.505 77.475 0.505 80 0 C86 11.73786408 86 11.73786408 86 16 C86.99 16 87.98 16 89 16 C89 11.71 89 7.42 89 3 C88.34 3 87.68 3 87 3 C87 2.01 87 1.02 87 0 C89.10388569 -0.05402274 91.20816714 -0.09280256 93.3125 -0.125 C95.07013672 -0.15980469 95.07013672 -0.15980469 96.86328125 -0.1953125 C100 0 100 0 103 2 C103.3125 5.5 103.3125 5.5 103 9 C102.34 9.66 101.68 10.32 101 11 C101.99 13.475 101.99 13.475 103 16 C103.66 16 104.32 16 105 16 C105 16.99 105 17.98 105 19 C101.6875 19.3125 101.6875 19.3125 98 19 C96.0625 16.5 96.0625 16.5 95 14 C95.495 16.475 95.495 16.475 96 19 C90.39 19 84.78 19 79 19 C79.33 17.35 79.66 15.7 80 14 C78.35 14 76.7 14 75 14 C75.495 16.475 75.495 16.475 76 19 C69.4 19 62.8 19 56 19 C56.33 13.72 56.66 8.44 57 3 C56.34 3 55.68 3 55 3 C55.05800781 3.97582031 55.11601563 4.95164062 55.17578125 5.95703125 C55.22089844 7.22933594 55.26601562 8.50164063 55.3125 9.8125 C55.37050781 11.07707031 55.42851563 12.34164063 55.48828125 13.64453125 C55 17 55 17 52.70703125 18.953125 C49.03338534 20.37381346 46.76768512 20.0465792 43 19 C40.60557609 16.64961147 40.034215 15.35218639 39.70703125 11.984375 C39.74183594 10.91703125 39.77664062 9.8496875 39.8125 8.75 C39.85310547 7.13351563 39.85310547 7.13351563 39.89453125 5.484375 C39.92933594 4.66453125 39.96414062 3.8446875 40 3 C38.02 3 36.04 3 34 3 C34.14109986 5.10448938 34.28804175 7.2085877 34.4375 9.3125 C34.51871094 10.48425781 34.59992188 11.65601563 34.68359375 12.86328125 C34.8867371 16.02590958 34.8867371 16.02590958 36 19 C33.03 19 30.06 19 27 19 C27.33 18.01 27.66 17.02 28 16 C28.22451458 13.77425665 28.40782878 11.54418481 28.5625 9.3125 C28.64628906 8.13300781 28.73007813 6.95351563 28.81640625 5.73828125 C28.90728516 4.38283203 28.90728516 4.38283203 29 3 C27.02 3 25.04 3 23 3 C23.495 10.92 23.495 10.92 24 19 C21.36 19 18.72 19 16 19 C16.33 13.72 16.66 8.44 17 3 C15.02 3 13.04 3 11 3 C11.33 8.28 11.66 13.56 12 19 C9.03 19 6.06 19 3 19 C3.33 18.01 3.66 17.02 4 16 C4.22451458 13.77425665 4.40782878 11.54418481 4.5625 9.3125 C4.64628906 8.13300781 4.73007812 6.95351563 4.81640625 5.73828125 C4.87699219 4.83464844 4.93757813 3.93101563 5 3 C3.35 3 1.7 3 0 3 C0 2.01 0 1.02 0 0 Z M94 3 C94 4.65 94 6.3 94 8 C94.99 8 95.98 8 97 8 C96.67 6.35 96.34 4.7 96 3 C95.34 3 94.68 3 94 3 Z M77 9 C76.67 9.66 76.34 10.32 76 11 C76.66 11 77.32 11 78 11 C77.67 10.34 77.34 9.68 77 9 Z " fill="#FFFFFF" transform="translate(58,16)"/>
<path d="M0 0 C2.73928833 -0.37752342 2.73928833 -0.37752342 6.30126953 -0.38095093 C6.95493563 -0.3856309 7.60860172 -0.39031087 8.28207588 -0.39513266 C10.48252501 -0.40714293 12.68235824 -0.39760252 14.8828125 -0.38818359 C16.45620082 -0.39224664 18.02958628 -0.39758701 19.60296631 -0.40411377 C23.88390813 -0.41782504 28.16463378 -0.41247311 32.44557953 -0.40297651 C36.91831561 -0.39539957 41.39103275 -0.40242004 45.86376953 -0.40713501 C53.37601049 -0.41259832 60.88816307 -0.40538591 68.40039062 -0.39111328 C77.09484248 -0.37478565 85.78908331 -0.38007375 94.48353004 -0.3965925 C101.9383354 -0.41019103 109.39307711 -0.41213504 116.84789085 -0.40427649 C121.30473669 -0.39959096 125.76148323 -0.39899917 130.21832275 -0.40888596 C134.40769618 -0.41752967 138.59679662 -0.41158158 142.78614044 -0.39420319 C144.32690222 -0.39022439 145.86768684 -0.39139607 147.40843964 -0.39799118 C149.50551713 -0.40614239 151.60170995 -0.3959647 153.69873047 -0.38095093 C155.46191116 -0.37925431 155.46191116 -0.37925431 157.26071167 -0.37752342 C158.16467682 -0.25294069 159.06864197 -0.12835796 160 0 C163.10693214 4.66039821 162.3285338 9.45714721 162.3125 14.9375 C162.32861328 16.03513672 162.34472656 17.13277344 162.36132812 18.26367188 C162.36197266 19.32005859 162.36261719 20.37644531 162.36328125 21.46484375 C162.36626221 22.430271 162.36924316 23.39569824 162.37231445 24.39038086 C161.92045652 27.55753459 161.25972409 28.74205399 159 31 C156.19010258 31.50336456 156.19010258 31.50336456 152.70582581 31.50793457 C151.38646027 31.51921387 150.06709473 31.53049316 148.70774841 31.54211426 C147.24209376 31.53433668 145.77644127 31.52614398 144.31079102 31.51757812 C142.77005348 31.5229972 141.22932113 31.53011865 139.68859863 31.53881836 C135.50049597 31.55708198 131.31278665 31.54997143 127.12467694 31.53730202 C122.74496717 31.52718817 118.36529151 31.53656336 113.98558044 31.54284668 C106.62891584 31.55012858 99.27241173 31.540522 91.91577148 31.52148438 C83.40816391 31.49972261 74.90093985 31.50675965 66.3933416 31.52879 C59.0930333 31.54693823 51.79284051 31.54950492 44.49251693 31.53903532 C40.13060879 31.53279615 35.76888093 31.53197615 31.40698433 31.54518127 C27.3053326 31.55673055 23.20417547 31.54873133 19.10257721 31.52560425 C17.59652211 31.52031181 16.09042543 31.52184012 14.58438683 31.53065491 C12.52941397 31.54157422 10.47602926 31.52789401 8.42115784 31.50793457 C7.27096948 31.50642647 6.12078112 31.50491837 4.93573856 31.50336456 C1.3600527 30.89027402 0.17825837 29.84992082 -2 27 C-2.48583984 24.39038086 -2.48583984 24.39038086 -2.4609375 21.46484375 C-2.45707031 20.40845703 -2.45320312 19.35207031 -2.44921875 18.26367188 C-2.42472656 17.16603516 -2.40023438 16.06839844 -2.375 14.9375 C-2.37371094 13.83599609 -2.37242188 12.73449219 -2.37109375 11.59960938 C-2.28117236 3.42175854 -2.28117236 3.42175854 0 0 Z M1 2 C-0.93940303 5.87880605 -0.22841185 10.67114136 -0.25 14.9375 C-0.270625 15.95263672 -0.29125 16.96777344 -0.3125 18.01367188 C-0.31765625 18.98755859 -0.3228125 19.96144531 -0.328125 20.96484375 C-0.3374707 21.8580835 -0.34681641 22.75132324 -0.35644531 23.67163086 C0.08887123 26.58052391 0.64693359 27.26046919 3 29 C5.86554865 29.45417121 5.86554865 29.45417121 9.18701172 29.38095093 C10.48257996 29.3894104 11.77814819 29.39786987 13.11297607 29.40658569 C14.55188113 29.40075257 15.99078496 29.39460805 17.4296875 29.38818359 C18.9424884 29.39224792 20.45528633 29.39758902 21.96807861 29.40411377 C26.07961532 29.4178098 30.19092661 29.41247937 34.30246735 29.40297651 C38.60122799 29.39539172 42.89996908 29.40242223 47.19873047 29.40713501 C54.41832959 29.41259601 61.63783671 29.40539193 68.85742188 29.39111328 C77.2093512 29.37478608 85.56106084 29.38007435 93.91298485 29.3965925 C101.07823253 29.41019757 108.243414 29.41213183 115.40867043 29.40427649 C119.69059476 29.39959457 123.97241576 29.39898931 128.2543335 29.40888596 C132.2795721 29.41753915 136.30452692 29.41156411 140.3297348 29.39420319 C141.80880003 29.39022949 143.28788906 29.39138745 144.76694489 29.39799118 C146.78228413 29.40616109 148.79767544 29.39411001 150.81298828 29.38095093 C152.50646896 29.37925431 152.50646896 29.37925431 154.23416138 29.37752342 C157.00875819 29.22430992 157.00875819 29.22430992 158.8644104 27.62171364 C160.45610827 25.34864056 160.35696512 23.72131284 160.328125 20.96484375 C160.32039063 19.50401367 160.32039063 19.50401367 160.3125 18.01367188 C160.2815625 16.4909668 160.2815625 16.4909668 160.25 14.9375 C160.24226563 13.40899414 160.24226563 13.40899414 160.234375 11.84960938 C160.38597959 6.76005233 160.38597959 6.76005233 159 2 C106.86 2 54.72 2 1 2 Z " fill="#FFFFFF" transform="translate(13,11)"/>
<path d="M0 0 C4.62 0 9.24 0 14 0 C14 1.98 14 3.96 14 6 C13.01 6 12.02 6 11 6 C11 8.31 11 10.62 11 13 C10.01 12.67 9.02 12.34 8 12 C7.67 13.32 7.34 14.64 7 16 C8.97536745 15.65213292 8.97536745 15.65213292 11 15 C11.33 14.34 11.66 13.68 12 13 C12.99 13 13.98 13 15 13 C15 8.71 15 4.42 15 0 C17.64 0 20.28 0 23 0 C22.67 5.28 22.34 10.56 22 16 C22.99 15.67 23.98 15.34 25 15 C25.33 14.34 25.66 13.68 26 13 C26.99 13 27.98 13 29 13 C29 14.98 29 16.96 29 19 C19.43 19 9.86 19 0 19 C0 12.73 0 6.46 0 0 Z M7 3 C7 4.65 7 6.3 7 8 C8.32 7.34 9.64 6.68 11 6 C10.67 5.01 10.34 4.02 10 3 C9.01 3 8.02 3 7 3 Z " fill="#FFFFFF" transform="translate(23,16)"/>
</svg>
