<svg width="85" height="22" viewBox="0 0 85 22" fill="none" xmlns="http://www.w3.org/2000/svg">
<g clip-path="url(#clip0_78_2)">
<path d="M47.74 6.89C47.74 4.42 47.78 2.13 47.91 0L41.41 1.23V1.83L42.05 1.92C42.52 1.96 42.82 2.13 42.99 2.39C43.16 2.69 43.29 3.11 43.37 3.75C43.46 4.98 43.54 7.79 43.5 12.21C43.5 16.59 43.46 19.35 43.37 20.42C45.71 20.93 47.54 21.14 48.9 21.14C51.45 21.14 53.45 20.42 54.89 18.93C56.34 17.48 57.1 15.44 57.1 12.94C57.1 10.94 56.55 9.28 55.44 7.97C54.33 6.65 52.93 6.01 51.27 6.01C50.16 6.01 49.02 6.31 47.74 6.9V6.89ZM47.87 19.98C47.78 18.62 47.7 14.54 47.7 7.86C48.08 7.73 48.59 7.65 49.23 7.65C50.25 7.65 51.06 8.16 51.65 9.22C52.24 10.28 52.54 11.56 52.54 13.17C52.54 15.17 52.2 16.78 51.52 18.14C50.84 19.46 49.99 20.14 48.93 20.14C48.59 20.05 48.25 20.01 47.87 19.97V19.98ZM17.01 0.43H0V1.28L0.89 1.37C1.57 1.5 2.04 1.75 2.34 2.14C2.64 2.57 2.81 3.25 2.85 4.18C3.19 8.77 3.19 13.07 2.85 17.02C2.76 17.96 2.59 18.64 2.34 19.06C2.04 19.49 1.57 19.74 0.89 19.83L0 19.96V20.81H10.97V19.96L9.82 19.87C9.14 19.78 8.67 19.49 8.37 19.1C8.07 18.67 7.9 17.99 7.86 17.06C7.73 15.36 7.65 13.4 7.65 11.24L9.95 11.28C11.18 11.32 12.03 12.26 12.46 14.13H13.31V7.2H12.46C12.03 9.03 11.23 9.96 9.95 10.01L7.65 10.05C7.65 6.22 7.74 3.5 7.86 1.84H11.22C13.6 1.84 15.22 3.37 16.15 6.43L17.17 6.13L17 0.43H17.01ZM15.01 13.52C15.01 15.73 15.65 17.56 16.88 19C18.11 20.45 19.94 21.13 22.24 21.13C24.54 21.13 26.41 20.41 27.77 18.92C29.13 17.47 29.77 15.65 29.77 13.44C29.77 11.23 29.13 9.4 27.9 7.96C26.67 6.51 24.84 5.83 22.54 5.83C20.24 5.83 18.37 6.55 17.01 8.04C15.65 9.49 15.01 11.31 15.01 13.52ZM24.49 8.67C25 9.9 25.21 11.52 25.21 13.47C25.21 17.98 24.27 20.19 22.45 20.19C21.51 20.19 20.79 19.55 20.28 18.28C19.77 17 19.56 15.39 19.56 13.48C19.56 9.02 20.5 6.81 22.32 6.81C23.26 6.77 23.98 7.41 24.49 8.68V8.67ZM60.41 19C61.81 20.4 63.6 21.13 65.72 21.13C67.04 21.13 68.19 20.87 69.21 20.32C70.23 19.81 71.04 19.17 71.59 18.41L71.16 17.9C70.22 18.62 69.16 18.96 67.93 18.96C66.23 18.96 64.91 18.41 64.02 17.26C63.08 16.11 62.66 14.67 62.74 12.8H71.84C71.84 10.76 71.33 9.1 70.27 7.78C69.21 6.5 67.72 5.87 65.81 5.87C63.43 5.87 61.6 6.64 60.28 8.12C58.96 9.61 58.32 11.44 58.32 13.6C58.32 15.76 59 17.6 60.4 19H60.41ZM63.56 8.33C64.03 7.31 64.62 6.8 65.43 6.8C66.71 6.8 67.34 8.42 67.34 11.69L62.83 11.78C62.87 10.5 63.09 9.36 63.55 8.34L63.56 8.33ZM83.28 6.63C82.13 6.12 80.69 5.82 78.94 5.82C77.19 5.82 75.75 6.29 74.69 7.18C73.63 8.07 73.07 9.18 73.07 10.5C73.07 11.65 73.41 12.54 74.05 13.18C74.69 13.82 75.71 14.37 77.03 14.84C78.22 15.27 79.07 15.69 79.5 16.07C79.93 16.5 80.18 16.96 80.18 17.6C80.18 18.2 79.97 18.75 79.5 19.17C79.07 19.64 78.48 19.85 77.71 19.85C75.84 19.85 74.44 18.49 73.46 15.77L72.74 15.98L72.91 20.23C74.44 20.83 76.14 21.12 78.01 21.12C79.88 21.12 81.45 20.69 82.56 19.8C83.67 18.95 84.22 17.72 84.22 16.19C84.22 15.17 83.96 14.32 83.41 13.68C82.86 13.04 81.96 12.49 80.69 11.98C79.29 11.47 78.31 11 77.8 10.58C77.29 10.16 77.03 9.64 77.03 9.01C77.03 8.38 77.2 7.86 77.58 7.44C77.96 7.02 78.43 6.84 79.03 6.84C80.73 6.84 81.96 8.07 82.73 10.5L83.45 10.29L83.28 6.63ZM42.39 6.25C41.79 5.95 41.16 5.82 40.43 5.82C39.7 5.82 38.98 6.12 38.18 6.71C37.38 7.3 36.78 8.11 36.31 9.22L36.35 5.82L29.89 7.1V7.7L30.53 7.74C31.34 7.83 31.81 8.46 31.89 9.61C32.15 12.25 32.15 15.05 31.89 18.03C31.8 19.18 31.34 19.77 30.53 19.9L29.89 19.99V20.8H38.9V19.99L37.75 19.9C36.94 19.81 36.47 19.18 36.39 18.03C36.13 15.56 36.09 12.93 36.3 10.21C36.56 9.78 37.11 9.53 37.96 9.44C38.81 9.35 39.79 9.61 40.81 10.21L42.38 6.26L42.39 6.25Z" fill="white"/>
</g>
<defs>
<clipPath id="clip0_78_2">
<rect width="84.22" height="21.13" fill="white"/>
</clipPath>
</defs>
</svg>
