<?xml version="1.0" encoding="UTF-8"?>
<svg version="1.1" xmlns="http://www.w3.org/2000/svg" width="127" height="53">
<path d="M0 0 C4.92265695 2.2855193 7.81049249 5.71694706 11 10 C12.94926781 15.84780342 12.78007493 22.52211492 10.9375 28.375 C8.01849386 32.32978251 4.42775638 35.78612181 0 38 C-7.72557133 38.87563864 -13.92943109 38.75175275 -20.1875 33.828125 C-24.52584186 29.45238364 -26.18974542 25.12987829 -26.5 19 C-26.18974542 12.87012171 -24.52584186 8.54761636 -20.1875 4.171875 C-13.96548149 -0.72338957 -7.68858812 -1.17817202 0 0 Z M2 12 C0.90341064 15.28976808 1.20046862 16.71303767 2 20 C2.66 20 3.32 20 4 20 C4.16681109 17.08347826 4.16681109 17.08347826 4 14 C3.34 13.34 2.68 12.68 2 12 Z M-16 13 C-18.36980013 15.95377498 -18.36980013 15.95377498 -18 20 C-17.34 20 -16.68 20 -16 20 C-15.34 17.69 -14.68 15.38 -14 13 C-14.66 13 -15.32 13 -16 13 Z M-9 13 C-7.11683841 14.10836423 -7.11683841 14.10836423 -5 15 C-4.34 14.67 -3.68 14.34 -3 14 C-4.06645115 12.70366379 -4.06645115 12.70366379 -6.5625 12.9375 C-7.366875 12.958125 -8.17125 12.97875 -9 13 Z M-13 18 C-12 21 -12 21 -12 21 Z M-9 24 C-9 24.33 -9 24.66 -9 25 C-7.35 25 -5.7 25 -4 25 C-4 24.67 -4 24.34 -4 24 C-5.65 24 -7.3 24 -9 24 Z " fill="#FFFFFF" transform="translate(31,8)"/>
<path d="M0 0 C0.66 1.32 1.32 2.64 2 4 C-0.89234315 4.82638376 -2.88742431 5 -6 5 C-6 6.32 -6 7.64 -6 9 C-3.69 9 -1.38 9 1 9 C1.28875 8.2575 1.5775 7.515 1.875 6.75 C2.82302644 4.43260203 3.84845911 2.22082885 5 0 C6.65 0 8.3 0 10 0 C10 1.32 10 2.64 10 4 C12.72529889 4 15.40967841 3.7310912 18.125 3.5 C19.22070312 3.4071875 20.31640625 3.314375 21.4453125 3.21875 C22.28835937 3.1465625 23.13140625 3.074375 24 3 C24.33 2.01 24.66 1.02 25 0 C26.32 0 27.64 0 29 0 C29.495 1.98 29.495 1.98 30 4 C30.7425 3.773125 31.485 3.54625 32.25 3.3125 C35 3 35 3 37.3125 4.0625 C39 6 39 6 39.375 9.0625 C39 12 39 12 37 14 C34 14.125 34 14.125 31 14 C29.63521541 14 28.27026567 14.024506 26.90625 14.0703125 C26.1121875 14.08835937 25.318125 14.10640625 24.5 14.125 C23.7059375 14.14820313 22.911875 14.17140625 22.09375 14.1953125 C20 14 20 14 18 12 C18 10.68 18 9.36 18 8 C17.34 8 16.68 8 16 8 C16 9.98 16 11.96 16 14 C15.195625 13.814375 14.39125 13.62875 13.5625 13.4375 C12.2940625 13.2209375 12.2940625 13.2209375 11 13 C10.67 13.33 10.34 13.66 10 14 C6.63370749 14.14636054 4.21580438 14.07193479 1 13 C0.01 13.495 0.01 13.495 -1 14 C-4.19200721 14.27756584 -6.4070908 14.24964598 -9.375 13 C-11.57707902 10.2897489 -11.51582761 8.29121883 -11.30859375 4.875 C-11 3 -11 3 -10 1 C-6.72032242 -0.63983879 -3.62861311 -0.17845638 0 0 Z M6 7 C5.67 7.99 5.34 8.98 5 10 C5.99 10 6.98 10 8 10 C7.67 9.01 7.34 8.02 7 7 C6.67 7 6.34 7 6 7 Z M23 7 C23 8.32 23 9.64 23 11 C23.66 10.01 24.32 9.02 25 8 C24.34 7.67 23.68 7.34 23 7 Z M34 7 C33.34 7.66 32.68 8.32 32 9 C32.99 9.33 33.98 9.66 35 10 C34.67 9.01 34.34 8.02 34 7 Z " fill="#FFFFFF" transform="translate(59,18)"/>
<path d="M0 0 C1.2065625 0.0309375 1.2065625 0.0309375 2.4375 0.0625 C2.7675 1.0525 3.0975 2.0425 3.4375 3.0625 C2.1175 3.3925 0.7975 3.7225 -0.5625 4.0625 C1.0875 4.0625 2.7375 4.0625 4.4375 4.0625 C4.4375 3.4025 4.4375 2.7425 4.4375 2.0625 C6.0875 2.0625 7.7375 2.0625 9.4375 2.0625 C9.4375 1.4025 9.4375 0.7425 9.4375 0.0625 C10.0975 0.0625 10.7575 0.0625 11.4375 0.0625 C11.4375 0.7225 11.4375 1.3825 11.4375 2.0625 C21.0075 2.0625 30.5775 2.0625 40.4375 2.0625 C40.4375 1.4025 40.4375 0.7425 40.4375 0.0625 C41.035625 0.248125 41.63375 0.43375 42.25 0.625 C44.60158762 1.28343687 44.60158762 1.28343687 47.4375 0.0625 C47.4375 0.7225 47.4375 1.3825 47.4375 2.0625 C48.406875 2.041875 49.37625 2.02125 50.375 2 C53.4375 2.0625 53.4375 2.0625 54.4375 3.0625 C54.47813832 4.72867115 54.480221 6.39638095 54.4375 8.0625 C53.7775 8.0625 53.1175 8.0625 52.4375 8.0625 C52.4375 6.7425 52.4375 5.4225 52.4375 4.0625 C51.7775 4.0625 51.1175 4.0625 50.4375 4.0625 C50.4375 5.3825 50.4375 6.7025 50.4375 8.0625 C42.90780348 8.08776648 35.3781178 8.10533141 27.84838867 8.11743164 C25.28458243 8.1224737 22.72077909 8.12930714 20.15698242 8.13793945 C16.48094979 8.15001064 12.80495502 8.15572942 9.12890625 8.16015625 C7.97475723 8.16531754 6.82060822 8.17047882 5.63148499 8.17579651 C4.57046066 8.17587204 3.50943634 8.17594757 2.41625977 8.17602539 C1.00728172 8.17935631 1.00728172 8.17935631 -0.43016052 8.18275452 C-2.5625 8.0625 -2.5625 8.0625 -3.5625 7.0625 C-3.6875 4.0625 -3.6875 4.0625 -3.5625 1.0625 C-2.5625 0.0625 -2.5625 0.0625 0 0 Z M6.4375 4.0625 C7.4375 6.0625 7.4375 6.0625 7.4375 6.0625 Z M12.4375 4.0625 C12.4375 4.7225 12.4375 5.3825 12.4375 6.0625 C13.0975 5.7325 13.7575 5.4025 14.4375 5.0625 C13.7775 4.7325 13.1175 4.4025 12.4375 4.0625 Z M31.4375 4.0625 C31.4375 4.7225 31.4375 5.3825 31.4375 6.0625 C32.0975 6.0625 32.7575 6.0625 33.4375 6.0625 C33.4375 5.4025 33.4375 4.7425 33.4375 4.0625 C32.7775 4.0625 32.1175 4.0625 31.4375 4.0625 Z M38.4375 4.0625 C38.1075 4.7225 37.7775 5.3825 37.4375 6.0625 C38.0975 6.0625 38.7575 6.0625 39.4375 6.0625 C39.1075 5.4025 38.7775 4.7425 38.4375 4.0625 Z M44.4375 4.0625 C44.4375 4.7225 44.4375 5.3825 44.4375 6.0625 C45.0975 6.0625 45.7575 6.0625 46.4375 6.0625 C46.4375 5.4025 46.4375 4.7425 46.4375 4.0625 C45.7775 4.0625 45.1175 4.0625 44.4375 4.0625 Z " fill="#FFFFFF" transform="translate(51.5625,7.9375)"/>
<path d="M0 0 C23.76 0 47.52 0 72 0 C72 1.32 72 2.64 72 4 C48.24 4 24.48 4 0 4 C0 2.68 0 1.36 0 0 Z " fill="#D0D0D0" transform="translate(48,34)"/>
<path d="M0 0 C0.99 0 1.98 0 3 0 C3.33 0.99 3.66 1.98 4 3 C5.65 3.33 7.3 3.66 9 4 C9 4.66 9 5.32 9 6 C9.66 6 10.32 6 11 6 C11 5.34 11 4.68 11 4 C14.69541586 3.04975021 17.30458414 3.04975021 21 4 C21 7.3 21 10.6 21 14 C14 14 7 14 0 14 C0 9.38 0 4.76 0 0 Z M4 7 C3.67 7.99 3.34 8.98 3 10 C3.99 10 4.98 10 6 10 C6 9.01 6 8.02 6 7 C5.34 7 4.68 7 4 7 Z M15 7 C15 8.32 15 9.64 15 11 C15.66 10.67 16.32 10.34 17 10 C16.67 9.01 16.34 8.02 16 7 C15.67 7 15.34 7 15 7 Z " fill="#FFFFFF" transform="translate(99,18)"/>
<path d="M0 0 C3.90432869 0 6.38026598 0.68373308 10 2 C9.67 3.32 9.34 4.64 9 6 C-1.395 6.495 -1.395 6.495 -12 7 C-12 5.02 -12 3.04 -12 1 C-11.21753906 1.01160156 -10.43507813 1.02320313 -9.62890625 1.03515625 C-8.61699219 1.04417969 -7.60507813 1.05320313 -6.5625 1.0625 C-5.04849609 1.07990234 -5.04849609 1.07990234 -3.50390625 1.09765625 C-1.05978933 1.28612676 -1.05978933 1.28612676 0 0 Z " fill="#FFFFFF" transform="translate(110,39)"/>
<path d="M0 0 C7.92 0 15.84 0 24 0 C24 1.32 24 2.64 24 4 C15.75 4 7.5 4 -1 4 C-0.67 2.68 -0.34 1.36 0 0 Z " fill="#FFFFFF" transform="translate(96,34)"/>
<path d="M0 0 C1.60542328 0.23910559 3.21038376 0.48184361 4.8125 0.7421875 C8.86066942 1.21929318 12.93036985 1.07369552 17 1 C17 2.65 17 4.3 17 6 C10.73 6 4.46 6 -2 6 C-1 1 -1 1 0 0 Z " fill="#FFFFFF" transform="translate(50,39)"/>
<path d="M0 0 C0.66 0 1.32 0 2 0 C2.33 0.66 2.66 1.32 3 2 C4.32 2 5.64 2 7 2 C8.125 5.75 8.125 5.75 7 8 C3.37 8 -0.26 8 -4 8 C-4 6.35 -4 4.7 -4 3 C-2.68 2.67 -1.36 2.34 0 2 C0 1.34 0 0.68 0 0 Z M-2 4 C-2 4.66 -2 5.32 -2 6 C-1.34 5.67 -0.68 5.34 0 5 C-0.66 4.67 -1.32 4.34 -2 4 Z " fill="#FFFFFF" transform="translate(112,8)"/>
<path d="M0 0 C4.62 0 9.24 0 14 0 C14 1.65 14 3.3 14 5 C9.38 5 4.76 5 0 5 C0 3.35 0 1.7 0 0 Z " fill="#FFFFFF" transform="translate(75,40)"/>
<path d="M0 0 C1.98 0.66 3.96 1.32 6 2 C6 3.32 6 4.64 6 6 C4.02 6 2.04 6 0 6 C0 4.02 0 2.04 0 0 Z " fill="#FFFFFF" transform="translate(68,39)"/>
<path d="M0 0 C0 1.98 0 3.96 0 6 C-1.65 6 -3.3 6 -5 6 C-5 4.68 -5 3.36 -5 2 C-1.125 0 -1.125 0 0 0 Z " fill="#FFFFFF" transform="translate(96,39)"/>
</svg>
