<svg width="173" height="36" viewBox="0 0 173 36" fill="none" xmlns="http://www.w3.org/2000/svg">
<g clip-path="url(#clip0_84_36)">
<path d="M37.8 22.11L42.85 22.15C44.86 22.15 46.45 21.56 47.62 20.38C48.37 19.65 49.03 18.68 49.6 17.49C49.92 16.94 50.18 16.46 50.4 16.03H46.33C46.37 16.1 46.4 16.16 46.42 16.24V16.28C46.42 16.58 46.12 17.16 45.53 18.01C45.19 18.57 44.22 18.85 42.62 18.85H39.63L41.18 16.02H37.53L32.25 25.47H35.91C36.09 25.26 36.72 24.15 37.8 22.11Z" fill="#EFEFEF"/>
<path d="M39.7 12.1399L38.09 15.0199H50.86C51.03 14.5999 51.13 14.2699 51.11 14.0299C51.09 13.7299 51.04 13.4999 50.95 13.3499C50.51 12.5399 49.73 12.1799 48.78 12.1799H48.04L39.73 12.1399H39.69H39.7Z" fill="#EFEFEF"/>
<path d="M51.79 25.45L57.1 16.03H53.39L48.12 25.47H51.76L51.79 25.45Z" fill="#EFEFEF"/>
<path d="M59.1599 12.26H55.4299L53.9399 15.02H57.6499L59.1599 12.26Z" fill="#EFEFEF"/>
<path d="M74.3 25.45L79.61 16.03H75.9L70.63 25.47H74.27L74.3 25.45Z" fill="#EFEFEF"/>
<path d="M81.67 12.26H77.94L76.45 15.02H80.16L81.67 12.26Z" fill="#EFEFEF"/>
<path d="M96.02 25.45L101.33 16.03H97.62L92.35 25.47H95.99L96.02 25.45Z" fill="#EFEFEF"/>
<path d="M103.39 12.26H99.66L98.17 15.02H101.88L103.39 12.26Z" fill="#EFEFEF"/>
<path d="M64.41 25.45C65 25.4 65.46 25.32 65.81 25.21C67.23 24.77 68.34 23.98 69.15 22.84L72.3 17.17C72.55 16.75 72.75 16.38 72.93 16.03H68.93C68.93 16.03 68.96 16.11 68.96 16.16C68.96 16.5 68.39 17.5 67.37 19.47C66.34 21.34 65.42 22.12 64.15 22.12H60.35V22.08L63.7 16.04H59.97L54.76 25.49H58.43L64.43 25.47L64.41 25.45Z" fill="#EFEFEF"/>
<path d="M73.7001 14.0299C73.7001 13.7499 73.6501 13.5099 73.5401 13.3099C73.1201 12.5299 72.2101 12.1399 70.8201 12.1399H62.1601L62.1201 12.1799L60.5601 15.0099H73.4401C73.6001 14.5899 73.6901 14.2599 73.6901 14.0199" fill="#EFEFEF"/>
<path d="M87.73 25.09C88.99 24.69 90.1 23.82 91.07 22.48C92.13 20.8 92.66 19.71 92.66 19.22V18.94L92.58 18.58C92.27 17.91 91.49 17.57 90.25 17.57H84.81C84.97 17.31 85.18 16.66 86.05 16.03H81.84C81.05 17.28 80.48 18.5 80.77 19.26C81.01 19.88 81.95 20.23 83.8 20.23H88.65C88.59 20.53 88.29 21.02 87.6 21.52C87.01 21.95 86.43 22.08 85.97 22.08H79.47C79.37 22.08 78.94 22.08 78.5 22.08L76.58 25.48H86C86.48 25.45 87.05 25.32 87.72 25.09" fill="#EFEFEF"/>
<path d="M96.78 12.1799H87.96C85.69 12.1799 83.94 13.0199 82.72 14.7099C82.65 14.8199 82.58 14.9099 82.51 15.0099H95.23L96.78 12.1699V12.1799Z" fill="#EFEFEF"/>
<path d="M125.7 13.95C125.7 13.83 125.65 13.59 125.62 13.47C125.46 12.66 124.47 12.26 122.71 12.26H106.37L104.83 15.01H125.44C125.61 14.56 125.72 14.21 125.7 13.94" fill="#EFEFEF"/>
<path d="M124.89 16.03H121.02C121.02 16.03 121.06 16.11 121.06 16.16V16.32C120.89 16.74 119.05 19.85 115.96 25.47H119.61L124.88 16.02L124.89 16.03Z" fill="#EFEFEF"/>
<path d="M107.96 16.03H104.27L99.03 25.47H102.64L107.96 16.03Z" fill="#EFEFEF"/>
<path d="M116.55 16.03H112.86L107.62 25.47H111.23L116.55 16.03Z" fill="#EFEFEF"/>
<path d="M136.76 16.2V16.32C136.76 16.68 136.27 17.82 135.43 19.38C134.61 21.08 133.42 22.11 132.1 22.11H129.66C128.99 22.11 128.65 21.88 128.65 21.43V21.35C128.65 20.97 129.43 19.67 130.04 18.57C130.46 17.81 131.44 16.51 132.17 16.03H127.86C127.35 16.9 126.65 18.15 125.75 19.78C124.53 21.77 123.93 23.1 123.93 23.76C123.93 23.93 123.97 24.15 124.05 24.4C124.38 25.04 125 25.4 125.9 25.47H131.8C132.88 25.42 133.73 25.25 134.34 24.96C135.11 24.66 135.94 24.02 136.83 23.03C137.19 22.54 138.22 20.69 139.94 17.48C140.26 16.94 140.53 16.45 140.75 16.02H136.73C136.75 16.07 136.77 16.13 136.77 16.19" fill="#EFEFEF"/>
<path d="M141.44 13.6699C141.15 12.6799 140.33 12.1799 138.99 12.1799H133.59C131.79 12.1799 130.15 13.0399 128.66 14.7499C128.61 14.8199 128.55 14.9099 128.48 15.0099H141.2C141.38 14.5599 141.47 14.1999 141.47 13.9399L141.43 13.6599L141.44 13.6699Z" fill="#EFEFEF"/>
<path d="M20.1301 25.45C21.2401 23.36 21.8501 22.26 21.9501 22.15H27.4601L25.7101 25.45H29.2801C29.3901 25.34 30.8901 22.66 33.7801 17.41C34.0901 16.9 34.3401 16.44 34.5501 16.03H30.6101C30.6301 16.08 30.6401 16.14 30.6401 16.2V16.36C30.6401 16.55 30.1701 17.39 29.2401 18.89H23.7301C23.7301 18.82 24.9801 16.24 25.8201 16.02H21.6601L17.9901 22.59C17.5101 23.47 16.9901 24.41 16.4301 25.44V25.46H20.0901L20.1101 25.44L20.1301 25.45Z" fill="#EFEFEF"/>
<path d="M35.27 14.0699C35.27 13.9199 35.23 13.6099 35.19 13.4699C34.93 12.5599 33.9 12.1799 32.51 12.1799L26.96 12.2199C26.15 12.2799 25.37 12.5199 24.63 12.9399C24.04 13.1799 23.25 13.8599 22.26 14.9899C22.26 14.9899 22.26 15.0099 22.25 15.0099H35.03C35.19 14.6099 35.27 14.3699 35.27 14.0599" fill="#EFEFEF"/>
<path d="M5.77 22H11.48L9.59 25.48H13.47L15.35 22.1C15.35 22.1 15.38 22.04 15.39 22.02C15.68 21.43 15.71 21.37 15.68 21.11C15.63 20.56 12.59 20.34 12.05 20.34L12.08 20.17C12.08 20.17 15.16 20.17 15.76 20.01C16.37 19.85 16.88 19.28 17.38 18.45L18.66 16.1H14.67C14.67 16.1 14.48 16.67 14.13 17.22C13.67 17.94 12.91 18.45 11.33 18.51C11.19 18.51 11.06 18.52 10.91 18.52H7.69C7.69 18.43 8.13 17.62 9.01 16.1C9.08 15.98 9.15 15.86 9.22 15.73H5.43L0 25.47H3.79L5.77 21.99V22Z" fill="#EFEFEF"/>
<path d="M19.29 15.0199L19.31 14.9799C19.58 14.3599 19.72 13.8999 19.72 13.5999L19.68 13.2999C19.58 12.9299 19.4 12.6199 19.13 12.3699C18.62 11.8899 17.82 11.6499 16.7 11.6499H7.69996L5.82996 15.0099H19.3L19.29 15.0199Z" fill="#EFEFEF"/>
<path d="M19.3 15.02C19.3 15.02 19.31 15 19.32 14.98L19.3 15.02Z" fill="#EFEFEF"/>
<path d="M15.8101 9.7699H17.7101C17.8801 9.4899 20.4001 4.8999 20.4001 4.8999H18.3901C18.3901 4.9799 18.3601 5.0899 18.3101 5.2299L15.8101 9.7599V9.7699Z" fill="#EFEFEF"/>
<path d="M26.3099 4.36996L27.0999 2.95996H22.4599L21.6899 4.36996C22.3699 4.36996 23.1299 4.36996 23.8299 4.36996C25.1699 4.36996 26.3099 4.36996 26.3099 4.36996Z" fill="#EFEFEF"/>
<path d="M31.17 9.7699L32.13 8.0699H27.32L27.84 7.0999H30.51L31.29 5.7199H28.64C28.79 5.4199 28.98 5.0899 29.09 4.8999H27.19C26.57 6.0199 25.64 7.7199 24.52 9.7699H31.18H31.17Z" fill="#EFEFEF"/>
<path d="M34.27 9.73991L35.26 8.00991H38.08L37.13 9.76991L39.06 9.74991L40 8.05991C40 8.05991 40.01 8.02991 40.02 8.01991C40.16 7.72991 40.18 7.69991 40.17 7.56991C40.15 7.29991 38.64 7.18991 38.37 7.18991L38.39 7.10991C38.39 7.10991 39.91 7.10991 40.21 7.02991C40.51 6.94991 40.77 6.66991 41.01 6.25991L41.71 4.91991H39.74C39.74 4.91991 39.58 5.37991 39.4 5.64991C39.17 5.99991 38.8 6.25991 38.02 6.28991C37.95 6.28991 37.88 6.28991 37.81 6.28991H36.22C36.22 6.28991 36.44 5.83991 36.87 5.08991C36.9 5.02991 36.94 4.96991 36.97 4.90991H35.1L32.41 9.73991H34.28H34.27Z" fill="#EFEFEF"/>
<path d="M42.0199 3.97L41.9999 3.82C41.9499 3.63 41.8599 3.48 41.7299 3.36C41.4799 3.12 41.0799 3 40.5299 3H36.0799L35.3199 4.37H41.9299C41.9899 4.2 42.0199 4.06 42.0199 3.96" fill="#EFEFEF"/>
<path d="M10.67 9.7499L13.4 4.8999H11.5L8.78003 9.7699H10.65L10.67 9.7499Z" fill="#EFEFEF"/>
<path d="M14.46 2.95996H12.55L11.78 4.37996H13.69L14.46 2.95996Z" fill="#EFEFEF"/>
<path d="M20.54 4.37997V4.35997C20.66 4.09997 20.72 3.89997 20.72 3.77997L20.7 3.65997C20.66 3.49997 20.58 3.36997 20.47 3.26997C20.26 3.06997 19.92 2.96997 19.44 2.96997H15.64L14.85 4.38997H20.53L20.54 4.37997Z" fill="#EFEFEF"/>
<path d="M22.75 4.8999L20.03 9.7699H21.91L21.93 9.7499L24.66 4.8999H22.75Z" fill="#EFEFEF"/>
<path d="M13.78 9.7699L13.8 9.7499L16.53 4.8999H14.62L11.91 9.7699H13.78Z" fill="#EFEFEF"/>
<path d="M34.9599 2.95996H28.24C28.24 2.95996 27.95 3.45996 27.45 4.37996H34.1699L34.9599 2.95996Z" fill="#EFEFEF"/>
<path d="M164.36 5.05001C165.75 5.05001 166.88 3.92001 166.88 2.53001C166.88 1.14001 165.75 0.0100098 164.36 0.0100098C162.97 0.0100098 161.84 1.14001 161.84 2.53001C161.84 3.92001 162.97 5.05001 164.36 5.05001Z" fill="#EFEFEF"/>
<path d="M163.45 19.9199C163.36 19.8499 163.26 19.7899 163.16 19.7299C163.16 19.7299 163.09 19.6899 163.06 19.6699L161.61 18.8599L155.66 15.4199H155.64L146.32 31.5599L145.89 32.2899C145.83 32.3699 145.78 32.4599 145.73 32.5499C145.72 32.5799 145.7 32.6099 145.69 32.6399V32.6499C145.58 32.9099 145.51 33.2099 145.51 33.5199C145.51 34.6699 146.37 35.5999 147.44 35.5999C148.07 35.5999 148.63 35.2699 148.99 34.7599L149.53 33.8399L152 29.5599L162.16 26.8399C162.28 26.8099 162.4 26.7799 162.52 26.7399L162.63 26.7099C164.03 26.1899 165.04 24.7599 165.04 23.0799C165.04 22.3399 164.84 21.6499 164.5 21.0599C164.23 20.5999 163.88 20.2099 163.47 19.9099M158 23.9099L154.76 24.7799L157.08 20.7599L158.27 21.4399L161.1 23.0799L158 23.9099Z" fill="#EFEFEF"/>
<path d="M146.53 18.2299L146.84 19.1099L147.72 18.9599L147.95 18.9199L152.22 18.1999L150.4 17.1299L153.89 11.0799L158.82 10.0399C159.62 9.82991 160.22 9.04991 160.22 8.11991C160.22 7.03991 159.41 6.15991 158.4 6.15991C158.24 6.15991 158.09 6.17991 157.94 6.21991L151.39 7.60991H151.38L147.02 15.1499L145.01 13.9699L146.45 17.9999L146.53 18.2199V18.2299Z" fill="#EFEFEF"/>
<path d="M144.81 14.0801L142.07 18.7601L146.22 18.0501L144.81 14.0801Z" fill="#EFEFEF"/>
<path d="M149.47 23.1599L152.24 18.4299L148.04 19.1499L149.47 23.1599Z" fill="#EFEFEF"/>
<path d="M147.8 19.19L146.93 19.33L146.69 19.37L146.61 19.15L146.3 18.27L142.07 18.99L149.23 23.19L147.8 19.19Z" fill="#EFEFEF"/>
<path d="M170.49 5.73999C169.8 5.73999 169.2 6.11999 168.88 6.67999C168.83 6.76999 168.78 6.87999 168.74 6.97999L168.56 7.37999L167.22 10.39H163.25L161.26 13.97H169.64V13.95L171.76 9.20999L172.24 8.12999C172.29 7.95999 172.32 7.77999 172.32 7.58999C172.32 6.56999 171.49 5.74999 170.48 5.74999" fill="#EFEFEF"/>
</g>
<defs>
<clipPath id="clip0_84_36">
<rect width="172.33" height="35.61" fill="white"/>
</clipPath>
</defs>
</svg>
