<svg width="19" height="22" viewBox="0 0 19 22" fill="none" xmlns="http://www.w3.org/2000/svg">
<g clip-path="url(#clip0_72_2)">
<path d="M13.76 3.10999C14.62 3.10999 15.32 2.40999 15.32 1.54999C15.32 0.68999 14.62 -0.0100098 13.76 -0.0100098C12.9 -0.0100098 12.2 0.68999 12.2 1.54999C12.2 2.40999 12.9 3.10999 13.76 3.10999Z" fill="#EFEFEF"/>
<path d="M13.2 12.29C13.14 12.25 13.08 12.21 13.02 12.17C13.02 12.17 12.98 12.14 12.96 12.13L12.07 11.63L8.40001 9.51001H8.39001L2.64001 19.47L2.37001 19.92C2.33001 19.97 2.30001 20.03 2.27001 20.08C2.27001 20.1 2.25001 20.11 2.25001 20.13C2.18001 20.29 2.14001 20.48 2.14001 20.67C2.14001 21.38 2.67001 21.95 3.33001 21.95C3.72001 21.95 4.07001 21.75 4.28001 21.43L4.61001 20.86L6.14001 18.22L12.41 16.54C12.49 16.52 12.56 16.5 12.63 16.48L12.7 16.46C13.56 16.14 14.18 15.26 14.18 14.22C14.18 13.76 14.06 13.33 13.85 12.97C13.69 12.69 13.47 12.44 13.21 12.26M9.83001 14.75L7.83001 15.29L9.26001 12.81L9.99001 13.23L11.74 14.24L9.83001 14.75Z" fill="#EFEFEF"/>
<path d="M2.76001 11.2501L2.95001 11.7901L3.49001 11.7001L3.63001 11.6801L6.26001 11.2301L5.13001 10.5701L7.29001 6.84006L10.33 6.20006C10.82 6.07006 11.19 5.59006 11.19 5.02006C11.19 4.35006 10.69 3.81006 10.07 3.81006C9.97001 3.81006 9.88001 3.82006 9.79001 3.85006L5.75001 4.71006L3.06001 9.36006L1.82001 8.63006L2.71001 11.1201L2.76001 11.2601V11.2501Z" fill="#EFEFEF"/>
<path d="M1.69 8.68994L0 11.5699L2.56 11.1399L1.69 8.68994Z" fill="#EFEFEF"/>
<path d="M4.56999 14.29L6.27999 11.37L3.67999 11.81L4.56999 14.29Z" fill="#EFEFEF"/>
<path d="M3.54 11.84L3 11.93L2.86 11.95L2.81 11.82L2.61 11.27L0 11.72L4.42 14.31L3.54 11.84Z" fill="#EFEFEF"/>
<path d="M17.54 3.54004C17.12 3.54004 16.74 3.77004 16.55 4.12004C16.52 4.18004 16.49 4.24004 16.47 4.31004L16.36 4.56004L15.53 6.42004H13.08L11.85 8.63004H17.02V8.61004L18.33 5.68004L18.62 5.01004C18.65 4.91004 18.67 4.79004 18.67 4.68004C18.67 4.05004 18.16 3.54004 17.53 3.54004" fill="#EFEFEF"/>
</g>
<defs>
<clipPath id="clip0_72_2">
<rect width="18.67" height="21.97" fill="white"/>
</clipPath>
</defs>
</svg>
