<svg width="161" height="24" viewBox="0 0 161 24" fill="none" xmlns="http://www.w3.org/2000/svg">
<g clip-path="url(#clip0_87_132)">
<path d="M48.7501 22.7799C48.4701 22.6999 48.4301 22.1499 48.5001 21.8999L51.3601 5.73993C51.5001 5.33993 52.0501 5.40993 52.3901 5.50993C54.4601 9.29993 56.0501 13.3699 58.0301 17.2199L63.4701 5.73993C63.6101 5.35993 64.4201 5.35993 64.6201 5.60993L67.5501 21.9099L67.5701 22.6099C67.5501 22.6799 67.3301 22.7899 67.3001 22.7899H64.8801C64.8801 22.7899 64.6201 22.6299 64.5701 22.5699L63.0301 13.1299L58.4301 22.9799C58.0801 22.9999 57.6001 23.1199 57.4001 22.7799C55.9801 19.8199 54.7901 16.7399 53.3501 13.7899C53.2401 13.5699 53.1401 13.2399 52.9101 13.1299L51.4401 22.6199C51.4101 22.6699 51.2101 22.7999 51.1701 22.7999C50.6401 22.7999 49.1201 22.8999 48.7501 22.7999V22.7799Z" fill="white"/>
<path d="M138.03 5.65991C139.38 5.83991 140.98 7.08991 141.65 8.24991C143.33 11.1999 141.78 14.6499 138.72 15.7899L142.01 21.9599L142.08 22.4899C142.05 22.5999 141.95 22.6499 141.86 22.6899C141.55 22.8299 138.95 22.8299 138.75 22.6399L135.4 16.0499H132.71V22.2999C132.71 22.3599 132.51 22.6099 132.44 22.6599C132.1 22.8699 129.93 22.9099 129.55 22.5099V5.81991L129.71 5.65991H138.04H138.03ZM132.71 13.4299H137.08C138.32 13.4299 139.24 11.7799 139.14 10.6399C139.06 9.72991 138 8.48991 137.08 8.48991H132.71V13.4299Z" fill="white"/>
<path d="M96.2401 5.65991C96.2101 5.75991 96.3501 5.88991 96.3501 5.91991V12.5899H104.36V6.02991C104.36 6.02991 104.6 5.65991 104.62 5.65991H107.36L107.52 5.81991V22.5199C107.18 22.8899 104.99 22.8799 104.67 22.7299C104.57 22.6799 104.49 22.5399 104.43 22.4399L104.3 15.5399H96.34V22.4199C96.34 22.4199 96.2201 22.6599 96.1601 22.6899C95.8601 22.8699 93.5201 22.9199 93.1801 22.5199V5.81991L93.34 5.65991H96.2401Z" fill="white"/>
<path d="M117.51 5.58001C124.37 4.86001 129.48 12.02 126.26 18.19C121.65 27.02 107.5 22.32 110.21 11.86C110.32 11.43 111.05 9.47001 111.39 9.36001C111.87 9.20001 112.55 9.90001 112.9 10.24C114.16 11.44 113.7 11.09 113.29 12.52C111.56 18.6 119.14 22.37 122.95 17.53C126 13.65 122.54 8.01 117.7 8.73001C117.2 8.80001 115.85 9.40001 115.6 9.33001C115.45 9.29001 113.91 7.56001 113.86 7.38001C113.82 7.25001 113.82 7.13001 113.86 7.00001C114.04 6.41001 116.86 5.66001 117.51 5.59001V5.58001Z" fill="white"/>
<path d="M4.26 18.9599C6.25 20.7699 10 19.7799 10.34 16.9499L10.36 6.15993C10.44 5.91993 10.55 5.71993 10.81 5.66993C11.17 5.59993 13.3 5.61993 13.5 5.81993C13.59 5.90993 13.61 6.00993 13.61 6.12993C13.4 9.65993 13.87 13.4599 13.61 16.9599C13.02 24.8899 0.85 24.9999 0 17.1699L0.06 5.86993C0.23 5.58993 2.31 5.59993 2.7 5.65993C2.92 5.68993 3.07 5.71993 3.15 5.94993L3.17 16.5299C3.29 17.4199 3.58 18.3399 4.26 18.9599Z" fill="white"/>
<path d="M156.88 22.5401C156.46 22.1101 155.99 20.2901 155.6 19.6901L148.18 19.6201C147.96 19.6701 147.12 22.2901 146.77 22.5701C146.42 22.8501 144.86 22.8201 144.36 22.7801C144.1 22.7601 143.83 22.7501 143.69 22.4901L151.66 5.36011L152.22 5.39011L160 22.1101C160.11 22.5101 159.93 22.7001 159.54 22.7601C159.07 22.8301 157.2 22.8401 156.89 22.5301L156.88 22.5401ZM154.32 16.9001L151.74 11.5401L149.37 16.9001H154.32Z" fill="white"/>
<path d="M76.71 5.47008C77.49 5.23008 77.61 5.89008 77.89 6.46008C80.4 11.5901 82.53 16.9101 85.02 22.0401C85.12 22.2701 85.1 22.6101 84.86 22.7301C84.66 22.8201 82.91 22.8201 82.59 22.7801C81.9 22.7001 81.77 22.0901 81.5 21.5601C81.3 21.1701 80.9 19.9801 80.7 19.7401C80.61 19.6401 80.51 19.6301 80.39 19.6301L73.34 19.6501C72.99 19.7701 72.31 22.3701 71.73 22.6701C71.4 22.8401 69.74 22.8501 69.31 22.7901C68.94 22.7401 68.8 22.5901 68.84 22.2201L76.49 5.67008C76.54 5.58008 76.61 5.51008 76.72 5.48008L76.71 5.47008ZM79.37 17.0001L76.84 11.5401L74.52 16.9001L79.37 17.0101V17.0001Z" fill="white"/>
<path d="M35 8.59992V22.5199C34.65 22.9099 32.31 22.8699 32.02 22.6899C31.97 22.6599 31.84 22.4599 31.84 22.4199V8.60992H27.99C27.47 8.60992 27.57 6.55992 27.63 6.14992C27.66 5.93992 27.7 5.75992 27.93 5.71992L38.54 5.66992C38.82 5.66992 39.16 5.71992 39.22 6.03992C39.27 6.29992 39.24 8.27992 39.17 8.39992C39.1 8.44992 38.9 8.60992 38.85 8.60992H35V8.59992Z" fill="white"/>
<path d="M20.77 19.8401H27.15C27.2 19.8401 27.4 20.0001 27.47 20.0501C27.55 20.1901 27.56 22.0201 27.53 22.3101C27.5 22.6001 27.43 22.6801 27.13 22.7501L17.93 22.7201L17.67 22.4601L17.64 6.05012C17.67 5.94012 17.69 5.82012 17.79 5.76012C18.08 5.58012 20.43 5.53012 20.78 5.93012V19.8501L20.77 19.8401Z" fill="white"/>
<path d="M42.34 5.68012C42.62 5.60012 44.78 5.63012 44.96 5.76012C45.03 5.81012 45.14 5.98012 45.16 6.07012V22.3101C45.12 22.5401 44.98 22.7301 44.74 22.7801C44.48 22.8301 42.55 22.8301 42.34 22.7601C42.13 22.6901 41.99 22.4001 41.96 22.2001L42.03 6.01012C42.1 5.88012 42.19 5.73012 42.34 5.69012V5.68012Z" fill="white"/>
<path d="M8.50994 9.98343e-05C8.82994 -0.0399002 8.96994 0.3601 9.11994 0.6101C9.29994 0.9201 9.73994 1.6601 9.53994 1.9801C9.41994 2.1801 5.75994 3.7401 5.26994 3.9201C5.03994 4.0001 4.90994 4.1301 4.68994 3.9901C4.43994 3.8201 3.92994 2.8301 4.20994 2.5501L8.50994 9.98343e-05Z" fill="white"/>
<path d="M115.21 10.81C115.29 10.73 116.01 11.21 116.15 11.29C116.8 11.68 118.7 12.72 119.11 13.17C120.16 14.3 118.58 15.76 117.52 14.65C116.99 14.09 116.1 12.43 115.65 11.68C115.57 11.54 115.13 10.89 115.21 10.81Z" fill="white"/>
</g>
<defs>
<clipPath id="clip0_87_132">
<rect width="160.02" height="23.01" fill="white"/>
</clipPath>
</defs>
</svg>
